AlegreyaSans-Regular.ufo
<glyph name="quotedbl" format="2">
  <advance width="286"/>
  <unicode hex="0022"/>
  <outline>
    <contour>
      <point x="122" y="639" type="line"/>
      <point x="57" y="634" type="line"/>
      <point x="53" y="446" type="line"/>
      <point x="60" y="439" type="line"/>
      <point x="103" y="445" type="line"/>
      <point x="128" y="632" type="line"/>
    </contour>
    <contour>
      <point x="238" y="639" type="line"/>
      <point x="173" y="634" type="line"/>
      <point x="169" y="446" type="line"/>
      <point x="176" y="439" type="line"/>
      <point x="219" y="445" type="line"/>
      <point x="244" y="632" type="line"/>
    </contour>
  </outline>
</glyph>
<glyph name="dollar" format="2">
  <advance width="430"/>
  <unicode hex="0024"/>
  <anchor x="198" y="0" name="bottom"/>
  <anchor x="216" y="499" name="top"/>
  <outline>
    <contour>
      <point x="265" y="465" type="line"/>
      <point x="214" y="465" type="line"/>
      <point x="179" y="32" type="line"/>
      <point x="229" y="32" type="line"/>
    </contour>
    <contour>
      <point x="229" y="32" type="line"/>
      <point x="179" y="32" type="line"/>
      <point x="167" y="-122" type="line"/>
      <point x="175" y="-130" type="line"/>
      <point x="216" y="-130" type="line"/>
    </contour>
    <contour>
      <point x="269" y="642" type="line"/>
      <point x="227" y="642" type="line"/>
      <point x="214" y="465" type="line"/>
      <point x="264" y="465" type="line"/>
      <point x="278" y="634" type="line"/>
    </contour>
    <contour>
      <point x="240" y="502" type="curve" smooth="yes"/>
      <point x="130" y="502"/>
      <point x="61" y="440"/>
      <point x="61" y="362" type="curve" smooth="yes"/>
      <point x="61" y="214"/>
      <point x="310" y="231"/>
      <point x="310" y="128" type="curve" smooth="yes"/>
      <point x="310" y="87"/>
      <point x="268" y="49"/>
      <point x="205" y="49" type="curve" smooth="yes"/>
      <point x="162" y="49"/>
      <point x="105" y="68"/>
      <point x="66" y="106" type="curve"/>
      <point x="56" y="102" type="line"/>
      <point x="48" y="28" type="line"/>
      <point x="95" y="5"/>
      <point x="151" y="-5"/>
      <point x="196" y="-5" type="curve" smooth="yes"/>
      <point x="313" y="-5"/>
      <point x="379" y="64"/>
      <point x="379" y="140" type="curve" smooth="yes"/>
      <point x="379" y="288"/>
      <point x="130" y="272"/>
      <point x="130" y="371" type="curve" smooth="yes"/>
      <point x="130" y="407"/>
      <point x="166" y="447"/>
      <point x="232" y="447" type="curve" smooth="yes"/>
      <point x="269" y="447"/>
      <point x="303" y="435"/>
      <point x="340" y="406" type="curve"/>
      <point x="352" y="409" type="line"/>
      <point x="364" y="478" type="line"/>
      <point x="321" y="495"/>
      <point x="277" y="502"/>
    </contour>
  </outline>
</glyph>
<glyph name="percent" format="2">
  <advance width="827"/>
  <unicode hex="0025"/>
  <outline>
    <contour>
      <point x="160" y="516" type="move"/>
    </contour>
    <contour>
      <point x="192" y="646.445" type="curve" smooth="yes"/>
      <point x="93" y="646.445"/>
      <point x="39" y="582.395"/>
      <point x="39" y="464.36" type="curve" smooth="yes"/>
      <point x="39" y="352.73"/>
      <point x="90" y="291.425"/>
      <point x="182" y="291.425" type="curve" smooth="yes"/>
      <point x="281" y="291.425"/>
      <point x="334" y="355.475"/>
      <point x="334" y="474.425" type="curve" smooth="yes"/>
      <point x="334" y="585.14"/>
      <point x="284" y="646.445"/>
    </contour>
    <contour>
      <point x="186" y="584.225" type="curve" smooth="yes"/>
      <point x="245" y="584.225"/>
      <point x="275" y="544.88"/>
      <point x="275" y="465.275" type="curve" smooth="yes"/>
      <point x="275" y="389.33"/>
      <point x="246" y="349.985"/>
      <point x="187" y="349.985" type="curve" smooth="yes"/>
      <point x="128" y="349.985"/>
      <point x="99" y="389.33"/>
      <point x="99" y="469.85" type="curve" smooth="yes"/>
      <point x="99" y="545.795"/>
      <point x="128" y="584.225"/>
    </contour>
    <contour>
      <point x="609" y="679" type="line"/>
      <point x="139" y="-57" type="line"/>
      <point x="144" y="-69" type="line"/>
      <point x="182" y="-91" type="line"/>
      <point x="652" y="643" type="line"/>
      <point x="646" y="657" type="line"/>
    </contour>
    <contour>
      <point x="645" y="350.445" type="curve" smooth="yes"/>
      <point x="546" y="350.445"/>
      <point x="492" y="286.395"/>
      <point x="492" y="168.36" type="curve" smooth="yes"/>
      <point x="492" y="56.73"/>
      <point x="543" y="-4.575"/>
      <point x="635" y="-4.575" type="curve" smooth="yes"/>
      <point x="734" y="-4.575"/>
      <point x="787" y="59.475"/>
      <point x="787" y="178.425" type="curve" smooth="yes"/>
      <point x="787" y="289.14"/>
      <point x="737" y="350.445"/>
    </contour>
    <contour>
      <point x="639" y="288.225" type="curve" smooth="yes"/>
      <point x="698" y="288.225"/>
      <point x="728" y="248.88"/>
      <point x="728" y="169.275" type="curve" smooth="yes"/>
      <point x="728" y="93.33"/>
      <point x="699" y="53.985"/>
      <point x="640" y="53.985" type="curve" smooth="yes"/>
      <point x="581" y="53.985"/>
      <point x="552" y="93.33"/>
      <point x="552" y="173.85" type="curve" smooth="yes"/>
      <point x="552" y="249.795"/>
      <point x="581" y="288.225"/>
    </contour>
  </outline>
</glyph>
<glyph name="ampersand" format="2">
  <advance width="696"/>
  <unicode hex="0026"/>
  <outline>
    <contour>
      <point x="296" y="647" type="curve" smooth="yes"/>
      <point x="171" y="647"/>
      <point x="103" y="586"/>
      <point x="103" y="489" type="curve" smooth="yes"/>
      <point x="103" y="429"/>
      <point x="129" y="380"/>
      <point x="190" y="328" type="curve" smooth="yes"/>
      <point x="600" y="-39" type="line"/>
      <point x="606" y="-40" type="line"/>
      <point x="624" y="-30"/>
      <point x="640" y="-17"/>
      <point x="654" y="-2" type="curve"/>
      <point x="654" y="4" type="line"/>
      <point x="241" y="372" type="line" smooth="yes"/>
      <point x="193" y="412"/>
      <point x="177" y="444"/>
      <point x="177" y="484" type="curve" smooth="yes"/>
      <point x="177" y="548"/>
      <point x="217" y="586"/>
      <point x="294" y="586" type="curve" smooth="yes"/>
      <point x="339" y="586"/>
      <point x="381" y="574"/>
      <point x="422" y="549" type="curve"/>
      <point x="434" y="549" type="line"/>
      <point x="454" y="612" type="line"/>
      <point x="404" y="636"/>
      <point x="351" y="647"/>
    </contour>
    <contour>
      <point x="527" y="357" type="line"/>
      <point x="679" y="357" type="line"/>
      <point x="686" y="411" type="line"/>
      <point x="680" y="418" type="line"/>
      <point x="394" y="418" type="line"/>
      <point x="387" y="363" type="line"/>
      <point x="392" y="357" type="line"/>
      <point x="461" y="357" type="line"/>
      <point x="479" y="322"/>
      <point x="488" y="286"/>
      <point x="488" y="244" type="curve" smooth="yes"/>
      <point x="488" y="131"/>
      <point x="418" y="54"/>
      <point x="294" y="54" type="curve" smooth="yes"/>
      <point x="197" y="54"/>
      <point x="131" y="101"/>
      <point x="131" y="182" type="curve" smooth="yes"/>
      <point x="131" y="238"/>
      <point x="164" y="282"/>
      <point x="216" y="310" type="curve"/>
      <point x="174" y="369" type="line"/>
      <point x="173" y="338" type="line"/>
      <point x="99" y="300"/>
      <point x="58" y="244"/>
      <point x="58" y="169" type="curve" smooth="yes"/>
      <point x="58" y="59"/>
      <point x="151" y="-7"/>
      <point x="286" y="-7" type="curve" smooth="yes"/>
      <point x="450" y="-7"/>
      <point x="546" y="90"/>
      <point x="546" y="235" type="curve" smooth="yes"/>
      <point x="546" y="275"/>
      <point x="539" y="311"/>
      <point x="525" y="350" type="curve"/>
    </contour>
  </outline>
</glyph>
<glyph name="quotesingle" format="2">
  <advance width="170"/>
  <unicode hex="0027"/>
  <outline>
    <contour>
      <point x="122" y="639" type="line"/>
      <point x="57" y="634" type="line"/>
      <point x="53" y="446" type="line"/>
      <point x="60" y="439" type="line"/>
      <point x="103" y="445" type="line"/>
      <point x="128" y="632" type="line"/>
    </contour>
  </outline>
</glyph>
<glyph name="asterisk" format="2">
  <advance width="375"/>
  <unicode hex="002A"/>
  <outline>
    <contour>
      <point x="142" y="537" type="line"/>
      <point x="58" y="454" type="line"/>
      <point x="58" y="447" type="line"/>
      <point x="77" y="436"/>
      <point x="96" y="424"/>
      <point x="116" y="418" type="curve"/>
      <point x="173" y="511" type="line"/>
      <point x="173" y="521" type="line"/>
    </contour>
    <contour>
      <point x="51" y="657" type="line"/>
      <point x="44" y="655" type="line"/>
      <point x="37" y="635"/>
      <point x="35" y="610"/>
      <point x="35" y="591" type="curve"/>
      <point x="136" y="557" type="line"/>
      <point x="144" y="561" type="line"/>
      <point x="149" y="596" type="line"/>
    </contour>
    <contour>
      <point x="217" y="538" type="line"/>
      <point x="192" y="515" type="line"/>
      <point x="237" y="401" type="line"/>
      <point x="245" y="400" type="line"/>
      <point x="262" y="413"/>
      <point x="278" y="427"/>
      <point x="289" y="446" type="curve"/>
      <point x="227" y="537" type="line"/>
    </contour>
    <contour>
      <point x="224" y="735" type="line"/>
      <point x="202" y="735"/>
      <point x="181" y="732"/>
      <point x="161" y="725" type="curve"/>
      <point x="163" y="611" type="line"/>
      <point x="169" y="604" type="line"/>
      <point x="204" y="608" type="line"/>
      <point x="228" y="728" type="line"/>
    </contour>
    <contour>
      <point x="319" y="635" type="curve"/>
      <point x="220" y="598" type="line"/>
      <point x="216" y="589" type="line"/>
      <point x="232" y="557" type="line"/>
      <point x="343" y="572" type="line"/>
      <point x="348" y="577" type="line"/>
      <point x="341" y="598"/>
      <point x="330" y="618"/>
    </contour>
  </outline>
</glyph>
<glyph name="plus" format="2">
  <advance width="480"/>
  <unicode hex="002B"/>
  <outline>
    <contour>
      <point x="263" y="475" type="line"/>
      <point x="210" y="470" type="line"/>
      <point x="210" y="294" type="line"/>
      <point x="35" y="294" type="line"/>
      <point x="30" y="241" type="line"/>
      <point x="36" y="235" type="line"/>
      <point x="210" y="235" type="line"/>
      <point x="210" y="61" type="line"/>
      <point x="217" y="55" type="line"/>
      <point x="270" y="59" type="line"/>
      <point x="270" y="235" type="line"/>
      <point x="445" y="235" type="line"/>
      <point x="450" y="288" type="line"/>
      <point x="443" y="294" type="line"/>
      <point x="270" y="294" type="line"/>
      <point x="270" y="468" type="line"/>
    </contour>
  </outline>
</glyph>
<glyph name="comma" format="2">
  <advance width="229"/>
  <unicode hex="002C"/>
  <outline>
    <contour>
      <point x="129" y="92" type="curve"/>
      <point x="107" y="86"/>
      <point x="87" y="76"/>
      <point x="69" y="64" type="curve"/>
      <point x="69" y="56" type="line"/>
      <point x="89" y="42"/>
      <point x="100" y="26"/>
      <point x="100" y="7" type="curve"/>
      <point x="100" y="-23"/>
      <point x="81" y="-53"/>
      <point x="45" y="-82" type="curve"/>
      <point x="45" y="-89" type="line"/>
      <point x="74" y="-115" type="line"/>
      <point x="139" y="-68"/>
      <point x="171" y="-22"/>
      <point x="171" y="23" type="curve"/>
      <point x="171" y="51"/>
      <point x="156" y="74"/>
    </contour>
  </outline>
</glyph>
<glyph name="period" format="2">
  <advance width="229"/>
  <unicode hex="002E"/>
  <outline>
    <contour>
      <point x="116" y="93" type="curve" smooth="yes"/>
      <point x="85" y="93"/>
      <point x="66" y="73"/>
      <point x="66" y="43" type="curve" smooth="yes"/>
      <point x="66" y="13"/>
      <point x="83" y="-5"/>
      <point x="113" y="-5" type="curve" smooth="yes"/>
      <point x="143" y="-5"/>
      <point x="162" y="15"/>
      <point x="162" y="46" type="curve" smooth="yes"/>
      <point x="162" y="75"/>
      <point x="145" y="93"/>
    </contour>
  </outline>
</glyph>
<glyph name="slash" format="2">
  <advance width="287"/>
  <unicode hex="002F"/>
  <outline>
    <contour>
      <point x="283" y="678" type="line"/>
      <point x="225" y="678" type="line"/>
      <point x="20" y="-105" type="line"/>
      <point x="26" y="-113" type="line"/>
      <point x="85" y="-113" type="line"/>
      <point x="290" y="669" type="line"/>
    </contour>
  </outline>
</glyph>
<glyph name="zero" format="2">
  <advance width="527"/>
  <unicode hex="0030"/>
  <outline>
    <contour>
      <point x="270" y="505" type="curve" smooth="yes"/>
      <point x="127" y="505"/>
      <point x="46" y="410"/>
      <point x="46" y="242" type="curve" smooth="yes"/>
      <point x="46" y="83"/>
      <point x="123" y="-7"/>
      <point x="259" y="-7" type="curve" smooth="yes"/>
      <point x="402" y="-7"/>
      <point x="482" y="87"/>
      <point x="482" y="253" type="curve" smooth="yes"/>
      <point x="482" y="415"/>
      <point x="405" y="505"/>
    </contour>
    <contour>
      <point x="263" y="427" type="curve" smooth="yes"/>
      <point x="362" y="427"/>
      <point x="415" y="365"/>
      <point x="415" y="243" type="curve" smooth="yes"/>
      <point x="415" y="128"/>
      <point x="363" y="68"/>
      <point x="264" y="68" type="curve" smooth="yes"/>
      <point x="164" y="68"/>
      <point x="113" y="129"/>
      <point x="113" y="248" type="curve" smooth="yes"/>
      <point x="113" y="367"/>
      <point x="164" y="427"/>
    </contour>
  </outline>
</glyph>
<glyph name="one" format="2">
  <advance width="346"/>
  <unicode hex="0031"/>
  <outline>
    <contour>
      <point x="216" y="503" type="line"/>
      <point x="11" y="442" type="line"/>
      <point x="11" y="375" type="line"/>
      <point x="19" y="370" type="line"/>
      <point x="146" y="406" type="line"/>
      <point x="147" y="197" type="line"/>
      <point x="142" y="0" type="line"/>
      <point x="228" y="0" type="line"/>
      <point x="223" y="207" type="line"/>
      <point x="229" y="494" type="line"/>
    </contour>
  </outline>
</glyph>
<glyph name="two" format="2">
  <advance width="457"/>
  <unicode hex="0032"/>
  <outline>
    <contour>
      <point x="232" y="503" type="curve" smooth="yes"/>
      <point x="168" y="503"/>
      <point x="106" y="474"/>
      <point x="54" y="429" type="curve"/>
      <point x="68" y="363" type="line"/>
      <point x="78" y="363" type="line"/>
      <point x="117" y="405"/>
      <point x="167" y="430"/>
      <point x="214" y="430" type="curve" smooth="yes"/>
      <point x="262" y="430"/>
      <point x="288" y="404"/>
      <point x="288" y="370" type="curve" smooth="yes"/>
      <point x="288" y="329"/>
      <point x="253" y="279"/>
      <point x="185" y="205" type="curve" smooth="yes"/>
      <point x="46" y="55" type="line"/>
      <point x="46" y="2" type="line"/>
      <point x="51" y="-2" type="line"/>
      <point x="88" y="0" type="line"/>
      <point x="313" y="0" type="line"/>
      <point x="417" y="-4" type="line"/>
      <point x="428" y="67" type="line"/>
      <point x="422" y="73" type="line"/>
      <point x="337" y="66" type="line"/>
      <point x="158" y="66" type="line"/>
      <point x="156" y="70" type="line"/>
      <point x="254" y="182" type="line" smooth="yes"/>
      <point x="334" y="274"/>
      <point x="371" y="336"/>
      <point x="371" y="391" type="curve" smooth="yes"/>
      <point x="371" y="459"/>
      <point x="312" y="503"/>
    </contour>
  </outline>
</glyph>
<glyph name="three" format="2">
  <advance width="414"/>
  <unicode hex="0033"/>
  <outline>
    <contour>
      <point x="192" y="504" type="curve" smooth="yes"/>
      <point x="135" y="504"/>
      <point x="82" y="484"/>
      <point x="30" y="442" type="curve"/>
      <point x="43" y="375" type="line"/>
      <point x="52" y="375" type="line"/>
      <point x="95" y="413"/>
      <point x="133" y="434"/>
      <point x="176" y="434" type="curve" smooth="yes"/>
      <point x="227" y="434"/>
      <point x="261" y="405"/>
      <point x="261" y="358" type="curve" smooth="yes"/>
      <point x="261" y="293"/>
      <point x="196" y="248"/>
      <point x="143" y="248" type="curve" smooth="yes"/>
      <point x="99" y="247" type="line"/>
      <point x="97" y="188" type="line"/>
      <point x="102" y="182" type="line"/>
      <point x="162" y="182" type="line"/>
      <point x="243" y="179"/>
      <point x="287" y="143"/>
      <point x="287" y="82" type="curve" smooth="yes"/>
      <point x="287" y="13"/>
      <point x="229" y="-31"/>
      <point x="143" y="-31" type="curve" smooth="yes"/>
      <point x="108" y="-31"/>
      <point x="73" y="-24"/>
      <point x="39" y="-9" type="curve"/>
      <point x="33" y="-15" type="line"/>
      <point x="38" y="-88" type="line"/>
      <point x="68" y="-93"/>
      <point x="106" y="-97"/>
      <point x="138" y="-97" type="curve" smooth="yes"/>
      <point x="275" y="-97"/>
      <point x="368" y="-20"/>
      <point x="368" y="93" type="curve" smooth="yes"/>
      <point x="368" y="160"/>
      <point x="326" y="205"/>
      <point x="247" y="224" type="curve"/>
      <point x="247" y="228" type="line"/>
      <point x="317" y="264"/>
      <point x="347" y="323"/>
      <point x="347" y="376" type="curve" smooth="yes"/>
      <point x="347" y="452"/>
      <point x="285" y="504"/>
    </contour>
  </outline>
</glyph>
<glyph name="greater" format="2">
  <advance width="480"/>
  <unicode hex="003E"/>
  <outline>
    <contour>
      <point x="57" y="464" type="line"/>
      <point x="38" y="415" type="line"/>
      <point x="42" y="407" type="line"/>
      <point x="379" y="269" type="line"/>
      <point x="379" y="263" type="line"/>
      <point x="40" y="133" type="line"/>
      <point x="53" y="84" type="line"/>
      <point x="62" y="78" type="line"/>
      <point x="444" y="229" type="line"/>
      <point x="444" y="299" type="line"/>
      <point x="437" y="308" type="line"/>
    </contour>
  </outline>
</glyph>
<glyph name="question" format="2">
  <advance width="332"/>
  <unicode hex="003F"/>
  <outline>
    <contour>
      <point x="85" y="662" type="curve"/>
      <point x="75" y="657" type="line"/>
      <point x="59" y="609" type="line"/>
      <point x="65" y="601" type="line"/>
      <point x="199" y="593"/>
      <point x="261" y="555"/>
      <point x="261" y="491" type="curve" smooth="yes"/>
      <point x="261" y="454"/>
      <point x="239" y="422"/>
      <point x="200" y="399" type="curve" smooth="yes"/>
      <point x="105" y="343" type="line"/>
      <point x="100" y="333" type="line"/>
      <point x="108" y="218" type="line"/>
      <point x="115" y="211" type="line"/>
      <point x="175" y="218" type="line"/>
      <point x="169" y="313" type="line"/>
      <point x="171" y="317" type="line"/>
      <point x="253" y="370" type="line" smooth="yes"/>
      <point x="308" y="404"/>
      <point x="338" y="452"/>
      <point x="338" y="504" type="curve" smooth="yes"/>
      <point x="338" y="596"/>
      <point x="247" y="652"/>
    </contour>
    <contour>
      <point x="148" y="93" type="curve" smooth="yes"/>
      <point x="117" y="93"/>
      <point x="98" y="73"/>
      <point x="98" y="43" type="curve" smooth="yes"/>
      <point x="98" y="13"/>
      <point x="115" y="-5"/>
      <point x="145" y="-5" type="curve" smooth="yes"/>
      <point x="175" y="-5"/>
      <point x="194" y="15"/>
      <point x="194" y="46" type="curve" smooth="yes"/>
      <point x="194" y="75"/>
      <point x="177" y="93"/>
    </contour>
  </outline>
</glyph>
<glyph name="A" format="2">
  <advance width="580"/>
  <unicode hex="0041"/>
  <anchor x="290" y="0" name="bottom"/>
  <anchor x="559" y="0" name="ogonek"/>
  <anchor x="291" y="641" name="top"/>
  <outline>
    <contour>
      <point x="347" y="641" type="line"/>
      <point x="247" y="641" type="line"/>
      <point x="13" y="0" type="line"/>
      <point x="99" y="0" type="line"/>
      <point x="115" y="70" type="line"/>
      <point x="291" y="554" type="line"/>
      <point x="298" y="554" type="line"/>
      <point x="456" y="66" type="line"/>
      <point x="471" y="0" type="line"/>
      <point x="559" y="0" type="line"/>
    </contour>
    <contour>
      <point x="445" y="244" type="line"/>
      <point x="287" y="241" type="line"/>
      <point x="129" y="244" type="line"/>
      <point x="129" y="170" type="line"/>
      <point x="280" y="173" type="line"/>
      <point x="445" y="170" type="line"/>
    </contour>
  </outline>
</glyph>
<glyph name="C" format="2">
  <advance width="520"/>
  <unicode hex="0043"/>
  <anchor x="308" y="0" name="bottom"/>
  <anchor x="314" y="641" name="top"/>
  <outline>
    <contour>
      <point x="323" y="647" type="curve" smooth="yes"/>
      <point x="142" y="647"/>
      <point x="37" y="528"/>
      <point x="37" y="315" type="curve" smooth="yes"/>
      <point x="37" y="108"/>
      <point x="137" y="-7"/>
      <point x="310" y="-7" type="curve" smooth="yes"/>
      <point x="375" y="-7"/>
      <point x="430" y="9"/>
      <point x="486" y="39" type="curve"/>
      <point x="493" y="121" type="line"/>
      <point x="483" y="126" type="line"/>
      <point x="436" y="88"/>
      <point x="377" y="66"/>
      <point x="317" y="66" type="curve" smooth="yes"/>
      <point x="197" y="66"/>
      <point x="126" y="154"/>
      <point x="126" y="323" type="curve" smooth="yes"/>
      <point x="126" y="490"/>
      <point x="196" y="575"/>
      <point x="319" y="575" type="curve" smooth="yes"/>
      <point x="380" y="575"/>
      <point x="430" y="554"/>
      <point x="472" y="519" type="curve"/>
      <point x="481" y="521" type="line"/>
      <point x="498" y="600" type="line"/>
      <point x="450" y="630"/>
      <point x="391" y="647"/>
    </contour>
  </outline>
</glyph>
<glyph name="F" format="2">
  <advance width="436"/>
  <unicode hex="0046"/>
  <outline>
    <contour>
      <point x="179" y="641" type="line"/>
      <point x="91" y="641" type="line"/>
      <point x="97" y="193" type="line"/>
      <point x="91" y="0" type="line"/>
      <point x="178" y="0" type="line"/>
      <point x="174" y="200" type="line"/>
    </contour>
    <contour>
      <point x="387" y="352" type="line"/>
      <point x="282" y="349" type="line"/>
      <point x="153" y="351" type="line"/>
      <point x="153" y="280" type="line"/>
      <point x="274" y="281" type="line"/>
      <point x="386" y="278" type="line"/>
      <point x="393" y="344" type="line"/>
    </contour>
    <contour>
      <point x="437" y="641" type="line"/>
      <point x="149" y="641" type="line"/>
      <point x="146" y="575" type="line"/>
      <point x="149" y="568" type="line"/>
      <point x="288" y="570" type="line"/>
      <point x="436" y="564" type="line"/>
      <point x="443" y="633" type="line"/>
    </contour>
  </outline>
</glyph>
<glyph name="H" format="2">
  <advance width="685"/>
  <unicode hex="0048"/>
  <anchor x="343" y="0" name="bottom"/>
  <anchor x="506" y="0" name="bottomright"/>
  <anchor x="343" y="321" name="center"/>
  <anchor x="343" y="641" name="top"/>
  <anchor x="20" y="641" name="topleft"/>
  <outline>
    <contour>
      <point x="593" y="641" type="line"/>
      <point x="506" y="641" type="line"/>
      <point x="510" y="193" type="line"/>
      <point x="506" y="0" type="line"/>
      <point x="591" y="0" type="line"/>
      <point x="589" y="200" type="line"/>
    </contour>
    <contour>
      <point x="178" y="641" type="line"/>
      <point x="92" y="641" type="line"/>
      <point x="96" y="193" type="line"/>
      <point x="92" y="0" type="line"/>
      <point x="177" y="0" type="line"/>
      <point x="174" y="200" type="line"/>
    </contour>
    <contour>
      <point x="163" y="359" type="line"/>
      <point x="163" y="287" type="line"/>
      <point x="335" y="288" type="line"/>
      <point x="520" y="287" type="line"/>
      <point x="520" y="359" type="line"/>
      <point x="342" y="358" type="line"/>
    </contour>
  </outline>
</glyph>
<glyph name="I" format="2">
  <advance width="271"/>
  <unicode hex="0049"/>
  <anchor x="178" y="0" name="ogonek"/>
  <anchor x="135" y="641" name="top"/>
  <outline>
    <contour>
      <point x="179" y="641" type="line"/>
      <point x="91" y="641" type="line"/>
      <point x="97" y="193" type="line"/>
      <point x="91" y="0" type="line"/>
      <point x="178" y="0" type="line"/>
      <point x="174" y="200" type="line"/>
    </contour>
  </outline>
</glyph>
<glyph name="J" format="2">
  <advance width="314"/>
  <unicode hex="004A"/>
  <anchor x="135" y="641" name="top"/>
  <outline>
    <contour>
      <point x="223" y="641" type="line"/>
      <point x="136" y="641" type="line"/>
      <point x="141" y="204" type="line"/>
      <point x="141" y="117" type="line" smooth="yes"/>
      <point x="141" y="42"/>
      <point x="103" y="4"/>
      <point x="13" y="-44" type="curve"/>
      <point x="13" y="-54" type="line"/>
      <point x="46" y="-102" type="line"/>
      <point x="174" y="-42"/>
      <point x="220" y="17"/>
      <point x="220" y="118" type="curve"/>
      <point x="218" y="212" type="line"/>
    </contour>
    <contour>
      <point x="151" y="641" type="line"/>
      <point x="11" y="641" type="line"/>
      <point x="6" y="578" type="line"/>
      <point x="14" y="571" type="line"/>
      <point x="152" y="572" type="line"/>
    </contour>
  </outline>
</glyph>
<glyph name="K" format="2">
  <advance width="551"/>
  <unicode hex="004B"/>
  <anchor x="288" y="0" name="bottom"/>
  <anchor x="459" y="-4" name="bottomright"/>
  <anchor x="276" y="641" name="top"/>
  <outline>
    <contour>
      <point x="534" y="641" type="line"/>
      <point x="438" y="641" type="line"/>
      <point x="398" y="585" type="line"/>
      <point x="187" y="342" type="line"/>
      <point x="187" y="336" type="line"/>
      <point x="272" y="219"/>
      <point x="365" y="105"/>
      <point x="459" y="-4" type="curve"/>
      <point x="470" y="-9" type="line"/>
      <point x="497" y="-5"/>
      <point x="525" y="0"/>
      <point x="551" y="8" type="curve"/>
      <point x="552" y="18" type="line"/>
      <point x="456" y="119"/>
      <point x="361" y="230"/>
      <point x="277" y="340" type="curve"/>
    </contour>
    <contour>
      <point x="178" y="641" type="line"/>
      <point x="92" y="641" type="line"/>
      <point x="96" y="193" type="line"/>
      <point x="92" y="0" type="line"/>
      <point x="177" y="0" type="line"/>
      <point x="174" y="200" type="line"/>
    </contour>
  </outline>
</glyph>
<glyph name="L" format="2">
  <advance width="418"/>
  <unicode hex="004C"/>
  <anchor x="235" y="0" name="bottom"/>
  <anchor x="135" y="641" name="top"/>
  <outline>
    <contour>
      <point x="176" y="641" type="line"/>
      <point x="88" y="641" type="line"/>
      <point x="94" y="193" type="line"/>
      <point x="88" y="0" type="line"/>
      <point x="175" y="0" type="line"/>
      <point x="171" y="200" type="line"/>
    </contour>
    <contour>
      <point x="409" y="72" type="line"/>
      <point x="142" y="72" type="line"/>
      <point x="139" y="7" type="line"/>
      <point x="142" y="0" type="line"/>
      <point x="408" y="0" type="line"/>
      <point x="415" y="64" type="line"/>
    </contour>
  </outline>
</glyph>
<glyph name="M" format="2">
  <advance width="790"/>
  <unicode hex="004D"/>
  <anchor x="395" y="0" name="bottom"/>
  <anchor x="395" y="641" name="top"/>
  <outline>
    <contour>
      <point x="668" y="641" type="line"/>
      <point x="571" y="641" type="line"/>
      <point x="539" y="549" type="line"/>
      <point x="397" y="185" type="line"/>
      <point x="390" y="185" type="line"/>
      <point x="255" y="544" type="line"/>
      <point x="223" y="641" type="line"/>
      <point x="125" y="641" type="line"/>
      <point x="58" y="0" type="line"/>
      <point x="131" y="0" type="line"/>
      <point x="148" y="202" type="line"/>
      <point x="181" y="507" type="line"/>
      <point x="189" y="507" type="line"/>
      <point x="354" y="73" type="line"/>
      <point x="424" y="73" type="line"/>
      <point x="599" y="507" type="line"/>
      <point x="606" y="507" type="line"/>
      <point x="639" y="195" type="line"/>
      <point x="653" y="0" type="line"/>
      <point x="730" y="0" type="line"/>
    </contour>
  </outline>
</glyph>
<glyph name="N" format="2">
  <advance width="684"/>
  <unicode hex="004E"/>
  <anchor x="339" y="0" name="bottom"/>
  <anchor x="340" y="641" name="top"/>
  <outline>
    <contour>
      <point x="593" y="643" type="line"/>
      <point x="513" y="637" type="line"/>
      <point x="514" y="136" type="line"/>
      <point x="507" y="136" type="line"/>
      <point x="183" y="641" type="line"/>
      <point x="93" y="641" type="line"/>
      <point x="96" y="190" type="line"/>
      <point x="92" y="0" type="line"/>
      <point x="170" y="0" type="line"/>
      <point x="168" y="212" type="line"/>
      <point x="169" y="505" type="line"/>
      <point x="175" y="505" type="line"/>
      <point x="499" y="0" type="line"/>
      <point x="590" y="0" type="line"/>
      <point x="588" y="189" type="line"/>
    </contour>
  </outline>
</glyph>
<glyph name="O" format="2">
  <advance width="636"/>
  <unicode hex="004F"/>
  <anchor x="318" y="0" name="bottom"/>
  <anchor x="318" y="321" name="center"/>
  <anchor x="453" y="28" name="ogonek"/>
  <anchor x="319" y="641" name="top"/>
  <anchor x="20" y="641" name="topleft"/>
  <anchor x="616" y="641" name="topright"/>
  <outline>
    <contour>
      <point x="326" y="648" type="curve"/>
      <point x="141" y="648"/>
      <point x="37" y="529"/>
      <point x="37" y="315" type="curve" smooth="yes"/>
      <point x="37" y="109"/>
      <point x="135" y="-8"/>
      <point x="309" y="-8" type="curve" smooth="yes"/>
      <point x="495" y="-8"/>
      <point x="600" y="115"/>
      <point x="600" y="333" type="curve" smooth="yes"/>
      <point x="600" y="535"/>
      <point x="502" y="648"/>
    </contour>
    <contour>
      <point x="320" y="578" type="curve" smooth="yes"/>
      <point x="448" y="578"/>
      <point x="511" y="496"/>
      <point x="511" y="317" type="curve" smooth="yes"/>
      <point x="511" y="142"/>
      <point x="446" y="59"/>
      <point x="316" y="59" type="curve" smooth="yes"/>
      <point x="188" y="59"/>
      <point x="125" y="143"/>
      <point x="125" y="325" type="curve" smooth="yes"/>
      <point x="125" y="496"/>
      <point x="190" y="578"/>
    </contour>
  </outline>
</glyph>
<glyph name="P" format="2">
  <advance width="523"/>
  <unicode hex="0050"/>
  <outline>
    <contour>
      <point x="293" y="642" type="curve"/>
      <point x="92" y="641" type="line"/>
      <point x="138" y="568" type="line"/>
      <point x="272" y="572" type="line"/>
      <point x="357" y="569"/>
      <point x="402" y="530"/>
      <point x="402" y="446" type="curve" smooth="yes"/>
      <point x="402" y="358"/>
      <point x="359" y="305"/>
      <point x="279" y="292" type="curve"/>
      <point x="124" y="295" type="line"/>
      <point x="124" y="223" type="line"/>
      <point x="249" y="223" type="line"/>
      <point x="400" y="223"/>
      <point x="490" y="311"/>
      <point x="490" y="453" type="curve" smooth="yes"/>
      <point x="490" y="575"/>
      <point x="419" y="642"/>
    </contour>
    <contour>
      <point x="179" y="641" type="line"/>
      <point x="91" y="641" type="line"/>
      <point x="97" y="193" type="line"/>
      <point x="91" y="0" type="line"/>
      <point x="178" y="0" type="line"/>
      <point x="174" y="200" type="line"/>
    </contour>
  </outline>
</glyph>
<glyph name="Q" format="2">
  <advance width="640"/>
  <unicode hex="0051"/>
  <outline>
    <contour>
      <point x="327" y="648" type="curve"/>
      <point x="141" y="648"/>
      <point x="37" y="529"/>
      <point x="37" y="315" type="curve" smooth="yes"/>
      <point x="37" y="109"/>
      <point x="134" y="-8"/>
      <point x="312" y="-8" type="curve" smooth="yes"/>
      <point x="495" y="-8"/>
      <point x="600" y="117"/>
      <point x="600" y="330" type="curve" smooth="yes"/>
      <point x="600" y="536"/>
      <point x="502" y="648"/>
    </contour>
    <contour>
      <point x="382" y="30" type="curve"/>
      <point x="323" y="3" type="line"/>
      <point x="428" y="-90"/>
      <point x="555" y="-157"/>
      <point x="686" y="-193" type="curve"/>
      <point x="694" y="-190" type="line"/>
      <point x="710" y="-175"/>
      <point x="720" y="-161"/>
      <point x="733" y="-135" type="curve"/>
      <point x="730" y="-124" type="line"/>
      <point x="599" y="-100"/>
      <point x="483" y="-47"/>
    </contour>
    <contour>
      <point x="318" y="577" type="curve" smooth="yes"/>
      <point x="447" y="577"/>
      <point x="511" y="495"/>
      <point x="511" y="322" type="curve" smooth="yes"/>
      <point x="511" y="147"/>
      <point x="443" y="63"/>
      <point x="318" y="63" type="curve" smooth="yes"/>
      <point x="189" y="63"/>
      <point x="125" y="147"/>
      <point x="125" y="322" type="curve" smooth="yes"/>
      <point x="125" y="495"/>
      <point x="188" y="577"/>
    </contour>
  </outline>
</glyph>
<glyph name="S" format="2">
  <advance width="475"/>
  <unicode hex="0053"/>
  <guideline x="263" y="195" angle="319"/>
  <anchor x="230" y="0" name="bottom"/>
  <anchor x="249" y="641" name="top"/>
  <outline>
    <contour>
      <point x="269" y="647" type="curve" smooth="yes"/>
      <point x="143" y="647"/>
      <point x="57" y="567"/>
      <point x="57" y="466" type="curve" smooth="yes"/>
      <point x="57" y="280"/>
      <point x="348" y="298"/>
      <point x="348" y="166" type="curve" smooth="yes"/>
      <point x="348" y="113"/>
      <point x="302" y="62"/>
      <point x="224" y="62" type="curve" smooth="yes"/>
      <point x="176" y="62"/>
      <point x="113" y="82"/>
      <point x="63" y="131" type="curve"/>
      <point x="52" y="126" type="line"/>
      <point x="41" y="37" type="line"/>
      <point x="95" y="8"/>
      <point x="159" y="-7"/>
      <point x="215" y="-7" type="curve" smooth="yes"/>
      <point x="346" y="-7"/>
      <point x="433" y="77"/>
      <point x="433" y="178" type="curve" smooth="yes"/>
      <point x="433" y="364"/>
      <point x="141" y="351"/>
      <point x="141" y="477" type="curve" smooth="yes"/>
      <point x="141" y="525"/>
      <point x="183" y="577"/>
      <point x="258" y="577" type="curve" smooth="yes"/>
      <point x="301" y="577"/>
      <point x="347" y="560"/>
      <point x="386" y="529" type="curve"/>
      <point x="400" y="534" type="line"/>
      <point x="414" y="616" type="line"/>
      <point x="359" y="639"/>
      <point x="308" y="647"/>
    </contour>
  </outline>
</glyph>
<glyph name="T" format="2">
  <advance width="491"/>
  <unicode hex="0054"/>
  <anchor x="241" y="0" name="bottom"/>
  <anchor x="249" y="321" name="center"/>
  <anchor x="249" y="641" name="top"/>
  <outline>
    <contour>
      <point x="291" y="631" type="line"/>
      <point x="203" y="631" type="line"/>
      <point x="209" y="193" type="line"/>
      <point x="203" y="0" type="line"/>
      <point x="290" y="0" type="line"/>
      <point x="286" y="200" type="line"/>
    </contour>
    <contour>
      <point x="465" y="641" type="line"/>
      <point x="28" y="641" type="line"/>
      <point x="21" y="575" type="line"/>
      <point x="27" y="567" type="line"/>
      <point x="142" y="573" type="line"/>
      <point x="352" y="573" type="line"/>
      <point x="465" y="567" type="line"/>
      <point x="471" y="633" type="line"/>
    </contour>
  </outline>
</glyph>
<glyph name="U" format="2">
  <advance width="627"/>
  <unicode hex="0055"/>
  <anchor x="460" y="34" name="ogonek"/>
  <anchor x="316" y="641" name="top"/>
  <outline>
    <contour>
      <point x="555" y="641" type="line"/>
      <point x="469" y="641" type="line"/>
      <point x="473" y="235" type="line" smooth="yes"/>
      <point x="474" y="123"/>
      <point x="418" y="68"/>
      <point x="313" y="68" type="curve" smooth="yes"/>
      <point x="207" y="68"/>
      <point x="153" y="127"/>
      <point x="154" y="246" type="curve" smooth="yes"/>
      <point x="158" y="641" type="line"/>
      <point x="73" y="641" type="line"/>
      <point x="74" y="321" type="line"/>
      <point x="73" y="235" type="line" smooth="yes"/>
      <point x="70" y="80"/>
      <point x="154" y="-7"/>
      <point x="306" y="-7" type="curve" smooth="yes"/>
      <point x="465" y="-7"/>
      <point x="555" y="85"/>
      <point x="552" y="244" type="curve"/>
      <point x="553" y="315" type="line"/>
    </contour>
  </outline>
</glyph>
<glyph name="V" format="2">
  <advance width="566"/>
  <unicode hex="0056"/>
  <outline>
    <contour>
      <point x="560" y="641" type="line" smooth="yes"/>
      <point x="474" y="641" type="line"/>
      <point x="458" y="570" type="line"/>
      <point x="282" y="86" type="line"/>
      <point x="276" y="86" type="line"/>
      <point x="117" y="574" type="line"/>
      <point x="102" y="641" type="line"/>
      <point x="14" y="641" type="line"/>
      <point x="227" y="0" type="line"/>
      <point x="327" y="0" type="line"/>
    </contour>
  </outline>
</glyph>
<glyph name="W" format="2">
  <advance width="894"/>
  <unicode hex="0057"/>
  <anchor x="440" y="641" name="top"/>
  <outline>
    <contour>
      <point x="886" y="641" type="line"/>
      <point x="805" y="641" type="line"/>
      <point x="790" y="573" type="line"/>
      <point x="621" y="94" type="line"/>
      <point x="614" y="94" type="line"/>
      <point x="461" y="570" type="line"/>
      <point x="445" y="641" type="line"/>
      <point x="357" y="641" type="line"/>
      <point x="411" y="480" type="line"/>
      <point x="276" y="94" type="line"/>
      <point x="269" y="94" type="line"/>
      <point x="117" y="578" type="line"/>
      <point x="106" y="641" type="line"/>
      <point x="21" y="641" type="line"/>
      <point x="222" y="0" type="line"/>
      <point x="312" y="0" type="line"/>
      <point x="440" y="365" type="line"/>
      <point x="447" y="365" type="line"/>
      <point x="569" y="0" type="line"/>
      <point x="658" y="0" type="line"/>
    </contour>
  </outline>
</glyph>
<glyph name="X" format="2">
  <advance width="596"/>
  <unicode hex="0058"/>
  <outline>
    <contour>
      <point x="554" y="641" type="line"/>
      <point x="461" y="641" type="line"/>
      <point x="435" y="590" type="line"/>
      <point x="300" y="389" type="line"/>
      <point x="166" y="589" type="line"/>
      <point x="139" y="641" type="line"/>
      <point x="35" y="641" type="line"/>
      <point x="244" y="323" type="line"/>
      <point x="28" y="0" type="line"/>
      <point x="119" y="0" type="line"/>
      <point x="145" y="48" type="line"/>
      <point x="294" y="267" type="line"/>
      <point x="438" y="53" type="line"/>
      <point x="466" y="0" type="line"/>
      <point x="570" y="0" type="line"/>
      <point x="352" y="334" type="line"/>
    </contour>
  </outline>
</glyph>
<glyph name="Y" format="2">
  <advance width="531"/>
  <unicode hex="0059"/>
  <anchor x="256" y="181" name="center"/>
  <anchor x="260" y="641" name="top"/>
  <outline>
    <contour>
      <point x="519" y="641" type="line"/>
      <point x="429" y="641" type="line"/>
      <point x="414" y="602" type="line"/>
      <point x="263" y="321" type="line"/>
      <point x="256" y="321" type="line"/>
      <point x="119" y="604" type="line"/>
      <point x="106" y="641" type="line"/>
      <point x="14" y="641" type="line"/>
      <point x="241" y="179" type="line"/>
      <point x="269" y="179" type="line"/>
    </contour>
    <contour>
      <point x="299" y="273" type="line"/>
      <point x="216" y="273" type="line"/>
      <point x="218" y="186" type="line"/>
      <point x="214" y="0" type="line"/>
      <point x="299" y="0" type="line"/>
      <point x="296" y="186" type="line"/>
    </contour>
  </outline>
</glyph>
<glyph name="bracketleft" format="2">
  <advance width="289"/>
  <unicode hex="005B"/>
  <outline>
    <contour>
      <point x="278" y="647" type="line"/>
      <point x="96" y="637" type="line"/>
      <point x="100" y="259" type="line"/>
      <point x="96" y="-119" type="line"/>
      <point x="278" y="-129" type="line"/>
      <point x="283" y="-124" type="line"/>
      <point x="283" y="-83" type="line"/>
      <point x="166" y="-72" type="line"/>
      <point x="166" y="589" type="line"/>
      <point x="283" y="601" type="line"/>
      <point x="283" y="641" type="line"/>
    </contour>
  </outline>
</glyph>
<glyph name="backslash" format="2">
  <advance width="287"/>
  <unicode hex="005C"/>
  <outline>
    <contour>
      <point x="209" y="-113" type="line"/>
      <point x="268" y="-113" type="line"/>
      <point x="274" y="-105" type="line"/>
      <point x="69" y="678" type="line"/>
      <point x="11" y="678" type="line"/>
      <point x="4" y="669" type="line"/>
    </contour>
  </outline>
</glyph>
<glyph name="asciicircum" format="2">
  <advance width="426"/>
  <unicode hex="005E"/>
  <outline>
    <contour>
      <point x="255" y="492" type="line"/>
      <point x="185" y="492" type="line"/>
      <point x="176" y="487" type="line"/>
      <point x="20" y="131" type="line"/>
      <point x="69" y="112" type="line"/>
      <point x="77" y="117" type="line"/>
      <point x="215" y="429" type="line"/>
      <point x="221" y="429" type="line"/>
      <point x="351" y="115" type="line"/>
      <point x="400" y="127" type="line"/>
      <point x="406" y="135" type="line"/>
    </contour>
  </outline>
</glyph>
<glyph name="underscore" format="2">
  <advance width="449"/>
  <unicode hex="005F"/>
  <outline>
    <contour>
      <point x="458" y="-88" type="line"/>
      <point x="-10" y="-88" type="line"/>
      <point x="-15" y="-137" type="line"/>
      <point x="-9" y="-144" type="line"/>
      <point x="459" y="-144" type="line"/>
      <point x="464" y="-94" type="line"/>
    </contour>
  </outline>
</glyph>
<glyph name="a" format="2">
  <advance width="464"/>
  <unicode hex="0061"/>
  <anchor x="426" y="14" name="ogonek"/>
  <anchor x="224" y="459" name="top"/>
  <outline>
    <contour>
      <point x="233" y="467" type="curve" smooth="yes"/>
      <point x="174" y="467"/>
      <point x="115" y="446"/>
      <point x="59" y="406" type="curve"/>
      <point x="70" y="344" type="line"/>
      <point x="78" y="340" type="line"/>
      <point x="130" y="385"/>
      <point x="174" y="406"/>
      <point x="220" y="406" type="curve" smooth="yes"/>
      <point x="268" y="406"/>
      <point x="297" y="379"/>
      <point x="297" y="327" type="curve"/>
      <point x="296" y="265" type="line"/>
      <point x="135" y="227" type="line" smooth="yes"/>
      <point x="75" y="213"/>
      <point x="41" y="181"/>
      <point x="41" y="119" type="curve" smooth="yes"/>
      <point x="41" y="42"/>
      <point x="94" y="-7"/>
      <point x="186" y="-7" type="curve"/>
      <point x="223" y="8"/>
      <point x="257" y="34"/>
      <point x="290" y="68" type="curve"/>
      <point x="297" y="68" type="line"/>
      <point x="300" y="25"/>
      <point x="326" y="-2"/>
      <point x="368" y="-6" type="curve"/>
      <point x="388" y="-4"/>
      <point x="409" y="4"/>
      <point x="426" y="14" type="curve"/>
      <point x="434" y="62" type="line"/>
      <point x="426" y="69" type="line"/>
      <point x="410" y="65"/>
      <point x="401" y="64"/>
      <point x="393" y="64" type="curve" smooth="yes"/>
      <point x="370" y="64"/>
      <point x="362" y="73"/>
      <point x="362" y="101" type="curve" smooth="yes"/>
      <point x="362" y="137"/>
      <point x="375" y="310"/>
      <point x="375" y="346" type="curve" smooth="yes"/>
      <point x="375" y="422"/>
      <point x="319" y="467"/>
    </contour>
    <contour>
      <point x="295" y="211" type="line"/>
      <point x="292" y="132" type="line"/>
      <point x="256" y="89"/>
      <point x="221" y="63"/>
      <point x="182" y="63" type="curve" smooth="yes"/>
      <point x="143" y="63"/>
      <point x="117" y="88"/>
      <point x="117" y="131" type="curve" smooth="yes"/>
      <point x="117" y="159"/>
      <point x="128" y="170"/>
      <point x="152" y="176" type="curve" smooth="yes"/>
    </contour>
  </outline>
</glyph>
<glyph name="b" format="2">
  <advance width="515"/>
  <unicode hex="0062"/>
  <anchor x="258" y="0" name="bottom"/>
  <anchor x="258" y="459" name="top"/>
  <outline>
    <contour>
      <point x="295" y="464" type="curve"/>
      <point x="247" y="449"/>
      <point x="216" y="432"/>
      <point x="171" y="396" type="curve"/>
      <point x="155" y="396" type="line"/>
      <point x="155" y="316" type="line"/>
      <point x="205" y="371"/>
      <point x="245" y="394"/>
      <point x="287" y="394" type="curve" smooth="yes"/>
      <point x="354" y="394"/>
      <point x="391" y="335"/>
      <point x="393" y="234" type="curve" smooth="yes"/>
      <point x="395" y="111"/>
      <point x="341" y="53"/>
      <point x="260" y="53" type="curve" smooth="yes"/>
      <point x="210" y="53"/>
      <point x="158" y="81"/>
      <point x="101" y="141" type="curve"/>
      <point x="97" y="48" type="line"/>
      <point x="145" y="14"/>
      <point x="199" y="-8"/>
      <point x="253" y="-8" type="curve" smooth="yes"/>
      <point x="390" y="-8"/>
      <point x="473" y="82"/>
      <point x="473" y="244" type="curve" smooth="yes"/>
      <point x="473" y="381"/>
      <point x="413" y="464"/>
    </contour>
    <contour>
      <point x="168" y="702" type="line"/>
      <point x="83" y="695" type="line"/>
      <point x="89" y="192" type="line"/>
      <point x="82" y="-4" type="line"/>
      <point x="97" y="-12" type="line"/>
      <point x="167" y="20" type="line"/>
      <point x="162" y="202" type="line"/>
    </contour>
  </outline>
</glyph>
<glyph name="c" format="2">
  <advance width="385"/>
  <unicode hex="0063"/>
  <anchor x="235" y="0" name="bottom"/>
  <anchor x="237" y="459" name="top"/>
  <outline>
    <contour>
      <point x="246" y="467" type="curve" smooth="yes"/>
      <point x="118" y="467"/>
      <point x="41" y="374"/>
      <point x="41" y="226" type="curve" smooth="yes"/>
      <point x="41" y="81"/>
      <point x="115" y="-8"/>
      <point x="238" y="-8" type="curve" smooth="yes"/>
      <point x="279" y="-8"/>
      <point x="323" y="2"/>
      <point x="359" y="16" type="curve"/>
      <point x="368" y="88" type="line"/>
      <point x="359" y="93" type="line"/>
      <point x="325" y="73"/>
      <point x="284" y="60"/>
      <point x="248" y="60" type="curve" smooth="yes"/>
      <point x="168" y="60"/>
      <point x="121" y="125"/>
      <point x="121" y="231" type="curve" smooth="yes"/>
      <point x="121" y="336"/>
      <point x="167" y="397"/>
      <point x="243" y="397" type="curve" smooth="yes"/>
      <point x="279" y="397"/>
      <point x="315" y="383"/>
      <point x="345" y="364" type="curve"/>
      <point x="354" y="367" type="line"/>
      <point x="369" y="441" type="line"/>
      <point x="336" y="457"/>
      <point x="288" y="467"/>
    </contour>
  </outline>
</glyph>
<glyph name="e" format="2">
  <advance width="462"/>
  <unicode hex="0065"/>
  <anchor x="250" y="0" name="bottom"/>
  <anchor x="394" y="25" name="ogonek"/>
  <anchor x="239" y="459" name="top"/>
  <outline>
    <contour>
      <point x="254" y="-8" type="curve" smooth="yes"/>
      <point x="301" y="-8"/>
      <point x="348" y="3"/>
      <point x="394" y="25" type="curve"/>
      <point x="407" y="98" type="line"/>
      <point x="398" y="104" type="line"/>
      <point x="359" y="76"/>
      <point x="311" y="60"/>
      <point x="264" y="60" type="curve" smooth="yes"/>
      <point x="171" y="60"/>
      <point x="120" y="120"/>
      <point x="120" y="231" type="curve" smooth="yes"/>
      <point x="120" y="340"/>
      <point x="169" y="407"/>
      <point x="250" y="407" type="curve" smooth="yes"/>
      <point x="309" y="407"/>
      <point x="341" y="371"/>
      <point x="341" y="305" type="curve"/>
      <point x="339" y="291" type="line"/>
      <point x="107" y="287" type="line"/>
      <point x="105" y="230" type="line"/>
      <point x="405" y="231" type="line"/>
      <point x="415" y="241" type="line"/>
      <point x="437" y="382"/>
      <point x="375" y="467"/>
      <point x="250" y="467" type="curve" smooth="yes"/>
      <point x="122" y="467"/>
      <point x="41" y="374"/>
      <point x="41" y="227" type="curve" smooth="yes"/>
      <point x="41" y="81"/>
      <point x="121" y="-8"/>
    </contour>
  </outline>
</glyph>
<glyph name="g" format="2">
  <advance width="488"/>
  <unicode hex="0067"/>
  <anchor x="246" y="449" name="top"/>
  <outline>
    <contour>
      <point x="129" y="182" type="line"/>
      <point x="129" y="171" type="line"/>
      <point x="103" y="154"/>
      <point x="82" y="133"/>
      <point x="67" y="110" type="curve"/>
      <point x="66" y="-30"/>
      <point x="366" y="49"/>
      <point x="366" y="-56" type="curve" smooth="yes"/>
      <point x="366" y="-101"/>
      <point x="310" y="-134"/>
      <point x="235" y="-134" type="curve" smooth="yes"/>
      <point x="165" y="-134"/>
      <point x="129" y="-105"/>
      <point x="129" y="-69" type="curve" smooth="yes"/>
      <point x="129" y="-38"/>
      <point x="158" y="-11"/>
      <point x="207" y="19" type="curve"/>
      <point x="141" y="35" type="line"/>
      <point x="141" y="24" type="line"/>
      <point x="106" y="2"/>
      <point x="75" y="-23"/>
      <point x="54" y="-60" type="curve"/>
      <point x="54" y="-136"/>
      <point x="113" y="-193"/>
      <point x="225" y="-193" type="curve" smooth="yes"/>
      <point x="346" y="-193"/>
      <point x="441" y="-126"/>
      <point x="441" y="-40" type="curve" smooth="yes"/>
      <point x="441" y="108"/>
      <point x="147" y="47"/>
      <point x="147" y="120" type="curve" smooth="yes"/>
      <point x="147" y="134"/>
      <point x="155" y="144"/>
      <point x="180" y="163" type="curve"/>
    </contour>
    <contour>
      <point x="243" y="464" type="curve" smooth="yes"/>
      <point x="135" y="464"/>
      <point x="63" y="405"/>
      <point x="63" y="303" type="curve" smooth="yes"/>
      <point x="63" y="209"/>
      <point x="124" y="150"/>
      <point x="234" y="150" type="curve" smooth="yes"/>
      <point x="347" y="150"/>
      <point x="416" y="213"/>
      <point x="416" y="310" type="curve" smooth="yes"/>
      <point x="416" y="403"/>
      <point x="353" y="464"/>
    </contour>
    <contour>
      <point x="242" y="407" type="curve" smooth="yes"/>
      <point x="307" y="407"/>
      <point x="340" y="372"/>
      <point x="340" y="311" type="curve" smooth="yes"/>
      <point x="340" y="246"/>
      <point x="303" y="207"/>
      <point x="238" y="207" type="curve" smooth="yes"/>
      <point x="174" y="207"/>
      <point x="139" y="245"/>
      <point x="139" y="307" type="curve" smooth="yes"/>
      <point x="139" y="372"/>
      <point x="177" y="407"/>
    </contour>
    <contour>
      <point x="480" y="481" type="line"/>
      <point x="429" y="466"/>
      <point x="377" y="455"/>
      <point x="325" y="446" type="curve"/>
      <point x="390" y="379" type="line"/>
      <point x="398" y="396" type="line"/>
      <point x="429" y="402"/>
      <point x="460" y="408"/>
      <point x="488" y="417" type="curve"/>
      <point x="488" y="475" type="line"/>
    </contour>
  </outline>
</glyph>
<glyph name="h" format="2">
  <advance width="521"/>
  <unicode hex="0068"/>
  <anchor x="261" y="0" name="bottom"/>
  <anchor x="261" y="230" name="center"/>
  <anchor x="123" y="647" name="top"/>
  <anchor x="229" y="459" name="topright"/>
  <outline>
    <contour>
      <point x="294" y="465" type="curve"/>
      <point x="255" y="454"/>
      <point x="211" y="430"/>
      <point x="170" y="395" type="curve"/>
      <point x="154" y="395" type="line"/>
      <point x="154" y="316" type="line"/>
      <point x="200" y="365"/>
      <point x="248" y="394"/>
      <point x="296" y="394" type="curve" smooth="yes"/>
      <point x="347" y="394"/>
      <point x="372" y="361"/>
      <point x="371" y="310" type="curve" smooth="yes"/>
      <point x="365" y="0" type="line"/>
      <point x="451" y="0" type="line"/>
      <point x="447" y="200" type="line"/>
      <point x="449" y="330" type="line"/>
      <point x="450" y="416"/>
      <point x="397" y="465"/>
    </contour>
    <contour>
      <point x="168" y="702" type="line"/>
      <point x="83" y="695" type="line"/>
      <point x="88" y="195" type="line"/>
      <point x="82" y="0" type="line"/>
      <point x="167" y="0" type="line"/>
      <point x="161" y="202" type="line"/>
    </contour>
  </outline>
</glyph>
<glyph name="k" format="2">
  <advance width="460"/>
  <unicode hex="006B"/>
  <anchor x="253" y="0" name="bottom"/>
  <anchor x="123" y="647" name="top"/>
  <anchor x="229" y="459" name="topright"/>
  <outline>
    <contour>
      <point x="440" y="459" type="line"/>
      <point x="345" y="459" type="line"/>
      <point x="319" y="417" type="line"/>
      <point x="179" y="248" type="line"/>
      <point x="179" y="241" type="line"/>
      <point x="236" y="156"/>
      <point x="299" y="74"/>
      <point x="365" y="-5" type="curve"/>
      <point x="375" y="-9" type="line"/>
      <point x="401" y="-5"/>
      <point x="427" y="-2"/>
      <point x="452" y="5" type="curve"/>
      <point x="452" y="15" type="line"/>
      <point x="388" y="90"/>
      <point x="322" y="169"/>
      <point x="263" y="249" type="curve"/>
    </contour>
    <contour>
      <point x="168" y="702" type="line"/>
      <point x="83" y="695" type="line"/>
      <point x="88" y="195" type="line"/>
      <point x="82" y="0" type="line"/>
      <point x="167" y="0" type="line"/>
      <point x="161" y="202" type="line"/>
    </contour>
  </outline>
</glyph>
<glyph name="l" format="2">
  <advance width="249"/>
  <unicode hex="006C"/>
  <anchor x="124" y="0" name="bottom"/>
  <anchor x="124" y="680" name="top"/>
  <anchor x="229" y="459" name="topright"/>
  <outline>
    <contour>
      <point x="168" y="702" type="line"/>
      <point x="83" y="695" type="line"/>
      <point x="88" y="195" type="line"/>
      <point x="82" y="0" type="line"/>
      <point x="167" y="0" type="line"/>
      <point x="161" y="202" type="line"/>
    </contour>
  </outline>
</glyph>
<glyph name="m" format="2">
  <advance width="801"/>
  <unicode hex="006D"/>
  <anchor x="400" y="0" name="bottom"/>
  <anchor x="400" y="459" name="top"/>
  <outline>
    <contour>
      <point x="574" y="465" type="curve"/>
      <point x="532" y="453"/>
      <point x="484" y="428"/>
      <point x="441" y="390" type="curve"/>
      <point x="425" y="390" type="line"/>
      <point x="434" y="316" type="line"/>
      <point x="480" y="365"/>
      <point x="528" y="394"/>
      <point x="576" y="394" type="curve" smooth="yes"/>
      <point x="627" y="394"/>
      <point x="652" y="361"/>
      <point x="651" y="310" type="curve" smooth="yes"/>
      <point x="645" y="0" type="line"/>
      <point x="731" y="0" type="line"/>
      <point x="727" y="200" type="line"/>
      <point x="729" y="330" type="line" smooth="yes"/>
      <point x="730" y="416"/>
      <point x="677" y="465"/>
    </contour>
    <contour>
      <point x="160" y="461" type="line"/>
      <point x="79" y="453" type="line"/>
      <point x="83" y="194" type="line"/>
      <point x="78" y="0" type="line"/>
      <point x="163" y="0" type="line"/>
      <point x="158" y="201" type="line"/>
    </contour>
    <contour>
      <point x="290" y="465" type="curve"/>
      <point x="251" y="454"/>
      <point x="207" y="430"/>
      <point x="166" y="395" type="curve"/>
      <point x="150" y="395" type="line"/>
      <point x="150" y="316" type="line"/>
      <point x="196" y="365"/>
      <point x="244" y="394"/>
      <point x="292" y="394" type="curve" smooth="yes"/>
      <point x="343" y="394"/>
      <point x="368" y="361"/>
      <point x="367" y="310" type="curve" smooth="yes"/>
      <point x="361" y="0" type="line"/>
      <point x="447" y="0" type="line"/>
      <point x="443" y="200" type="line"/>
      <point x="445" y="330" type="line" smooth="yes"/>
      <point x="446" y="416"/>
      <point x="393" y="465"/>
    </contour>
  </outline>
</glyph>
<glyph name="n" format="2">
  <advance width="517"/>
  <unicode hex="006E"/>
  <anchor x="261" y="0" name="bottom"/>
  <anchor x="274" y="459" name="top"/>
  <outline>
    <contour>
      <point x="290" y="465" type="curve"/>
      <point x="251" y="454"/>
      <point x="207" y="430"/>
      <point x="166" y="395" type="curve"/>
      <point x="150" y="395" type="line"/>
      <point x="150" y="316" type="line"/>
      <point x="196" y="365"/>
      <point x="244" y="394"/>
      <point x="292" y="394" type="curve" smooth="yes"/>
      <point x="343" y="394"/>
      <point x="368" y="361"/>
      <point x="367" y="310" type="curve" smooth="yes"/>
      <point x="361" y="0" type="line"/>
      <point x="447" y="0" type="line"/>
      <point x="443" y="200" type="line"/>
      <point x="445" y="330" type="line"/>
      <point x="446" y="416"/>
      <point x="393" y="465"/>
    </contour>
    <contour>
      <point x="160" y="461" type="line"/>
      <point x="79" y="453" type="line"/>
      <point x="83" y="194" type="line"/>
      <point x="78" y="0" type="line"/>
      <point x="163" y="0" type="line"/>
      <point x="158" y="201" type="line"/>
    </contour>
  </outline>
</glyph>
<glyph name="o" format="2">
  <advance width="491"/>
  <unicode hex="006F"/>
  <anchor x="246" y="0" name="bottom"/>
  <anchor x="246" y="230" name="center"/>
  <anchor x="360" y="32" name="ogonek"/>
  <anchor x="246" y="459" name="top"/>
  <anchor x="471" y="459" name="topright"/>
  <outline>
    <contour>
      <point x="251" y="467" type="curve" smooth="yes"/>
      <point x="117" y="467"/>
      <point x="41" y="378"/>
      <point x="41" y="223" type="curve" smooth="yes"/>
      <point x="41" y="76"/>
      <point x="113" y="-8"/>
      <point x="239" y="-8" type="curve" smooth="yes"/>
      <point x="373" y="-8"/>
      <point x="449" y="81"/>
      <point x="449" y="236" type="curve" smooth="yes"/>
      <point x="449" y="383"/>
      <point x="377" y="467"/>
    </contour>
    <contour>
      <point x="246" y="407" type="curve" smooth="yes"/>
      <point x="326" y="407"/>
      <point x="369" y="343"/>
      <point x="369" y="216" type="curve" smooth="yes"/>
      <point x="369" y="106"/>
      <point x="326" y="52"/>
      <point x="244" y="52" type="curve" smooth="yes"/>
      <point x="164" y="52"/>
      <point x="121" y="114"/>
      <point x="121" y="243" type="curve" smooth="yes"/>
      <point x="121" y="350"/>
      <point x="164" y="407"/>
    </contour>
  </outline>
</glyph>
<glyph name="p" format="2">
  <advance width="510"/>
  <unicode hex="0070"/>
  <anchor x="255" y="0" name="bottom"/>
  <anchor x="255" y="459" name="top"/>
  <outline>
    <contour>
      <point x="290" y="464" type="curve"/>
      <point x="243" y="450"/>
      <point x="212" y="433"/>
      <point x="166" y="396" type="curve"/>
      <point x="150" y="396" type="line"/>
      <point x="150" y="316" type="line"/>
      <point x="199" y="370"/>
      <point x="239" y="394"/>
      <point x="282" y="394" type="curve" smooth="yes"/>
      <point x="348" y="394"/>
      <point x="386" y="337"/>
      <point x="388" y="234" type="curve" smooth="yes"/>
      <point x="390" y="119"/>
      <point x="342" y="53"/>
      <point x="255" y="53" type="curve" smooth="yes"/>
      <point x="205" y="53"/>
      <point x="154" y="75"/>
      <point x="96" y="121" type="curve"/>
      <point x="92" y="18" type="line"/>
      <point x="142" y="2"/>
      <point x="198" y="-8"/>
      <point x="244" y="-8" type="curve" smooth="yes"/>
      <point x="387" y="-8"/>
      <point x="468" y="83"/>
      <point x="468" y="243" type="curve" smooth="yes"/>
      <point x="468" y="385"/>
      <point x="405" y="464"/>
    </contour>
    <contour>
      <point x="160" y="461" type="line"/>
      <point x="78" y="453" type="line"/>
      <point x="84" y="194" type="line"/>
      <point x="78" y="-185" type="line"/>
      <point x="162" y="-185" type="line"/>
      <point x="157" y="201" type="line"/>
    </contour>
  </outline>
</glyph>
<glyph name="q" format="2">
  <advance width="511"/>
  <unicode hex="0071"/>
  <outline>
    <contour>
      <point x="383" y="449" type="line"/>
      <point x="344" y="460"/>
      <point x="303" y="467"/>
      <point x="263" y="467" type="curve" smooth="yes"/>
      <point x="125" y="467"/>
      <point x="41" y="383"/>
      <point x="41" y="226" type="curve" smooth="yes"/>
      <point x="41" y="82"/>
      <point x="111" y="-5"/>
      <point x="244" y="-5" type="curve"/>
      <point x="285" y="12"/>
      <point x="309" y="26"/>
      <point x="343" y="53" type="curve"/>
      <point x="352" y="53" type="line"/>
      <point x="352" y="34" type="line"/>
      <point x="348" y="-185" type="line"/>
      <point x="432" y="-185" type="line"/>
      <point x="426" y="201" type="line"/>
      <point x="433" y="460" type="line"/>
      <point x="425" y="465" type="line"/>
    </contour>
    <contour>
      <point x="253" y="406" type="curve" smooth="yes"/>
      <point x="285" y="406"/>
      <point x="315" y="397"/>
      <point x="350" y="378" type="curve"/>
      <point x="353" y="193" type="line"/>
      <point x="352" y="125" type="line"/>
      <point x="308" y="80"/>
      <point x="274" y="67"/>
      <point x="240" y="67" type="curve" smooth="yes"/>
      <point x="167" y="67"/>
      <point x="123" y="128"/>
      <point x="121" y="233" type="curve" smooth="yes"/>
      <point x="119" y="351"/>
      <point x="173" y="406"/>
    </contour>
  </outline>
</glyph>
<glyph name="r" format="2">
  <advance width="326"/>
  <unicode hex="0072"/>
  <anchor x="121" y="0" name="bottom"/>
  <anchor x="196" y="459" name="top"/>
  <outline>
    <contour>
      <point x="160" y="461" type="line"/>
      <point x="79" y="453" type="line"/>
      <point x="84" y="194" type="line"/>
      <point x="78" y="0" type="line"/>
      <point x="163" y="0" type="line"/>
      <point x="157" y="201" type="line"/>
    </contour>
    <contour>
      <point x="293" y="460" type="curve" smooth="yes"/>
      <point x="255" y="460"/>
      <point x="206" y="440"/>
      <point x="165" y="368" type="curve"/>
      <point x="151" y="368" type="line"/>
      <point x="151" y="252" type="line"/>
      <point x="189" y="342"/>
      <point x="226" y="377"/>
      <point x="272" y="377" type="curve" smooth="yes"/>
      <point x="280" y="377"/>
      <point x="295" y="376"/>
      <point x="309" y="372" type="curve"/>
      <point x="319" y="375" type="line"/>
      <point x="319" y="458" type="line"/>
      <point x="312" y="459"/>
      <point x="302" y="460"/>
    </contour>
  </outline>
</glyph>
<glyph name="s" format="2">
  <advance width="371"/>
  <unicode hex="0073"/>
  <anchor x="175" y="0" name="bottom"/>
  <anchor x="185" y="459" name="top"/>
  <outline>
    <contour>
      <point x="206" y="466" type="curve" smooth="yes"/>
      <point x="105" y="466"/>
      <point x="46" y="409"/>
      <point x="46" y="332" type="curve" smooth="yes"/>
      <point x="46" y="189"/>
      <point x="253" y="208"/>
      <point x="253" y="118" type="curve" smooth="yes"/>
      <point x="253" y="85"/>
      <point x="224" y="52"/>
      <point x="174" y="52" type="curve" smooth="yes"/>
      <point x="137" y="52"/>
      <point x="89" y="70"/>
      <point x="51" y="104" type="curve"/>
      <point x="41" y="98" type="line"/>
      <point x="31" y="24" type="line"/>
      <point x="74" y="3"/>
      <point x="122" y="-8"/>
      <point x="166" y="-8" type="curve" smooth="yes"/>
      <point x="274" y="-8"/>
      <point x="331" y="60"/>
      <point x="331" y="133" type="curve" smooth="yes"/>
      <point x="331" y="272"/>
      <point x="124" y="253"/>
      <point x="124" y="343" type="curve" smooth="yes"/>
      <point x="124" y="375"/>
      <point x="151" y="405"/>
      <point x="196" y="405" type="curve" smooth="yes"/>
      <point x="228" y="405"/>
      <point x="260" y="394"/>
      <point x="294" y="371" type="curve"/>
      <point x="306" y="374" type="line"/>
      <point x="318" y="444" type="line"/>
      <point x="282" y="459"/>
      <point x="242" y="466"/>
    </contour>
  </outline>
</glyph>
<glyph name="t" format="2">
  <advance width="321"/>
  <unicode hex="0074"/>
  <anchor x="202" y="0" name="bottom"/>
  <anchor x="161" y="230" name="center"/>
  <anchor x="136" y="517" name="top"/>
  <anchor x="301" y="459" name="topright"/>
  <outline>
    <contour>
      <point x="197" y="-6" type="curve"/>
      <point x="232" y="-3"/>
      <point x="261" y="6"/>
      <point x="299" y="23" type="curve"/>
      <point x="307" y="79" type="line"/>
      <point x="298" y="85" type="line"/>
      <point x="269" y="70"/>
      <point x="247" y="65"/>
      <point x="226" y="65" type="curve" smooth="yes"/>
      <point x="183" y="65"/>
      <point x="163" y="82"/>
      <point x="164" y="135" type="curve" smooth="yes"/>
      <point x="172" y="553" type="line"/>
      <point x="164" y="560" type="line"/>
      <point x="90" y="528" type="line"/>
      <point x="92" y="194" type="line"/>
      <point x="88" y="127" type="line"/>
      <point x="88" y="48"/>
      <point x="119" y="10"/>
    </contour>
    <contour>
      <point x="28" y="401" type="line"/>
      <point x="303" y="401" type="line"/>
      <point x="308" y="451" type="line"/>
      <point x="304" y="457" type="line"/>
      <point x="29" y="457" type="line"/>
      <point x="24" y="407" type="line"/>
    </contour>
  </outline>
</glyph>
<glyph name="v" format="2">
  <advance width="427"/>
  <unicode hex="0076"/>
  <outline>
    <contour>
      <point x="99" y="462" type="line"/>
      <point x="20" y="457" type="line"/>
      <point x="161" y="0" type="line"/>
      <point x="252" y="0" type="line"/>
      <point x="419" y="459" type="line"/>
      <point x="343" y="459" type="line"/>
      <point x="327" y="395" type="line"/>
      <point x="214" y="84" type="line"/>
      <point x="208" y="84" type="line"/>
      <point x="112" y="399" type="line"/>
    </contour>
  </outline>
</glyph>
<glyph name="w" format="2">
  <advance width="678"/>
  <unicode hex="0077"/>
  <anchor x="343" y="459" name="top"/>
  <outline>
    <contour>
      <point x="98" y="462" type="line"/>
      <point x="20" y="457" type="line"/>
      <point x="147" y="0" type="line"/>
      <point x="231" y="0" type="line"/>
      <point x="339" y="349" type="line"/>
      <point x="346" y="349" type="line"/>
      <point x="439" y="0" type="line"/>
      <point x="520" y="0" type="line"/>
      <point x="670" y="459" type="line"/>
      <point x="596" y="459" type="line"/>
      <point x="581" y="397" type="line"/>
      <point x="487" y="91" type="line"/>
      <point x="481" y="91" type="line"/>
      <point x="400" y="401" type="line"/>
      <point x="389" y="459" type="line"/>
      <point x="306" y="459" type="line"/>
      <point x="290" y="397" type="line"/>
      <point x="196" y="91" type="line"/>
      <point x="190" y="91" type="line"/>
      <point x="109" y="401" type="line"/>
    </contour>
  </outline>
</glyph>
<glyph name="x" format="2">
  <advance width="438"/>
  <unicode hex="0078"/>
  <outline>
    <contour>
      <point x="114" y="462" type="line"/>
      <point x="23" y="456" type="line"/>
      <point x="168" y="233" type="line"/>
      <point x="23" y="0" type="line"/>
      <point x="101" y="0" type="line"/>
      <point x="121" y="40" type="line"/>
      <point x="214" y="185" type="line"/>
      <point x="309" y="44" type="line"/>
      <point x="331" y="-4" type="line"/>
      <point x="421" y="4" type="line"/>
      <point x="269" y="234" type="line"/>
      <point x="410" y="459" type="line"/>
      <point x="332" y="459" type="line"/>
      <point x="309" y="417" type="line"/>
      <point x="225" y="282" type="line"/>
      <point x="133" y="417" type="line"/>
    </contour>
  </outline>
</glyph>
<glyph name="y" format="2">
  <advance width="429"/>
  <unicode hex="0079"/>
  <anchor x="218" y="459" name="top"/>
  <outline>
    <contour>
      <point x="88" y="462" type="line"/>
      <point x="8" y="457" type="line"/>
      <point x="176" y="0" type="line"/>
      <point x="128" y="-87"/>
      <point x="80" y="-113"/>
      <point x="-15" y="-131" type="curve"/>
      <point x="-17" y="-141" type="line"/>
      <point x="-8" y="-159"/>
      <point x="3" y="-176"/>
      <point x="18" y="-191" type="curve"/>
      <point x="26" y="-191" type="line"/>
      <point x="154" y="-160"/>
      <point x="207" y="-116"/>
      <point x="256" y="18" type="curve" smooth="yes"/>
      <point x="419" y="459" type="line"/>
      <point x="344" y="459" type="line"/>
      <point x="328" y="394" type="line"/>
      <point x="218" y="91" type="line"/>
      <point x="211" y="91" type="line"/>
      <point x="103" y="401" type="line"/>
    </contour>
  </outline>
</glyph>
<glyph name="z" format="2">
  <advance width="413"/>
  <unicode hex="007A"/>
  <anchor x="207" y="0" name="bottom"/>
  <anchor x="207" y="459" name="top"/>
  <outline>
    <contour>
      <point x="46" y="461" type="line"/>
      <point x="39" y="399" type="line"/>
      <point x="45" y="392" type="line"/>
      <point x="119" y="400" type="line"/>
      <point x="286" y="400" type="line"/>
      <point x="32" y="49" type="line"/>
      <point x="33" y="-2" type="line"/>
      <point x="81" y="0" type="line"/>
      <point x="278" y="0" type="line"/>
      <point x="374" y="-2" type="line"/>
      <point x="381" y="60" type="line"/>
      <point x="376" y="67" type="line"/>
      <point x="299" y="59" type="line"/>
      <point x="123" y="59" type="line"/>
      <point x="376" y="408" type="line"/>
      <point x="374" y="460" type="line"/>
      <point x="334" y="459" type="line"/>
      <point x="131" y="459" type="line"/>
    </contour>
  </outline>
</glyph>
<glyph name="cent" format="2">
  <advance width="383"/>
  <unicode hex="00A2"/>
  <outline>
    <contour>
      <point x="237" y="507" type="curve" smooth="yes"/>
      <point x="114" y="507"/>
      <point x="38" y="415"/>
      <point x="38" y="266" type="curve" smooth="yes"/>
      <point x="38" y="125"/>
      <point x="110" y="36"/>
      <point x="226" y="36" type="curve" smooth="yes"/>
      <point x="274" y="36"/>
      <point x="322" y="51"/>
      <point x="358" y="72" type="curve"/>
      <point x="365" y="123" type="line"/>
      <point x="357" y="127" type="line"/>
      <point x="322" y="106"/>
      <point x="279" y="93"/>
      <point x="240" y="93" type="curve" smooth="yes"/>
      <point x="155" y="93"/>
      <point x="104" y="160"/>
      <point x="104" y="272" type="curve" smooth="yes"/>
      <point x="104" y="382"/>
      <point x="155" y="450"/>
      <point x="237" y="450" type="curve" smooth="yes"/>
      <point x="274" y="450"/>
      <point x="313" y="435"/>
      <point x="341" y="417" type="curve"/>
      <point x="350" y="418" type="line"/>
      <point x="363" y="472" type="line"/>
      <point x="330" y="493"/>
      <point x="282" y="507"/>
    </contour>
    <contour>
      <point x="233" y="67" type="line"/>
      <point x="183" y="67" type="line"/>
      <point x="169" y="-112" type="line"/>
      <point x="177" y="-120" type="line"/>
      <point x="218" y="-120" type="line"/>
    </contour>
    <contour>
      <point x="265" y="475" type="line"/>
      <point x="214" y="475" type="line"/>
      <point x="183" y="67" type="line"/>
      <point x="233" y="67" type="line"/>
    </contour>
    <contour>
      <point x="269" y="652" type="line"/>
      <point x="227" y="652" type="line"/>
      <point x="214" y="475" type="line"/>
      <point x="264" y="475" type="line"/>
      <point x="277" y="644" type="line"/>
    </contour>
  </outline>
</glyph>
<glyph name="currency" format="2">
  <advance width="435"/>
  <unicode hex="00A4"/>
  <outline>
    <contour>
      <point x="363" y="546" type="line"/>
      <point x="354" y="545" type="line"/>
      <point x="291" y="478" type="line"/>
      <point x="270" y="493"/>
      <point x="243" y="502"/>
      <point x="215" y="502" type="curve" smooth="yes"/>
      <point x="186" y="502"/>
      <point x="158" y="493"/>
      <point x="136" y="476" type="curve"/>
      <point x="72" y="544" type="line"/>
      <point x="63" y="544" type="line"/>
      <point x="27" y="506" type="line"/>
      <point x="27" y="497" type="line"/>
      <point x="95" y="435" type="line"/>
      <point x="79" y="413"/>
      <point x="69" y="386"/>
      <point x="69" y="357" type="curve" smooth="yes"/>
      <point x="69" y="328"/>
      <point x="79" y="299"/>
      <point x="96" y="277" type="curve"/>
      <point x="29" y="215" type="line"/>
      <point x="28" y="206" type="line"/>
      <point x="67" y="169" type="line"/>
      <point x="76" y="169" type="line"/>
      <point x="138" y="237" type="line"/>
      <point x="159" y="221"/>
      <point x="187" y="211"/>
      <point x="215" y="211" type="curve" smooth="yes"/>
      <point x="244" y="211"/>
      <point x="273" y="221"/>
      <point x="295" y="238" type="curve"/>
      <point x="358" y="171" type="line"/>
      <point x="367" y="170" type="line"/>
      <point x="404" y="209" type="line"/>
      <point x="403" y="218" type="line"/>
      <point x="335" y="280" type="line"/>
      <point x="351" y="302"/>
      <point x="360" y="329"/>
      <point x="360" y="357" type="curve" smooth="yes"/>
      <point x="360" y="387"/>
      <point x="351" y="414"/>
      <point x="334" y="437" type="curve"/>
      <point x="401" y="500" type="line"/>
      <point x="401" y="509" type="line"/>
    </contour>
    <contour>
      <point x="215" y="453" type="curve" smooth="yes"/>
      <point x="270" y="453"/>
      <point x="312" y="411"/>
      <point x="312" y="357" type="curve" smooth="yes"/>
      <point x="312" y="302"/>
      <point x="270" y="261"/>
      <point x="215" y="261" type="curve" smooth="yes"/>
      <point x="161" y="261"/>
      <point x="119" y="302"/>
      <point x="119" y="357" type="curve" smooth="yes"/>
      <point x="119" y="411"/>
      <point x="161" y="453"/>
    </contour>
  </outline>
</glyph>
<glyph name="brokenbar" format="2">
  <advance width="313"/>
  <unicode hex="00A6"/>
  <outline>
    <contour>
      <point x="184" y="798" type="line"/>
      <point x="123" y="793" type="line"/>
      <point x="123" y="372" type="line"/>
      <point x="130" y="366" type="line"/>
      <point x="189" y="373" type="line"/>
      <point x="190" y="792" type="line"/>
    </contour>
    <contour>
      <point x="181" y="160" type="line"/>
      <point x="123" y="153" type="line"/>
      <point x="123" y="-253" type="line"/>
      <point x="130" y="-262" type="line"/>
      <point x="189" y="-258" type="line"/>
      <point x="189" y="151" type="line"/>
    </contour>
  </outline>
</glyph>
<glyph name="section" format="2">
  <advance width="420"/>
  <unicode hex="00A7"/>
  <outline>
    <contour>
      <point x="184" y="434" type="line"/>
      <point x="100" y="414"/>
      <point x="40" y="351"/>
      <point x="40" y="280" type="curve" smooth="yes"/>
      <point x="40" y="144"/>
      <point x="262" y="112"/>
      <point x="262" y="24" type="curve" smooth="yes"/>
      <point x="262" y="-10"/>
      <point x="230" y="-45"/>
      <point x="175" y="-45" type="curve" smooth="yes"/>
      <point x="133" y="-45"/>
      <point x="89" y="-25"/>
      <point x="51" y="10" type="curve"/>
      <point x="42" y="4" type="line"/>
      <point x="31" y="-69" type="line"/>
      <point x="70" y="-89"/>
      <point x="124" y="-101"/>
      <point x="166" y="-101" type="curve" smooth="yes"/>
      <point x="265" y="-101"/>
      <point x="335" y="-37"/>
      <point x="335" y="37" type="curve" smooth="yes"/>
      <point x="335" y="169"/>
      <point x="112" y="202"/>
      <point x="112" y="296" type="curve" smooth="yes"/>
      <point x="112" y="332"/>
      <point x="144" y="365"/>
      <point x="212" y="389" type="curve"/>
    </contour>
    <contour>
      <point x="251" y="647" type="curve" smooth="yes"/>
      <point x="155" y="647"/>
      <point x="86" y="584"/>
      <point x="86" y="510" type="curve" smooth="yes"/>
      <point x="86" y="379"/>
      <point x="308" y="349"/>
      <point x="308" y="250" type="curve" smooth="yes"/>
      <point x="308" y="217"/>
      <point x="284" y="185"/>
      <point x="207" y="160" type="curve"/>
      <point x="238" y="117" type="line"/>
      <point x="325" y="137"/>
      <point x="380" y="199"/>
      <point x="380" y="267" type="curve" smooth="yes"/>
      <point x="380" y="404"/>
      <point x="158" y="436"/>
      <point x="158" y="522" type="curve" smooth="yes"/>
      <point x="158" y="554"/>
      <point x="189" y="589"/>
      <point x="238" y="589" type="curve" smooth="yes"/>
      <point x="267" y="589"/>
      <point x="302" y="577"/>
      <point x="339" y="550" type="curve"/>
      <point x="351" y="553" type="line"/>
      <point x="362" y="625" type="line"/>
      <point x="325" y="640"/>
      <point x="283" y="647"/>
    </contour>
  </outline>
</glyph>
<glyph name="logicalnot" format="2">
  <advance width="480"/>
  <unicode hex="00AC"/>
  <outline>
    <contour>
      <point x="419" y="294" type="line"/>
      <point x="33" y="294" type="line"/>
      <point x="28" y="241" type="line"/>
      <point x="34" y="235" type="line"/>
      <point x="365" y="235" type="line"/>
      <point x="365" y="61" type="line"/>
      <point x="372" y="55" type="line"/>
      <point x="425" y="59" type="line"/>
      <point x="425" y="287" type="line"/>
    </contour>
  </outline>
</glyph>
<glyph name="softhyphen" format="2">
  <advance width="307"/>
  <unicode hex="00AD"/>
  <outline>
    <contour>
      <point x="270" y="302" type="line"/>
      <point x="29" y="268" type="line"/>
      <point x="29" y="214" type="line"/>
      <point x="37" y="206" type="line"/>
      <point x="278" y="241" type="line"/>
      <point x="278" y="295" type="line"/>
    </contour>
  </outline>
</glyph>
<glyph name="degree" format="2">
  <advance width="293"/>
  <unicode hex="00B0"/>
  <outline>
    <contour>
      <point x="147" y="648" type="curve" smooth="yes"/>
      <point x="76" y="648"/>
      <point x="20" y="593"/>
      <point x="20" y="523" type="curve" smooth="yes"/>
      <point x="20" y="453"/>
      <point x="76" y="398"/>
      <point x="147" y="398" type="curve" smooth="yes"/>
      <point x="217" y="398"/>
      <point x="273" y="453"/>
      <point x="273" y="523" type="curve" smooth="yes"/>
      <point x="273" y="593"/>
      <point x="217" y="648"/>
    </contour>
    <contour>
      <point x="146" y="607" type="curve" smooth="yes"/>
      <point x="193" y="607"/>
      <point x="231" y="569"/>
      <point x="231" y="523" type="curve" smooth="yes"/>
      <point x="231" y="477"/>
      <point x="193" y="439"/>
      <point x="146" y="439" type="curve" smooth="yes"/>
      <point x="100" y="439"/>
      <point x="61" y="477"/>
      <point x="61" y="523" type="curve" smooth="yes"/>
      <point x="61" y="569"/>
      <point x="100" y="607"/>
    </contour>
  </outline>
</glyph>
<glyph name="micro" format="2">
  <advance width="533"/>
  <unicode hex="00B5"/>
  <outline>
    <contour>
      <point x="81" y="-185" type="line"/>
      <point x="161" y="-185" type="line"/>
      <point x="144" y="79" type="line"/>
      <point x="161" y="149" type="line"/>
      <point x="161" y="461" type="line"/>
      <point x="81" y="453" type="line"/>
      <point x="85" y="194" type="line"/>
    </contour>
    <contour>
      <point x="237" y="-6" type="curve"/>
      <point x="276" y="5"/>
      <point x="317" y="27"/>
      <point x="357" y="62" type="curve"/>
      <point x="380" y="62" type="line"/>
      <point x="369" y="136" type="line"/>
      <point x="326" y="91"/>
      <point x="279" y="65"/>
      <point x="235" y="65" type="curve" smooth="yes"/>
      <point x="185" y="65"/>
      <point x="160" y="98"/>
      <point x="161" y="149" type="curve"/>
      <point x="103" y="129" type="line"/>
      <point x="102" y="43"/>
      <point x="148" y="-6"/>
    </contour>
    <contour>
      <point x="436" y="-6" type="curve"/>
      <point x="456" y="-4"/>
      <point x="477" y="4"/>
      <point x="494" y="14" type="curve"/>
      <point x="502" y="62" type="line"/>
      <point x="494" y="69" type="line"/>
      <point x="478" y="65"/>
      <point x="469" y="64"/>
      <point x="460" y="64" type="curve" smooth="yes"/>
      <point x="439" y="64"/>
      <point x="431" y="73"/>
      <point x="431" y="100" type="curve"/>
      <point x="437" y="461" type="line"/>
      <point x="356" y="453" type="line"/>
      <point x="356" y="114" type="line"/>
      <point x="362" y="34"/>
      <point x="384" y="1"/>
    </contour>
  </outline>
</glyph>
<glyph name="Eth" format="2">
  <advance width="669"/>
  <unicode hex="00D0"/>
  <outline>
    <contour>
      <point x="348" y="645" type="curve"/>
      <point x="114" y="641" type="line"/>
      <point x="186" y="569" type="line"/>
      <point x="216" y="571"/>
      <point x="318" y="574"/>
      <point x="342" y="574" type="curve" smooth="yes"/>
      <point x="475" y="574"/>
      <point x="544" y="494"/>
      <point x="544" y="325" type="curve" smooth="yes"/>
      <point x="544" y="149"/>
      <point x="469" y="65"/>
      <point x="338" y="65" type="curve" smooth="yes"/>
      <point x="313" y="65"/>
      <point x="217" y="69"/>
      <point x="174" y="74" type="curve"/>
      <point x="114" y="0" type="line"/>
      <point x="170" y="-3"/>
      <point x="285" y="-6"/>
      <point x="324" y="-6" type="curve"/>
      <point x="522" y="-6"/>
      <point x="632" y="118"/>
      <point x="632" y="343" type="curve" smooth="yes"/>
      <point x="632" y="538"/>
      <point x="531" y="645"/>
    </contour>
    <contour>
      <point x="201" y="641" type="line"/>
      <point x="113" y="641" type="line"/>
      <point x="119" y="193" type="line"/>
      <point x="113" y="0" type="line"/>
      <point x="200" y="0" type="line"/>
      <point x="196" y="200" type="line"/>
    </contour>
    <contour>
      <point x="339.19" y="354" type="line"/>
      <point x="14.806000000000001" y="354" type="line"/>
      <point x="11.536" y="301" type="line"/>
      <point x="15.46" y="294" type="line"/>
      <point x="340.498" y="294" type="line"/>
      <point x="343.11400000000003" y="347" type="line"/>
    </contour>
  </outline>
</glyph>
<glyph name="multiply" format="2">
  <advance width="480"/>
  <unicode hex="00D7"/>
  <outline>
    <contour>
      <point x="364" y="431" type="line"/>
      <point x="240" y="307" type="line"/>
      <point x="115" y="431" type="line"/>
      <point x="75" y="397" type="line"/>
      <point x="75" y="387" type="line"/>
      <point x="198" y="265" type="line"/>
      <point x="75" y="141" type="line"/>
      <point x="75" y="133" type="line"/>
      <point x="115" y="98" type="line"/>
      <point x="240" y="222" type="line"/>
      <point x="364" y="98" type="line"/>
      <point x="405" y="133" type="line"/>
      <point x="405" y="142" type="line"/>
      <point x="282" y="265" type="line"/>
      <point x="405" y="387" type="line"/>
      <point x="405" y="397" type="line"/>
    </contour>
  </outline>
</glyph>
<glyph name="Thorn" format="2">
  <advance width="529"/>
  <unicode hex="00DE"/>
  <outline>
    <contour>
      <point x="295" y="532" type="curve"/>
      <point x="93" y="531" type="line"/>
      <point x="139" y="459" type="line"/>
      <point x="274" y="463" type="line"/>
      <point x="359" y="459"/>
      <point x="404" y="420"/>
      <point x="404" y="336" type="curve" smooth="yes"/>
      <point x="404" y="247"/>
      <point x="359" y="198"/>
      <point x="280" y="183" type="curve"/>
      <point x="124" y="187" type="line"/>
      <point x="124" y="113" type="line"/>
      <point x="251" y="115" type="line"/>
      <point x="407" y="115"/>
      <point x="493" y="198"/>
      <point x="493" y="342" type="curve" smooth="yes"/>
      <point x="493" y="466"/>
      <point x="422" y="532"/>
    </contour>
    <contour>
      <point x="179" y="641" type="line"/>
      <point x="92" y="641" type="line"/>
      <point x="96" y="193" type="line"/>
      <point x="92" y="0" type="line"/>
      <point x="178" y="0" type="line"/>
      <point x="175" y="200" type="line"/>
    </contour>
  </outline>
</glyph>
<glyph name="germandbls" format="2">
  <advance width="569"/>
  <unicode hex="00DF"/>
  <outline>
    <contour>
      <point x="310" y="704" type="curve" smooth="yes"/>
      <point x="186" y="704"/>
      <point x="107" y="632"/>
      <point x="107" y="503" type="curve"/>
      <point x="110" y="190" type="line"/>
      <point x="104" y="0" type="line"/>
      <point x="189" y="0" type="line"/>
      <point x="183" y="199" type="line"/>
      <point x="187" y="512" type="line"/>
      <point x="188" y="599"/>
      <point x="233" y="642"/>
      <point x="306" y="642" type="curve" smooth="yes"/>
      <point x="364" y="642"/>
      <point x="401" y="615"/>
      <point x="401" y="563" type="curve" smooth="yes"/>
      <point x="401" y="469"/>
      <point x="283" y="464"/>
      <point x="283" y="356" type="curve" smooth="yes"/>
      <point x="283" y="215"/>
      <point x="483" y="209"/>
      <point x="483" y="118" type="curve" smooth="yes"/>
      <point x="483" y="82"/>
      <point x="452" y="52"/>
      <point x="401" y="52" type="curve" smooth="yes"/>
      <point x="362" y="52"/>
      <point x="318" y="70"/>
      <point x="281" y="104" type="curve"/>
      <point x="272" y="98" type="line"/>
      <point x="261" y="24" type="line"/>
      <point x="303" y="3"/>
      <point x="351" y="-8"/>
      <point x="394" y="-8" type="curve" smooth="yes"/>
      <point x="501" y="-8"/>
      <point x="561" y="58"/>
      <point x="561" y="132" type="curve" smooth="yes"/>
      <point x="561" y="268"/>
      <point x="361" y="265"/>
      <point x="361" y="370" type="curve" smooth="yes"/>
      <point x="361" y="448"/>
      <point x="472" y="466"/>
      <point x="472" y="574" type="curve" smooth="yes"/>
      <point x="472" y="651"/>
      <point x="416" y="704"/>
    </contour>
    <contour>
      <point x="150" y="457" type="line"/>
      <point x="40" y="457" type="line"/>
      <point x="35" y="407" type="line"/>
      <point x="39" y="401" type="line"/>
      <point x="149" y="401" type="line"/>
      <point x="154" y="451" type="line"/>
    </contour>
  </outline>
</glyph>
<glyph name="ae" format="2">
  <advance width="680"/>
  <unicode hex="00E6"/>
  <anchor x="344" y="459" name="top"/>
  <outline>
    <contour>
      <point x="319" y="261" type="line"/>
      <point x="319" y="211" type="line"/>
      <point x="641" y="263" type="line"/>
      <point x="650" y="275" type="line"/>
      <point x="627" y="317" type="line"/>
    </contour>
    <contour>
      <point x="319" y="211" type="line"/>
      <point x="319" y="261" type="line"/>
      <point x="132" y="231" type="line" smooth="yes"/>
      <point x="70" y="221"/>
      <point x="38" y="180"/>
      <point x="38" y="120" type="curve" smooth="yes"/>
      <point x="38" y="40"/>
      <point x="96" y="-7"/>
      <point x="188" y="-7" type="curve"/>
      <point x="243" y="13"/>
      <point x="287" y="46"/>
      <point x="322" y="89" type="curve"/>
      <point x="354" y="26"/>
      <point x="411" y="-8"/>
      <point x="486" y="-8" type="curve" smooth="yes"/>
      <point x="530" y="-8"/>
      <point x="580" y="6"/>
      <point x="619" y="28" type="curve"/>
      <point x="629" y="97" type="line"/>
      <point x="620" y="102" type="line"/>
      <point x="582" y="73"/>
      <point x="535" y="56"/>
      <point x="492" y="56" type="curve" smooth="yes"/>
      <point x="403" y="56"/>
      <point x="359" y="119"/>
      <point x="359" y="237" type="curve" smooth="yes"/>
      <point x="359" y="273" type="line" smooth="yes"/>
      <point x="359" y="347"/>
      <point x="411" y="408"/>
      <point x="479" y="408" type="curve" smooth="yes"/>
      <point x="534" y="408"/>
      <point x="573" y="370"/>
      <point x="573" y="300" type="curve"/>
      <point x="650" y="275" type="line"/>
      <point x="655" y="403"/>
      <point x="586" y="466"/>
      <point x="491" y="466" type="curve" smooth="yes"/>
      <point x="434" y="466"/>
      <point x="381" y="443"/>
      <point x="346" y="399" type="curve"/>
      <point x="329" y="438"/>
      <point x="290" y="467"/>
      <point x="225" y="467" type="curve" smooth="yes"/>
      <point x="169" y="467"/>
      <point x="111" y="446"/>
      <point x="56" y="406" type="curve"/>
      <point x="68" y="344" type="line"/>
      <point x="76" y="340" type="line"/>
      <point x="130" y="385"/>
      <point x="175" y="406"/>
      <point x="215" y="406" type="curve" smooth="yes"/>
      <point x="264" y="406"/>
      <point x="291" y="379"/>
      <point x="291" y="327" type="curve" smooth="yes"/>
      <point x="291" y="232" type="line" smooth="yes"/>
      <point x="291" y="197"/>
      <point x="293" y="174"/>
      <point x="299" y="136" type="curve"/>
      <point x="247" y="82"/>
      <point x="219" y="64"/>
      <point x="183" y="64" type="curve" smooth="yes"/>
      <point x="144" y="64"/>
      <point x="114" y="85"/>
      <point x="114" y="129" type="curve" smooth="yes"/>
      <point x="114" y="156"/>
      <point x="126" y="174"/>
      <point x="163" y="181" type="curve" smooth="yes"/>
    </contour>
  </outline>
</glyph>
<glyph name="eth" format="2">
  <advance width="489"/>
  <unicode hex="00F0"/>
  <outline>
    <contour>
      <point x="122" y="706" type="curve"/>
      <point x="116" y="706" type="line"/>
      <point x="67" y="668" type="line"/>
      <point x="67" y="657" type="line"/>
      <point x="275" y="571"/>
      <point x="372" y="441"/>
      <point x="372" y="241" type="curve" smooth="yes"/>
      <point x="372" y="111"/>
      <point x="331" y="49"/>
      <point x="246" y="49" type="curve" smooth="yes"/>
      <point x="164" y="49"/>
      <point x="115" y="107"/>
      <point x="115" y="224" type="curve" smooth="yes"/>
      <point x="115" y="340"/>
      <point x="163" y="402"/>
      <point x="250" y="402" type="curve" smooth="yes"/>
      <point x="297" y="402"/>
      <point x="335" y="384"/>
      <point x="368" y="349" type="curve"/>
      <point x="399" y="397" type="line"/>
      <point x="355" y="440"/>
      <point x="308" y="459"/>
      <point x="246" y="459" type="curve" smooth="yes"/>
      <point x="116" y="459"/>
      <point x="42" y="371"/>
      <point x="42" y="224" type="curve" smooth="yes"/>
      <point x="42" y="76"/>
      <point x="118" y="-8"/>
      <point x="241" y="-8" type="curve" smooth="yes"/>
      <point x="372" y="-8"/>
      <point x="445" y="85"/>
      <point x="445" y="246" type="curve" smooth="yes"/>
      <point x="445" y="447"/>
      <point x="332" y="613"/>
    </contour>
    <contour>
      <point x="373" y="686" type="line"/>
      <point x="88" y="540" type="line"/>
      <point x="106" y="500" type="line"/>
      <point x="114" y="497" type="line"/>
      <point x="399" y="643" type="line"/>
      <point x="381" y="683" type="line"/>
    </contour>
  </outline>
</glyph>
<glyph name="divide" format="2">
  <advance width="480"/>
  <unicode hex="00F7"/>
  <outline>
    <contour>
      <point x="453" y="294" type="line"/>
      <point x="45" y="294" type="line"/>
      <point x="40" y="241" type="line"/>
      <point x="46" y="235" type="line"/>
      <point x="455" y="235" type="line"/>
      <point x="460" y="288" type="line"/>
    </contour>
    <contour>
      <point x="260.344" y="137.86200000000002" type="curve" smooth="yes"/>
      <point x="231.39" y="137.86200000000002"/>
      <point x="213.644" y="119.182"/>
      <point x="213.644" y="91.162" type="curve" smooth="yes"/>
      <point x="213.644" y="63.142"/>
      <point x="229.522" y="46.33"/>
      <point x="257.54200000000003" y="46.33" type="curve" smooth="yes"/>
      <point x="285.562" y="46.33"/>
      <point x="303.308" y="65.01"/>
      <point x="303.308" y="93.964" type="curve" smooth="yes"/>
      <point x="303.308" y="121.05"/>
      <point x="287.43" y="137.86200000000002"/>
    </contour>
    <contour>
      <point x="260.344" y="486.862" type="curve" smooth="yes"/>
      <point x="231.39" y="486.862"/>
      <point x="213.644" y="468.182"/>
      <point x="213.644" y="440.162" type="curve" smooth="yes"/>
      <point x="213.644" y="412.142"/>
      <point x="229.522" y="395.33"/>
      <point x="257.54200000000003" y="395.33" type="curve" smooth="yes"/>
      <point x="285.562" y="395.33"/>
      <point x="303.308" y="414.01"/>
      <point x="303.308" y="442.964" type="curve" smooth="yes"/>
      <point x="303.308" y="470.05"/>
      <point x="287.43" y="486.862"/>
    </contour>
  </outline>
</glyph>
<glyph name="oslash" format="2">
  <advance width="491"/>
  <unicode hex="00F8"/>
  <anchor x="246" y="0" name="bottom"/>
  <anchor x="246" y="230" name="center"/>
  <anchor x="360" y="32" name="ogonek"/>
  <anchor x="245" y="459" name="top"/>
  <anchor x="471" y="459" name="topright"/>
  <outline>
    <contour>
      <point x="421" y="532" type="line"/>
      <point x="377" y="553" type="line"/>
      <point x="53" y="-87" type="line"/>
      <point x="56" y="-95" type="line"/>
      <point x="103" y="-117" type="line"/>
      <point x="426" y="523" type="line"/>
    </contour>
    <contour>
      <point x="251" y="467" type="curve" smooth="yes"/>
      <point x="117" y="467"/>
      <point x="41" y="378"/>
      <point x="41" y="223" type="curve" smooth="yes"/>
      <point x="41" y="76"/>
      <point x="113" y="-8"/>
      <point x="239" y="-8" type="curve" smooth="yes"/>
      <point x="373" y="-8"/>
      <point x="449" y="81"/>
      <point x="449" y="236" type="curve" smooth="yes"/>
      <point x="449" y="383"/>
      <point x="377" y="467"/>
    </contour>
    <contour>
      <point x="246" y="407" type="curve" smooth="yes"/>
      <point x="326" y="407"/>
      <point x="369" y="343"/>
      <point x="369" y="216" type="curve" smooth="yes"/>
      <point x="369" y="106"/>
      <point x="326" y="52"/>
      <point x="244" y="52" type="curve" smooth="yes"/>
      <point x="164" y="52"/>
      <point x="121" y="114"/>
      <point x="121" y="243" type="curve" smooth="yes"/>
      <point x="121" y="350"/>
      <point x="164" y="407"/>
    </contour>
  </outline>
</glyph>
<glyph name="thorn" format="2">
  <advance width="514"/>
  <unicode hex="00FE"/>
  <outline>
    <contour>
      <point x="294" y="464" type="curve"/>
      <point x="246" y="449"/>
      <point x="215" y="432"/>
      <point x="170" y="396" type="curve"/>
      <point x="154" y="396" type="line"/>
      <point x="154" y="316" type="line"/>
      <point x="204" y="371"/>
      <point x="244" y="394"/>
      <point x="286" y="394" type="curve" smooth="yes"/>
      <point x="353" y="394"/>
      <point x="390" y="335"/>
      <point x="392" y="234" type="curve" smooth="yes"/>
      <point x="394" y="111"/>
      <point x="340" y="53"/>
      <point x="259" y="53" type="curve" smooth="yes"/>
      <point x="209" y="53"/>
      <point x="157" y="81"/>
      <point x="100" y="141" type="curve"/>
      <point x="96" y="48" type="line"/>
      <point x="144" y="14"/>
      <point x="198" y="-8"/>
      <point x="252" y="-8" type="curve" smooth="yes"/>
      <point x="389" y="-8"/>
      <point x="472" y="82"/>
      <point x="472" y="244" type="curve" smooth="yes"/>
      <point x="472" y="381"/>
      <point x="412" y="464"/>
    </contour>
    <contour>
      <point x="167" y="702" type="line"/>
      <point x="82" y="695" type="line"/>
      <point x="88" y="194" type="line"/>
      <point x="82" y="-185" type="line"/>
      <point x="166" y="-185" type="line"/>
      <point x="161" y="201" type="line"/>
    </contour>
  </outline>
</glyph>
<glyph name="dcroat" format="2">
  <advance width="521"/>
  <unicode hex="0111"/>
  <anchor x="261" y="0" name="bottom"/>
  <anchor x="261" y="230" name="center"/>
  <anchor x="261" y="459" name="top"/>
  <anchor x="499" y="459" name="topright"/>
  <outline>
    <contour>
      <point x="500" y="607" type="line"/>
      <point x="223" y="607" type="line"/>
      <point x="218" y="562" type="line"/>
      <point x="224" y="556" type="line"/>
      <point x="502" y="556" type="line"/>
      <point x="507" y="600" type="line"/>
    </contour>
    <contour>
      <point x="433" y="702" type="line"/>
      <point x="348" y="695" type="line"/>
      <point x="350" y="458" type="line"/>
      <point x="321" y="464"/>
      <point x="292" y="467"/>
      <point x="264" y="467" type="curve" smooth="yes"/>
      <point x="125" y="467"/>
      <point x="41" y="381"/>
      <point x="41" y="229" type="curve" smooth="yes"/>
      <point x="41" y="80"/>
      <point x="113" y="-5"/>
      <point x="249" y="-5" type="curve"/>
      <point x="289" y="13"/>
      <point x="315" y="31"/>
      <point x="354" y="64" type="curve"/>
      <point x="362" y="64" type="line"/>
      <point x="367" y="25"/>
      <point x="391" y="-2"/>
      <point x="433" y="-6" type="curve"/>
      <point x="453" y="-4"/>
      <point x="474" y="4"/>
      <point x="491" y="14" type="curve"/>
      <point x="499" y="62" type="line"/>
      <point x="491" y="69" type="line"/>
      <point x="475" y="65"/>
      <point x="466" y="64"/>
      <point x="457" y="64" type="curve" smooth="yes"/>
      <point x="436" y="64"/>
      <point x="430" y="73"/>
      <point x="429" y="100" type="curve" smooth="yes"/>
      <point x="426" y="202" type="line"/>
    </contour>
    <contour>
      <point x="254" y="407" type="curve" smooth="yes"/>
      <point x="285" y="407"/>
      <point x="316" y="398"/>
      <point x="350" y="382" type="curve"/>
      <point x="353" y="195" type="line"/>
      <point x="351" y="125" type="line"/>
      <point x="311" y="80"/>
      <point x="278" y="67"/>
      <point x="244" y="67" type="curve" smooth="yes"/>
      <point x="169" y="67"/>
      <point x="123" y="127"/>
      <point x="121" y="237" type="curve" smooth="yes"/>
      <point x="119" y="350"/>
      <point x="173" y="407"/>
    </contour>
  </outline>
</glyph>
<glyph name="gcommaaccent" format="2">
  <advance width="488"/>
  <unicode hex="0123"/>
  <outline>
    <contour>
      <point x="129" y="182" type="line"/>
      <point x="129" y="171" type="line"/>
      <point x="103" y="154"/>
      <point x="82" y="133"/>
      <point x="67" y="110" type="curve"/>
      <point x="66" y="-30"/>
      <point x="366" y="49"/>
      <point x="366" y="-56" type="curve" smooth="yes"/>
      <point x="366" y="-101"/>
      <point x="310" y="-134"/>
      <point x="235" y="-134" type="curve" smooth="yes"/>
      <point x="165" y="-134"/>
      <point x="129" y="-105"/>
      <point x="129" y="-69" type="curve" smooth="yes"/>
      <point x="129" y="-38"/>
      <point x="158" y="-11"/>
      <point x="207" y="19" type="curve"/>
      <point x="141" y="35" type="line"/>
      <point x="141" y="24" type="line"/>
      <point x="106" y="2"/>
      <point x="75" y="-23"/>
      <point x="54" y="-60" type="curve"/>
      <point x="54" y="-136"/>
      <point x="113" y="-193"/>
      <point x="225" y="-193" type="curve" smooth="yes"/>
      <point x="346" y="-193"/>
      <point x="441" y="-126"/>
      <point x="441" y="-40" type="curve" smooth="yes"/>
      <point x="441" y="108"/>
      <point x="147" y="47"/>
      <point x="147" y="120" type="curve" smooth="yes"/>
      <point x="147" y="134"/>
      <point x="155" y="144"/>
      <point x="180" y="163" type="curve"/>
    </contour>
    <contour>
      <point x="243" y="464" type="curve" smooth="yes"/>
      <point x="135" y="464"/>
      <point x="63" y="405"/>
      <point x="63" y="303" type="curve" smooth="yes"/>
      <point x="63" y="209"/>
      <point x="124" y="150"/>
      <point x="234" y="150" type="curve" smooth="yes"/>
      <point x="347" y="150"/>
      <point x="416" y="213"/>
      <point x="416" y="310" type="curve" smooth="yes"/>
      <point x="416" y="403"/>
      <point x="353" y="464"/>
    </contour>
    <contour>
      <point x="242" y="407" type="curve" smooth="yes"/>
      <point x="307" y="407"/>
      <point x="340" y="372"/>
      <point x="340" y="311" type="curve" smooth="yes"/>
      <point x="340" y="246"/>
      <point x="303" y="207"/>
      <point x="238" y="207" type="curve" smooth="yes"/>
      <point x="174" y="207"/>
      <point x="139" y="245"/>
      <point x="139" y="307" type="curve" smooth="yes"/>
      <point x="139" y="372"/>
      <point x="177" y="407"/>
    </contour>
    <contour>
      <point x="480" y="481" type="line"/>
      <point x="429" y="466"/>
      <point x="377" y="455"/>
      <point x="325" y="446" type="curve"/>
      <point x="390" y="379" type="line"/>
      <point x="398" y="396" type="line"/>
      <point x="429" y="402"/>
      <point x="460" y="408"/>
      <point x="488" y="417" type="curve"/>
      <point x="488" y="475" type="line"/>
    </contour>
    <contour>
      <point x="242.562" y="518.18" type="curve"/>
      <point x="260.156" y="528.3659999999999"/>
      <point x="276.824" y="539.478"/>
      <point x="289.788" y="551.516" type="curve"/>
      <point x="289.788" y="558.924" type="line"/>
      <point x="263.86" y="570.036"/>
      <point x="253.67400000000004" y="587.6299999999999"/>
      <point x="253.67400000000004" y="611.7059999999999" type="curve" smooth="yes"/>
      <point x="253.67400000000004" y="634.856"/>
      <point x="265.712" y="660.7839999999999"/>
      <point x="292.56600000000003" y="689.49" type="curve"/>
      <point x="291.64000000000004" y="695.972" type="line"/>
      <point x="262.00800000000004" y="716.3439999999999" type="line"/>
      <point x="214.78200000000004" y="670.0439999999999"/>
      <point x="192.55800000000002" y="628.3739999999999"/>
      <point x="192.55800000000002" y="589.482" type="curve" smooth="yes"/>
      <point x="192.55800000000002" y="555.2199999999999"/>
      <point x="208.3" y="532.0699999999999"/>
    </contour>
  </outline>
</glyph>
<glyph name="Hbar" format="2">
  <advance width="716"/>
  <unicode hex="0126"/>
  <anchor x="357" y="0" name="bottom"/>
  <anchor x="357" y="321" name="center"/>
  <anchor x="357" y="641" name="top"/>
  <anchor x="34" y="641" name="topleft"/>
  <outline>
    <contour>
      <point x="673" y="537" type="line"/>
      <point x="43" y="537" type="line"/>
      <point x="39" y="482" type="line"/>
      <point x="44" y="477" type="line"/>
      <point x="674" y="477" type="line"/>
      <point x="678" y="531" type="line"/>
    </contour>
    <contour>
      <point x="607" y="641" type="line"/>
      <point x="520" y="641" type="line"/>
      <point x="524" y="193" type="line"/>
      <point x="520" y="0" type="line"/>
      <point x="605" y="0" type="line"/>
      <point x="603" y="200" type="line"/>
    </contour>
    <contour>
      <point x="192" y="641" type="line"/>
      <point x="106" y="641" type="line"/>
      <point x="110" y="193" type="line"/>
      <point x="106" y="0" type="line"/>
      <point x="191" y="0" type="line"/>
      <point x="188" y="200" type="line"/>
    </contour>
    <contour>
      <point x="177" y="359" type="line"/>
      <point x="177" y="287" type="line"/>
      <point x="349" y="288" type="line"/>
      <point x="534" y="287" type="line"/>
      <point x="534" y="359" type="line"/>
      <point x="356" y="358" type="line"/>
    </contour>
  </outline>
</glyph>
<glyph name="hbar" format="2">
  <advance width="516"/>
  <unicode hex="0127"/>
  <anchor x="257" y="0" name="bottom"/>
  <anchor x="257" y="230" name="center"/>
  <anchor x="119" y="647" name="top"/>
  <anchor x="225" y="459" name="topright"/>
  <outline>
    <contour>
      <point x="361" y="0" type="line"/>
      <point x="447" y="0" type="line"/>
      <point x="443" y="200" type="line"/>
      <point x="445" y="330" type="line"/>
      <point x="446" y="416"/>
      <point x="393" y="465"/>
      <point x="290" y="465" type="curve"/>
      <point x="251" y="454"/>
      <point x="207" y="430"/>
      <point x="166" y="395" type="curve"/>
      <point x="150" y="395" type="line"/>
      <point x="150" y="316" type="line"/>
      <point x="196" y="365"/>
      <point x="244" y="394"/>
      <point x="292" y="394" type="curve" smooth="yes"/>
      <point x="343" y="394"/>
      <point x="368" y="361"/>
      <point x="367" y="310" type="curve" smooth="yes"/>
    </contour>
    <contour>
      <point x="78" y="0" type="line"/>
      <point x="163" y="0" type="line"/>
      <point x="157" y="202" type="line"/>
      <point x="164" y="702" type="line"/>
      <point x="79" y="695" type="line"/>
      <point x="84" y="195" type="line"/>
    </contour>
    <contour>
      <point x="13" y="540" type="line"/>
      <point x="305" y="540" type="line"/>
      <point x="308" y="582" type="line"/>
      <point x="302" y="589" type="line"/>
      <point x="10" y="589" type="line"/>
      <point x="6" y="546" type="line"/>
    </contour>
  </outline>
</glyph>
<glyph name="idotless" format="2">
  <advance width="244"/>
  <unicode hex="0131"/>
  <anchor x="121" y="0" name="bottom"/>
  <anchor x="163" y="0" name="ogonek"/>
  <anchor x="121" y="459" name="top"/>
  <outline>
    <contour>
      <point x="79" y="0" type="line"/>
      <point x="163" y="0" type="line"/>
      <point x="160" y="201" type="line"/>
      <point x="163" y="461" type="line"/>
      <point x="80" y="453" type="line"/>
      <point x="83" y="194" type="line"/>
    </contour>
  </outline>
</glyph>
<glyph name="kgreenlandic" format="2">
  <advance width="457"/>
  <unicode hex="0138"/>
  <anchor x="229" y="0" name="bottom"/>
  <anchor x="216" y="10" name="ogonek"/>
  <anchor x="229" y="459" name="top"/>
  <outline>
    <contour>
      <point x="436" y="459" type="line"/>
      <point x="345" y="459" type="line"/>
      <point x="319" y="417" type="line"/>
      <point x="175" y="248" type="line"/>
      <point x="175" y="241" type="line"/>
      <point x="233" y="156"/>
      <point x="297" y="75"/>
      <point x="364" y="-5" type="curve"/>
      <point x="373" y="-9" type="line"/>
      <point x="399" y="-5"/>
      <point x="424" y="-2"/>
      <point x="449" y="5" type="curve"/>
      <point x="449" y="15" type="line"/>
      <point x="383" y="90"/>
      <point x="318" y="169"/>
      <point x="258" y="249" type="curve"/>
    </contour>
    <contour>
      <point x="78" y="0" type="line"/>
      <point x="161" y="0" type="line"/>
      <point x="159" y="201" type="line"/>
      <point x="162" y="461" type="line"/>
      <point x="79" y="453" type="line"/>
      <point x="81" y="194" type="line"/>
    </contour>
  </outline>
</glyph>
<glyph name="Lcaron" format="2">
  <advance width="450"/>
  <unicode hex="013D"/>
  <anchor x="235" y="0" name="bottom"/>
  <anchor x="135" y="641" name="top"/>
  <outline>
    <contour>
      <point x="216" y="197" type="move"/>
    </contour>
    <contour>
      <point x="176" y="641" type="line"/>
      <point x="88" y="641" type="line"/>
      <point x="94" y="193" type="line"/>
      <point x="88" y="0" type="line"/>
      <point x="175" y="0" type="line"/>
      <point x="171" y="200" type="line"/>
    </contour>
    <contour>
      <point x="409" y="72" type="line"/>
      <point x="142" y="72" type="line"/>
      <point x="139" y="7" type="line"/>
      <point x="142" y="0" type="line"/>
      <point x="408" y="0" type="line"/>
      <point x="415" y="64" type="line"/>
    </contour>
    <contour>
      <point x="376" y="583" type="line"/>
      <point x="315" y="579" type="line"/>
      <point x="311" y="401" type="line"/>
      <point x="318" y="395" type="line"/>
      <point x="358" y="401" type="line"/>
      <point x="382" y="576" type="line"/>
    </contour>
  </outline>
</glyph>
<glyph name="lcaron" format="2">
  <advance width="296"/>
  <unicode hex="013E"/>
  <anchor x="124" y="0" name="bottom"/>
  <anchor x="124" y="680" name="top"/>
  <anchor x="229" y="459" name="topright"/>
  <outline>
    <contour>
      <point x="200" y="131" type="move"/>
    </contour>
    <contour>
      <point x="168" y="702" type="line"/>
      <point x="83" y="695" type="line"/>
      <point x="88" y="195" type="line"/>
      <point x="82" y="0" type="line"/>
      <point x="167" y="0" type="line"/>
      <point x="161" y="202" type="line"/>
    </contour>
    <contour>
      <point x="299" y="649" type="line"/>
      <point x="238" y="645" type="line"/>
      <point x="234" y="467" type="line"/>
      <point x="241" y="461" type="line"/>
      <point x="281" y="467" type="line"/>
      <point x="305" y="642" type="line"/>
    </contour>
  </outline>
</glyph>
<glyph name="ldot" format="2">
  <advance width="249"/>
  <unicode hex="0140"/>
  <anchor x="124" y="0" name="bottom"/>
  <anchor x="124" y="680" name="top"/>
  <anchor x="229" y="459" name="topright"/>
  <outline>
    <contour>
      <point x="176" y="-78" type="move"/>
    </contour>
    <contour>
      <point x="168" y="702" type="line"/>
      <point x="83" y="695" type="line"/>
      <point x="88" y="195" type="line"/>
      <point x="82" y="0" type="line"/>
      <point x="167" y="0" type="line"/>
      <point x="161" y="202" type="line"/>
    </contour>
    <contour>
      <point x="247" y="330" type="curve" smooth="yes"/>
      <point x="216" y="330"/>
      <point x="197" y="310"/>
      <point x="197" y="280" type="curve" smooth="yes"/>
      <point x="197" y="250"/>
      <point x="214" y="232"/>
      <point x="244" y="232" type="curve" smooth="yes"/>
      <point x="274" y="232"/>
      <point x="293" y="252"/>
      <point x="293" y="283" type="curve" smooth="yes"/>
      <point x="293" y="312"/>
      <point x="276" y="330"/>
    </contour>
  </outline>
</glyph>
<glyph name="Lslash" format="2">
  <advance width="431"/>
  <unicode hex="0141"/>
  <anchor x="249" y="0" name="bottom"/>
  <anchor x="149" y="641" name="top"/>
  <outline>
    <contour>
      <point x="314" y="463" type="line"/>
      <point x="9" y="303" type="line"/>
      <point x="25" y="252" type="line"/>
      <point x="35" y="247" type="line"/>
      <point x="340" y="408" type="line"/>
      <point x="324" y="459" type="line"/>
    </contour>
    <contour>
      <point x="190" y="641" type="line"/>
      <point x="102" y="641" type="line"/>
      <point x="108" y="193" type="line"/>
      <point x="102" y="0" type="line"/>
      <point x="189" y="0" type="line"/>
      <point x="185" y="200" type="line"/>
    </contour>
    <contour>
      <point x="423" y="72" type="line"/>
      <point x="156" y="72" type="line"/>
      <point x="153" y="7" type="line"/>
      <point x="156" y="0" type="line"/>
      <point x="422" y="0" type="line"/>
      <point x="429" y="64" type="line"/>
    </contour>
  </outline>
</glyph>
<glyph name="lslash" format="2">
  <advance width="263"/>
  <unicode hex="0142"/>
  <anchor x="131" y="0" name="bottom"/>
  <anchor x="131" y="680" name="top"/>
  <anchor x="236" y="459" name="topright"/>
  <outline>
    <contour>
      <point x="232" y="464" type="line"/>
      <point x="131" y="411" type="line"/>
      <point x="120" y="408" type="line"/>
      <point x="9" y="350" type="line"/>
      <point x="27" y="295" type="line"/>
      <point x="32" y="292" type="line"/>
      <point x="132" y="344" type="line"/>
      <point x="143" y="347" type="line"/>
      <point x="255" y="407" type="line"/>
      <point x="237" y="462" type="line"/>
    </contour>
    <contour>
      <point x="175" y="702" type="line"/>
      <point x="90" y="695" type="line"/>
      <point x="95" y="195" type="line"/>
      <point x="89" y="0" type="line"/>
      <point x="174" y="0" type="line"/>
      <point x="168" y="202" type="line"/>
    </contour>
  </outline>
</glyph>
<glyph name="Eng" format="2">
  <advance width="684"/>
  <unicode hex="014A"/>
  <outline>
    <contour>
      <point x="594" y="643" type="line"/>
      <point x="512" y="637" type="line"/>
      <point x="514" y="138" type="line"/>
      <point x="507" y="138" type="line"/>
      <point x="184" y="641" type="line"/>
      <point x="93" y="641" type="line"/>
      <point x="97" y="190" type="line"/>
      <point x="91" y="0" type="line"/>
      <point x="172" y="0" type="line"/>
      <point x="168" y="212" type="line"/>
      <point x="169" y="505" type="line"/>
      <point x="176" y="505" type="line"/>
      <point x="500" y="1" type="line"/>
      <point x="483" y="-39"/>
      <point x="445.232" y="-70"/>
      <point x="382" y="-104" type="curve"/>
      <point x="382" y="-114" type="line"/>
      <point x="415" y="-162" type="line"/>
      <point x="543" y="-102"/>
      <point x="589" y="-43"/>
      <point x="589" y="58" type="curve"/>
      <point x="587" y="189" type="line"/>
    </contour>
  </outline>
</glyph>
<glyph name="eng" format="2">
  <advance width="530"/>
  <unicode hex="014B"/>
  <outline>
    <contour>
      <point x="290" y="465" type="curve"/>
      <point x="251" y="454"/>
      <point x="207" y="430"/>
      <point x="166" y="395" type="curve"/>
      <point x="150" y="395" type="line"/>
      <point x="150" y="316" type="line"/>
      <point x="196" y="365"/>
      <point x="244" y="394"/>
      <point x="292" y="394" type="curve" smooth="yes"/>
      <point x="343" y="394"/>
      <point x="367" y="361"/>
      <point x="367" y="310" type="curve" smooth="yes"/>
      <point x="368" y="16" type="line" smooth="yes"/>
      <point x="368" y="-64"/>
      <point x="344" y="-105"/>
      <point x="273" y="-146" type="curve"/>
      <point x="273" y="-156" type="line"/>
      <point x="305" y="-194" type="line"/>
      <point x="409" y="-141"/>
      <point x="448" y="-85"/>
      <point x="448" y="20" type="curve"/>
      <point x="443" y="200" type="line"/>
      <point x="445" y="330" type="line" smooth="yes"/>
      <point x="446" y="416"/>
      <point x="393" y="465"/>
    </contour>
    <contour>
      <point x="160" y="461" type="line"/>
      <point x="79" y="453" type="line"/>
      <point x="83" y="194" type="line"/>
      <point x="78" y="0" type="line"/>
      <point x="163" y="0" type="line"/>
      <point x="158" y="201" type="line"/>
    </contour>
  </outline>
</glyph>
<glyph name="OE" format="2">
  <advance width="853"/>
  <unicode hex="0152"/>
  <anchor x="564" y="641" name="top"/>
  <outline>
    <contour>
      <point x="355" y="653" type="curve" smooth="yes"/>
      <point x="153" y="653"/>
      <point x="37" y="529"/>
      <point x="37" y="316" type="curve" smooth="yes"/>
      <point x="37" y="109"/>
      <point x="147" y="-12"/>
      <point x="339" y="-12" type="curve" smooth="yes"/>
      <point x="401" y="-12"/>
      <point x="466" y="1"/>
      <point x="525" y="0" type="curve" smooth="yes"/>
      <point x="823" y="0" type="line"/>
      <point x="830" y="67" type="line"/>
      <point x="824" y="75" type="line"/>
      <point x="667" y="70" type="line"/>
      <point x="543" y="72" type="line"/>
      <point x="542" y="196" type="line"/>
      <point x="542" y="292" type="line"/>
      <point x="651" y="294" type="line"/>
      <point x="768" y="291" type="line"/>
      <point x="775" y="358" type="line"/>
      <point x="770" y="365" type="line"/>
      <point x="657" y="362" type="line"/>
      <point x="544" y="364" type="line"/>
      <point x="545" y="570" type="line"/>
      <point x="679" y="570" type="line"/>
      <point x="823" y="566" type="line"/>
      <point x="830" y="633" type="line"/>
      <point x="824" y="641" type="line"/>
      <point x="525" y="641" type="line" smooth="yes"/>
      <point x="469" y="641"/>
      <point x="418" y="653"/>
    </contour>
    <contour>
      <point x="348" y="582" type="curve" smooth="yes"/>
      <point x="390" y="582"/>
      <point x="433" y="575"/>
      <point x="447" y="569" type="curve" smooth="yes"/>
      <point x="456" y="565"/>
      <point x="461" y="556"/>
      <point x="461" y="531" type="curve" smooth="yes"/>
      <point x="465" y="105" type="line" smooth="yes"/>
      <point x="465" y="84"/>
      <point x="458" y="75"/>
      <point x="440" y="69" type="curve" smooth="yes"/>
      <point x="425" y="64"/>
      <point x="384" y="59"/>
      <point x="347" y="59" type="curve" smooth="yes"/>
      <point x="197" y="59"/>
      <point x="125" y="147"/>
      <point x="125" y="321" type="curve" smooth="yes"/>
      <point x="125" y="494"/>
      <point x="200" y="582"/>
    </contour>
  </outline>
</glyph>
<glyph name="oe" format="2">
  <advance width="774"/>
  <unicode hex="0153"/>
  <anchor x="471" y="459" name="top"/>
  <outline>
    <contour>
      <point x="242" y="466" type="curve" smooth="yes"/>
      <point x="113" y="466"/>
      <point x="36" y="378"/>
      <point x="36" y="224" type="curve" smooth="yes"/>
      <point x="36" y="76"/>
      <point x="108" y="-8"/>
      <point x="232" y="-8" type="curve" smooth="yes"/>
      <point x="362" y="-8"/>
      <point x="434" y="81"/>
      <point x="434" y="235" type="curve" smooth="yes"/>
      <point x="434" y="384"/>
      <point x="366" y="466"/>
    </contour>
    <contour>
      <point x="246" y="407" type="curve" smooth="yes"/>
      <point x="326" y="407"/>
      <point x="369" y="343"/>
      <point x="369" y="216" type="curve" smooth="yes"/>
      <point x="369" y="106"/>
      <point x="326" y="52"/>
      <point x="244" y="52" type="curve" smooth="yes"/>
      <point x="164" y="52"/>
      <point x="121" y="114"/>
      <point x="121" y="243" type="curve" smooth="yes"/>
      <point x="121" y="350"/>
      <point x="164" y="407"/>
    </contour>
    <contour>
      <point x="578" y="466" type="curve" smooth="yes"/>
      <point x="450" y="466"/>
      <point x="370" y="375"/>
      <point x="370" y="226" type="curve" smooth="yes"/>
      <point x="370" y="82"/>
      <point x="442" y="-8"/>
      <point x="571" y="-8" type="curve" smooth="yes"/>
      <point x="618" y="-8"/>
      <point x="668" y="6"/>
      <point x="711" y="28" type="curve"/>
      <point x="720" y="100" type="line"/>
      <point x="711" y="105" type="line"/>
      <point x="668" y="76"/>
      <point x="618" y="60"/>
      <point x="576" y="60" type="curve" smooth="yes"/>
      <point x="481" y="60"/>
      <point x="436" y="124"/>
      <point x="436" y="231" type="curve" smooth="yes"/>
      <point x="436" y="342"/>
      <point x="487" y="406"/>
      <point x="571" y="406" type="curve" smooth="yes"/>
      <point x="624" y="406"/>
      <point x="661" y="375"/>
      <point x="661" y="305" type="curve"/>
      <point x="659" y="293" type="line"/>
      <point x="427" y="287" type="line"/>
      <point x="427" y="231" type="line"/>
      <point x="718" y="231" type="line"/>
      <point x="735" y="245" type="line"/>
      <point x="737" y="257"/>
      <point x="738" y="281"/>
      <point x="738" y="293" type="curve" smooth="yes"/>
      <point x="738" y="401"/>
      <point x="679" y="466"/>
    </contour>
  </outline>
</glyph>
<glyph name="tbar" format="2">
  <advance width="325"/>
  <unicode hex="0167"/>
  <anchor x="204" y="0" name="bottom"/>
  <anchor x="163" y="230" name="center"/>
  <anchor x="135" y="515" name="top"/>
  <anchor x="303" y="459" name="topright"/>
  <outline>
    <contour>
      <point x="292" y="291" type="line"/>
      <point x="30" y="291" type="line"/>
      <point x="26" y="244" type="line"/>
      <point x="32" y="238" type="line"/>
      <point x="295" y="238" type="line"/>
      <point x="299" y="285" type="line"/>
    </contour>
    <contour>
      <point x="199" y="-6" type="curve"/>
      <point x="234" y="-3"/>
      <point x="263" y="6"/>
      <point x="301" y="23" type="curve"/>
      <point x="309" y="79" type="line"/>
      <point x="300" y="85" type="line"/>
      <point x="271" y="70"/>
      <point x="249" y="65"/>
      <point x="228" y="65" type="curve" smooth="yes"/>
      <point x="185" y="65"/>
      <point x="165" y="82"/>
      <point x="166" y="135" type="curve" smooth="yes"/>
      <point x="174" y="553" type="line"/>
      <point x="166" y="560" type="line"/>
      <point x="92" y="528" type="line"/>
      <point x="94" y="194" type="line"/>
      <point x="90" y="127" type="line"/>
      <point x="90" y="48"/>
      <point x="121" y="10"/>
    </contour>
    <contour>
      <point x="30" y="401" type="line"/>
      <point x="305" y="401" type="line"/>
      <point x="310" y="451" type="line"/>
      <point x="306" y="457" type="line"/>
      <point x="31" y="457" type="line"/>
      <point x="26" y="407" type="line"/>
    </contour>
  </outline>
</glyph>
<glyph name="Schwa" format="2">
  <advance width="622"/>
  <unicode hex="018F"/>
  <anchor x="234" y="458" name="bottom"/>
  <anchor x="79" y="448" name="ogonek"/>
  <anchor x="243" y="0" name="top"/>
  <outline>
    <contour>
      <point x="299" y="647" type="curve" smooth="yes"/>
      <point x="230" y="647"/>
      <point x="164" y="630"/>
      <point x="102" y="598" type="curve"/>
      <point x="88" y="517" type="line"/>
      <point x="99" y="509" type="line"/>
      <point x="152" y="548"/>
      <point x="220" y="570"/>
      <point x="287" y="570" type="curve" smooth="yes"/>
      <point x="422" y="570"/>
      <point x="498" y="479"/>
      <point x="498" y="319" type="curve" smooth="yes"/>
      <point x="498" y="160"/>
      <point x="422" y="61"/>
      <point x="302" y="61" type="curve" smooth="yes"/>
      <point x="209" y="61"/>
      <point x="144" y="118"/>
      <point x="144" y="217" type="curve"/>
      <point x="146" y="239" type="line"/>
      <point x="515" y="242" type="line"/>
      <point x="517" y="310" type="line"/>
      <point x="74" y="308" type="line"/>
      <point x="61" y="295" type="line"/>
      <point x="58" y="272"/>
      <point x="55" y="250"/>
      <point x="55" y="227" type="curve" smooth="yes"/>
      <point x="55" y="80"/>
      <point x="157" y="-7"/>
      <point x="302" y="-7" type="curve" smooth="yes"/>
      <point x="476" y="-7"/>
      <point x="586" y="121"/>
      <point x="586" y="324" type="curve" smooth="yes"/>
      <point x="586" y="524"/>
      <point x="478" y="647"/>
    </contour>
  </outline>
</glyph>
<glyph name="florin" format="2">
  <advance width="281"/>
  <unicode hex="0192"/>
  <outline>
    <contour>
      <point x="303" y="616" type="curve" smooth="yes"/>
      <point x="202" y="616"/>
      <point x="137" y="561"/>
      <point x="125" y="461" type="curve" smooth="yes"/>
      <point x="114" y="375" type="line"/>
      <point x="43" y="375" type="line"/>
      <point x="38" y="333" type="line"/>
      <point x="43" y="328" type="line"/>
      <point x="108" y="328" type="line"/>
      <point x="90" y="179" type="line"/>
      <point x="73" y="46" type="line" smooth="yes"/>
      <point x="64" y="-25"/>
      <point x="43" y="-60"/>
      <point x="-15" y="-110" type="curve"/>
      <point x="-16" y="-117" type="line"/>
      <point x="18" y="-150" type="line"/>
      <point x="101" y="-89"/>
      <point x="130" y="-43"/>
      <point x="140" y="48" type="curve" smooth="yes"/>
      <point x="157" y="185" type="line"/>
      <point x="177" y="328" type="line"/>
      <point x="292" y="328" type="line"/>
      <point x="296" y="369" type="line"/>
      <point x="293" y="375" type="line"/>
      <point x="183" y="375" type="line"/>
      <point x="196" y="471" type="line" smooth="yes"/>
      <point x="204" y="528"/>
      <point x="232" y="562"/>
      <point x="293" y="562" type="curve" smooth="yes"/>
      <point x="310" y="562"/>
      <point x="332" y="559"/>
      <point x="357" y="549" type="curve"/>
      <point x="363" y="552" type="line"/>
      <point x="376" y="607" type="line"/>
      <point x="348" y="613"/>
      <point x="326" y="616"/>
    </contour>
  </outline>
</glyph>
<glyph name="Ohorn" format="2">
  <advance width="657"/>
  <unicode hex="01A0"/>
  <anchor x="322" y="641" name="top"/>
  <outline>
    <contour>
      <point x="313" y="-8" type="curve" smooth="yes"/>
      <point x="497" y="-8"/>
      <point x="602" y="115"/>
      <point x="602" y="331" type="curve" smooth="yes"/>
      <point x="602" y="453"/>
      <point x="568" y="540"/>
      <point x="505" y="590" type="curve"/>
      <point x="492" y="567" type="line"/>
      <point x="563" y="566"/>
      <point x="614" y="606"/>
      <point x="614" y="665" type="curve" smooth="yes"/>
      <point x="614" y="710"/>
      <point x="585" y="753"/>
      <point x="556" y="753" type="curve" smooth="yes"/>
      <point x="543" y="753"/>
      <point x="530" y="747"/>
      <point x="515" y="737" type="curve"/>
      <point x="514" y="728" type="line"/>
      <point x="535" y="708"/>
      <point x="548" y="683"/>
      <point x="548" y="660" type="curve" smooth="yes"/>
      <point x="548" y="633"/>
      <point x="528" y="616"/>
      <point x="497" y="616" type="curve" smooth="yes"/>
      <point x="458" y="616"/>
      <point x="411" y="648"/>
      <point x="318" y="648" type="curve" smooth="yes"/>
      <point x="147" y="648"/>
      <point x="40" y="527"/>
      <point x="40" y="314" type="curve" smooth="yes"/>
      <point x="40" y="109"/>
      <point x="138" y="-8"/>
    </contour>
    <contour>
      <point x="319" y="59" type="curve" smooth="yes"/>
      <point x="191" y="59"/>
      <point x="128" y="143"/>
      <point x="128" y="324" type="curve" smooth="yes"/>
      <point x="128" y="496"/>
      <point x="193" y="578"/>
      <point x="322" y="578" type="curve" smooth="yes"/>
      <point x="452" y="578"/>
      <point x="514" y="496"/>
      <point x="514" y="316" type="curve" smooth="yes"/>
      <point x="514" y="143"/>
      <point x="448" y="59"/>
    </contour>
  </outline>
</glyph>
<glyph name="ohorn" format="2">
  <advance width="523"/>
  <unicode hex="01A1"/>
  <anchor x="245" y="459" name="top"/>
  <outline>
    <contour>
      <point x="444" y="594" type="curve" smooth="yes"/>
      <point x="432" y="594"/>
      <point x="417" y="588"/>
      <point x="402" y="575" type="curve"/>
      <point x="399" y="567" type="line"/>
      <point x="421" y="546"/>
      <point x="432" y="524"/>
      <point x="432" y="502" type="curve" smooth="yes"/>
      <point x="432" y="469"/>
      <point x="409" y="448"/>
      <point x="372" y="448" type="curve" smooth="yes"/>
      <point x="335" y="448"/>
      <point x="304" y="467"/>
      <point x="250" y="467" type="curve" smooth="yes"/>
      <point x="117" y="467"/>
      <point x="41" y="378"/>
      <point x="41" y="224" type="curve" smooth="yes"/>
      <point x="41" y="75"/>
      <point x="112" y="-8"/>
      <point x="240" y="-8" type="curve" smooth="yes"/>
      <point x="373" y="-8"/>
      <point x="449" y="81"/>
      <point x="449" y="235" type="curve"/>
      <point x="449" y="320"/>
      <point x="424" y="384"/>
      <point x="376" y="424" type="curve"/>
      <point x="357" y="411" type="line"/>
      <point x="433" y="395"/>
      <point x="499" y="444"/>
      <point x="499" y="514" type="curve" smooth="yes"/>
      <point x="499" y="553"/>
      <point x="472" y="594"/>
    </contour>
    <contour>
      <point x="244" y="407" type="curve" smooth="yes"/>
      <point x="327" y="407"/>
      <point x="370" y="348"/>
      <point x="370" y="223" type="curve" smooth="yes"/>
      <point x="370" y="109"/>
      <point x="326" y="51"/>
      <point x="245" y="51" type="curve" smooth="yes"/>
      <point x="162" y="51"/>
      <point x="119" y="109"/>
      <point x="119" y="235" type="curve" smooth="yes"/>
      <point x="119" y="348"/>
      <point x="163" y="407"/>
    </contour>
  </outline>
</glyph>
<glyph name="uhorn" format="2">
  <advance width="536"/>
  <unicode hex="01B0"/>
  <anchor x="240" y="459" name="top"/>
  <outline>
    <contour>
      <point x="465" y="608" type="curve" smooth="yes"/>
      <point x="452" y="608"/>
      <point x="437" y="601"/>
      <point x="422" y="589" type="curve"/>
      <point x="420" y="581" type="line"/>
      <point x="442" y="559"/>
      <point x="452" y="536"/>
      <point x="452" y="516" type="curve" smooth="yes"/>
      <point x="452" y="485"/>
      <point x="429" y="466"/>
      <point x="377" y="458" type="curve" smooth="yes"/>
      <point x="345" y="453" type="line"/>
      <point x="345" y="123" type="line"/>
      <point x="306" y="86"/>
      <point x="264" y="65"/>
      <point x="224" y="65" type="curve" smooth="yes"/>
      <point x="174" y="65"/>
      <point x="149" y="98"/>
      <point x="150" y="149" type="curve" smooth="yes"/>
      <point x="156" y="461" type="line"/>
      <point x="70" y="453" type="line"/>
      <point x="74" y="259" type="line"/>
      <point x="72" y="129" type="line" smooth="yes"/>
      <point x="71" y="43"/>
      <point x="124" y="-6"/>
      <point x="226" y="-6" type="curve"/>
      <point x="265" y="5"/>
      <point x="306" y="27"/>
      <point x="346" y="62" type="curve"/>
      <point x="354" y="62" type="line"/>
      <point x="360" y="24"/>
      <point x="383" y="-2"/>
      <point x="425" y="-6" type="curve"/>
      <point x="445" y="-4"/>
      <point x="466" y="4"/>
      <point x="483" y="14" type="curve"/>
      <point x="491" y="62" type="line"/>
      <point x="483" y="69" type="line"/>
      <point x="467" y="65"/>
      <point x="458" y="64"/>
      <point x="449" y="64" type="curve" smooth="yes"/>
      <point x="428" y="64"/>
      <point x="420" y="73"/>
      <point x="420" y="100" type="curve" smooth="yes"/>
      <point x="425" y="425" type="line"/>
      <point x="485" y="443"/>
      <point x="519" y="479"/>
      <point x="519" y="529" type="curve" smooth="yes"/>
      <point x="519" y="574"/>
      <point x="489" y="608"/>
    </contour>
  </outline>
</glyph>
<glyph name="Ezh" format="2">
  <advance width="515"/>
  <unicode hex="01B7"/>
  <anchor x="244" y="0" name="bottom"/>
  <anchor x="239" y="641" name="top"/>
  <outline>
    <contour>
      <point x="220" y="-9" type="curve" smooth="yes"/>
      <point x="367" y="-9"/>
      <point x="462" y="68"/>
      <point x="462" y="184" type="curve" smooth="yes"/>
      <point x="462" y="294"/>
      <point x="373" y="355"/>
      <point x="221" y="355" type="curve"/>
      <point x="172" y="345" type="line"/>
      <point x="172" y="304" type="line"/>
      <point x="178" y="297" type="line"/>
      <point x="223" y="297" type="line" smooth="yes"/>
      <point x="319" y="297"/>
      <point x="376" y="257"/>
      <point x="376" y="187" type="curve" smooth="yes"/>
      <point x="376" y="115"/>
      <point x="312" y="63"/>
      <point x="219" y="63" type="curve" smooth="yes"/>
      <point x="161" y="63"/>
      <point x="103" y="81"/>
      <point x="64" y="111" type="curve"/>
      <point x="56" y="108" type="line"/>
      <point x="40" y="41" type="line"/>
      <point x="82" y="10"/>
      <point x="151" y="-9"/>
    </contour>
    <contour>
      <point x="172" y="345" type="line"/>
      <point x="261" y="345" type="line"/>
      <point x="446" y="578" type="line"/>
      <point x="446" y="642" type="line"/>
      <point x="396" y="641" type="line"/>
      <point x="146" y="641" type="line"/>
      <point x="51" y="642" type="line"/>
      <point x="43" y="569" type="line"/>
      <point x="48" y="563" type="line"/>
      <point x="148" y="571" type="line"/>
      <point x="387" y="571" type="line"/>
      <point x="376" y="601" type="line"/>
    </contour>
  </outline>
</glyph>
<glyph name="gstroke" format="2">
  <advance width="514"/>
  <unicode hex="01E5"/>
  <anchor x="251" y="449" name="top"/>
  <outline>
    <contour>
      <point x="228" y="-193" type="curve" smooth="yes"/>
      <point x="349" y="-193"/>
      <point x="444" y="-126"/>
      <point x="444" y="-40" type="curve" smooth="yes"/>
      <point x="444" y="108"/>
      <point x="150" y="47"/>
      <point x="150" y="120" type="curve" smooth="yes"/>
      <point x="150" y="134"/>
      <point x="158" y="144"/>
      <point x="183" y="163" type="curve"/>
      <point x="132" y="182" type="line"/>
      <point x="132" y="171" type="line"/>
      <point x="106" y="154"/>
      <point x="85" y="133"/>
      <point x="70" y="110" type="curve"/>
      <point x="69" y="-30"/>
      <point x="369" y="49"/>
      <point x="369" y="-56" type="curve" smooth="yes"/>
      <point x="369" y="-101"/>
      <point x="313" y="-134"/>
      <point x="238" y="-134" type="curve" smooth="yes"/>
      <point x="168" y="-134"/>
      <point x="132" y="-105"/>
      <point x="132" y="-69" type="curve" smooth="yes"/>
      <point x="132" y="-38"/>
      <point x="161" y="-11"/>
      <point x="210" y="19" type="curve"/>
      <point x="144" y="35" type="line"/>
      <point x="144" y="24" type="line"/>
      <point x="109" y="2"/>
      <point x="78" y="-23"/>
      <point x="57" y="-60" type="curve"/>
      <point x="57" y="-136"/>
      <point x="116" y="-193"/>
    </contour>
    <contour>
      <point x="20" y="-82" type="line"/>
      <point x="491" y="-82" type="line"/>
      <point x="493" y="-48" type="line"/>
      <point x="490" y="-44" type="line"/>
      <point x="19" y="-44" type="line"/>
      <point x="16" y="-77" type="line"/>
    </contour>
    <contour>
      <point x="237" y="150" type="curve" smooth="yes"/>
      <point x="350" y="150"/>
      <point x="419" y="213"/>
      <point x="419" y="310" type="curve" smooth="yes"/>
      <point x="419" y="403"/>
      <point x="356" y="464"/>
      <point x="246" y="464" type="curve" smooth="yes"/>
      <point x="138" y="464"/>
      <point x="66" y="405"/>
      <point x="66" y="303" type="curve" smooth="yes"/>
      <point x="66" y="209"/>
      <point x="127" y="150"/>
    </contour>
    <contour>
      <point x="241" y="207" type="curve" smooth="yes"/>
      <point x="177" y="207"/>
      <point x="142" y="245"/>
      <point x="142" y="307" type="curve" smooth="yes"/>
      <point x="142" y="372"/>
      <point x="180" y="407"/>
      <point x="245" y="407" type="curve" smooth="yes"/>
      <point x="310" y="407"/>
      <point x="343" y="372"/>
      <point x="343" y="311" type="curve" smooth="yes"/>
      <point x="343" y="246"/>
      <point x="306" y="207"/>
    </contour>
    <contour>
      <point x="393" y="379" type="line"/>
      <point x="401" y="396" type="line"/>
      <point x="432" y="402"/>
      <point x="463" y="408"/>
      <point x="491" y="417" type="curve"/>
      <point x="491" y="475" type="line"/>
      <point x="483" y="481" type="line"/>
      <point x="432" y="466"/>
      <point x="380" y="455"/>
      <point x="328" y="446" type="curve"/>
    </contour>
  </outline>
</glyph>
<glyph name="Aringacute" format="2">
  <advance width="580"/>
  <unicode hex="01FA"/>
  <anchor x="320" y="900" name="top"/>
  <outline>
    <contour>
      <point x="341" y="639" type="line"/>
      <point x="252" y="639" type="line"/>
      <point x="13" y="0" type="line" smooth="yes"/>
      <point x="99" y="0" type="line"/>
      <point x="115" y="69" type="line"/>
      <point x="291" y="548" type="line"/>
      <point x="298" y="548" type="line"/>
      <point x="456" y="65" type="line"/>
      <point x="471" y="0" type="line"/>
      <point x="559" y="0" type="line"/>
    </contour>
    <contour>
      <point x="445" y="242" type="line"/>
      <point x="287" y="239" type="line"/>
      <point x="129" y="242" type="line"/>
      <point x="129" y="168" type="line"/>
      <point x="280" y="171" type="line"/>
      <point x="445" y="168" type="line"/>
    </contour>
    <contour>
      <point x="296" y="294" type="move"/>
    </contour>
    <contour>
      <point x="298" y="768" type="curve" smooth="yes"/>
      <point x="244" y="768"/>
      <point x="212" y="735"/>
      <point x="212" y="684" type="curve" smooth="yes"/>
      <point x="212" y="630"/>
      <point x="247" y="600"/>
      <point x="295" y="600" type="curve" smooth="yes"/>
      <point x="344" y="600"/>
      <point x="382" y="631"/>
      <point x="382" y="686" type="curve" smooth="yes"/>
      <point x="382" y="733"/>
      <point x="353" y="768"/>
    </contour>
    <contour>
      <point x="296" y="727" type="curve" smooth="yes"/>
      <point x="327" y="727"/>
      <point x="342" y="709"/>
      <point x="342" y="683" type="curve" smooth="yes"/>
      <point x="342" y="654"/>
      <point x="323" y="640"/>
      <point x="297" y="640" type="curve" smooth="yes"/>
      <point x="270" y="640"/>
      <point x="252" y="655"/>
      <point x="252" y="685" type="curve" smooth="yes"/>
      <point x="252" y="711"/>
      <point x="267" y="727"/>
    </contour>
    <contour>
      <point x="411.549" y="899.833" type="line"/>
      <point x="338.98" y="871.14"/>
      <point x="272.634" y="849.538"/>
      <point x="204.314" y="828.258" type="curve"/>
      <point x="213" y="788.337" type="line"/>
      <point x="221.24" y="782.94" type="line"/>
      <point x="290.729" y="798.963"/>
      <point x="357.096" y="814.482"/>
      <point x="430.351" y="834.957" type="curve"/>
      <point x="434.761" y="843.357" type="line"/>
      <point x="421.097" y="896.249" type="line"/>
    </contour>
  </outline>
</glyph>
<glyph name="jdotless" format="2">
  <advance width="269"/>
  <unicode hex="0237"/>
  <anchor x="128" y="459" name="top"/>
  <outline>
    <contour>
      <point x="184" y="461" type="line"/>
      <point x="104" y="457" type="line"/>
      <point x="9" y="457" type="line"/>
      <point x="4" y="408" type="line"/>
      <point x="10" y="401" type="line"/>
      <point x="103" y="401" type="line"/>
      <point x="107" y="194" type="line"/>
      <point x="105" y="16" type="line"/>
      <point x="105" y="-64"/>
      <point x="81" y="-105"/>
      <point x="10" y="-146" type="curve"/>
      <point x="10" y="-156" type="line"/>
      <point x="42" y="-194" type="line"/>
      <point x="146" y="-141"/>
      <point x="185" y="-85"/>
      <point x="185" y="20" type="curve"/>
      <point x="180" y="201" type="line"/>
      <point x="187" y="459" type="line"/>
    </contour>
  </outline>
</glyph>
<glyph name="ezh" format="2">
  <advance width="397"/>
  <unicode hex="0292"/>
  <anchor x="199" y="0" name="bottom"/>
  <anchor x="184" y="459" name="top"/>
  <outline>
    <contour>
      <point x="114" y="-192" type="curve" smooth="yes"/>
      <point x="263" y="-192"/>
      <point x="360" y="-111"/>
      <point x="360" y="5" type="curve" smooth="yes"/>
      <point x="360" y="92"/>
      <point x="305" y="141"/>
      <point x="190" y="166" type="curve" smooth="yes"/>
      <point x="139" y="177" type="line"/>
      <point x="85" y="175" type="line"/>
      <point x="81" y="133" type="line"/>
      <point x="87" y="125" type="line"/>
      <point x="153" y="112" type="line" smooth="yes"/>
      <point x="236" y="96"/>
      <point x="280" y="60"/>
      <point x="280" y="-2" type="curve" smooth="yes"/>
      <point x="280" y="-73"/>
      <point x="222" y="-124"/>
      <point x="129" y="-124" type="curve" smooth="yes"/>
      <point x="88" y="-124"/>
      <point x="50" y="-114"/>
      <point x="21" y="-99" type="curve"/>
      <point x="14" y="-105" type="line"/>
      <point x="18" y="-183" type="line"/>
      <point x="47" y="-189"/>
      <point x="85" y="-192"/>
    </contour>
    <contour>
      <point x="156" y="159" type="line"/>
      <point x="351" y="408" type="line"/>
      <point x="348" y="460" type="line"/>
      <point x="308" y="459" type="line"/>
      <point x="100" y="459" type="line"/>
      <point x="14" y="461" type="line"/>
      <point x="7" y="399" type="line"/>
      <point x="13" y="392" type="line"/>
      <point x="97" y="401" type="line"/>
      <point x="261" y="401" type="line"/>
      <point x="85" y="175" type="line"/>
    </contour>
  </outline>
</glyph>
<glyph name="primemod" format="2">
  <advance width="170"/>
  <unicode hex="02B9"/>
  <outline>
    <contour>
      <point x="122" y="639" type="line"/>
      <point x="57" y="634" type="line"/>
      <point x="53" y="446" type="line"/>
      <point x="60" y="439" type="line"/>
      <point x="103" y="445" type="line"/>
      <point x="128" y="632" type="line"/>
    </contour>
  </outline>
</glyph>
<glyph name="commaturnedmod" format="2">
  <advance width="171"/>
  <unicode hex="02BB"/>
  <outline>
    <contour>
      <point x="87" y="430" type="curve"/>
      <point x="106" y="441"/>
      <point x="124" y="453"/>
      <point x="138" y="466" type="curve"/>
      <point x="138" y="474" type="line"/>
      <point x="110" y="486"/>
      <point x="99" y="505"/>
      <point x="99" y="531" type="curve" smooth="yes"/>
      <point x="99" y="556"/>
      <point x="112" y="584"/>
      <point x="141" y="615" type="curve"/>
      <point x="140" y="622" type="line"/>
      <point x="108" y="644" type="line"/>
      <point x="57" y="594"/>
      <point x="33" y="549"/>
      <point x="33" y="507" type="curve" smooth="yes"/>
      <point x="33" y="470"/>
      <point x="50" y="445"/>
    </contour>
  </outline>
</glyph>
<glyph name="ringhalfright" format="2">
  <advance width="311"/>
  <unicode hex="02BE"/>
  <outline>
    <contour>
      <point x="106" y="455" type="line"/>
      <point x="167" y="455"/>
      <point x="203" y="489"/>
      <point x="203" y="546" type="curve" smooth="yes"/>
      <point x="203" y="604"/>
      <point x="170" y="635"/>
      <point x="106" y="635" type="curve"/>
      <point x="106" y="589" type="line"/>
      <point x="142" y="589"/>
      <point x="159" y="574"/>
      <point x="159" y="544" type="curve" smooth="yes"/>
      <point x="159" y="514"/>
      <point x="140" y="498"/>
      <point x="106" y="500" type="curve"/>
    </contour>
  </outline>
</glyph>
<glyph name="ringhalfleft" format="2">
  <advance width="233"/>
  <unicode hex="02BF"/>
  <outline>
    <contour>
      <point x="165" y="635" type="line"/>
      <point x="104" y="635"/>
      <point x="68" y="600"/>
      <point x="68" y="543" type="curve" smooth="yes"/>
      <point x="68" y="485"/>
      <point x="101" y="455"/>
      <point x="165" y="455" type="curve"/>
      <point x="165" y="500" type="line"/>
      <point x="129" y="500"/>
      <point x="111" y="515"/>
      <point x="111" y="546" type="curve" smooth="yes"/>
      <point x="111" y="575"/>
      <point x="131" y="591"/>
      <point x="165" y="590" type="curve"/>
    </contour>
  </outline>
</glyph>
<glyph name="verticallinemod" format="2">
  <advance width="254"/>
  <unicode hex="02C8"/>
  <outline>
    <contour>
      <point x="82" y="467" type="line"/>
      <point x="145" y="467" type="line"/>
      <point x="145" y="641" type="line"/>
      <point x="82" y="641" type="line"/>
    </contour>
  </outline>
</glyph>
<glyph name="verticallinelowmod" format="2">
  <advance width="228"/>
  <unicode hex="02CC"/>
  <outline>
    <contour>
      <point x="82" y="-230" type="line"/>
      <point x="145" y="-230" type="line"/>
      <point x="145" y="-56" type="line"/>
      <point x="82" y="-56" type="line"/>
    </contour>
  </outline>
</glyph>
<glyph name="tilde" format="2">
  <advance width="389"/>
  <unicode hex="02DC"/>
  <anchor x="195" y="459" name="top"/>
  <outline>
    <contour>
      <point x="328" y="671" type="line"/>
      <point x="320" y="671" type="line"/>
      <point x="294" y="645"/>
      <point x="278" y="624"/>
      <point x="262" y="624" type="curve"/>
      <point x="237" y="624"/>
      <point x="150" y="655"/>
      <point x="107" y="660" type="curve"/>
      <point x="97" y="657" type="line"/>
      <point x="35" y="586" type="line"/>
      <point x="35" y="578" type="line"/>
      <point x="61" y="551" type="line"/>
      <point x="70" y="551" type="line"/>
      <point x="95" y="576"/>
      <point x="111" y="598"/>
      <point x="127" y="598" type="curve"/>
      <point x="153" y="598"/>
      <point x="240" y="566"/>
      <point x="282" y="561" type="curve"/>
      <point x="292" y="565" type="line"/>
      <point x="354" y="636" type="line"/>
      <point x="354" y="644" type="line"/>
    </contour>
  </outline>
</glyph>
<glyph name="gravecomb" format="2">
  <unicode hex="0300"/>
  <anchor x="195" y="459" name="_top"/>
  <anchor x="195" y="700" name="top"/>
  <outline>
    <contour>
      <point x="132" y="700" type="curve"/>
      <point x="123" y="699" type="line"/>
      <point x="91" y="654" type="line"/>
      <point x="93" y="645" type="line"/>
      <point x="153" y="599"/>
      <point x="208" y="559"/>
      <point x="266" y="519" type="curve"/>
      <point x="275" y="520" type="line"/>
      <point x="298" y="554" type="line"/>
      <point x="242" y="600"/>
      <point x="189" y="645"/>
    </contour>
  </outline>
</glyph>
<glyph name="acutecomb" format="2">
  <unicode hex="0301"/>
  <anchor x="168" y="459" name="_top"/>
  <anchor x="196" y="700" name="top"/>
  <outline>
    <contour>
      <point x="258" y="700" type="line"/>
      <point x="201" y="645"/>
      <point x="148" y="600"/>
      <point x="92" y="554" type="curve"/>
      <point x="115" y="520" type="line"/>
      <point x="124" y="519" type="line"/>
      <point x="182" y="559"/>
      <point x="237" y="599"/>
      <point x="297" y="645" type="curve"/>
      <point x="299" y="654" type="line"/>
      <point x="267" y="699" type="line"/>
    </contour>
  </outline>
</glyph>
<glyph name="tildecomb" format="2">
  <unicode hex="0303"/>
  <anchor x="194" y="459" name="_top"/>
  <anchor x="194" y="650" name="top"/>
  <outline>
    <contour>
      <point x="327" y="670" type="line"/>
      <point x="319" y="670" type="line"/>
      <point x="293" y="644"/>
      <point x="277" y="623"/>
      <point x="262" y="623" type="curve"/>
      <point x="236" y="623"/>
      <point x="149" y="655"/>
      <point x="107" y="660" type="curve"/>
      <point x="98" y="657" type="line"/>
      <point x="35" y="586" type="line"/>
      <point x="35" y="578" type="line"/>
      <point x="60" y="551" type="line"/>
      <point x="69" y="551" type="line"/>
      <point x="94" y="576"/>
      <point x="110" y="598"/>
      <point x="126" y="598" type="curve"/>
      <point x="152" y="598"/>
      <point x="238" y="566"/>
      <point x="281" y="561" type="curve"/>
      <point x="290" y="564" type="line"/>
      <point x="353" y="635" type="line"/>
      <point x="353" y="643" type="line"/>
    </contour>
  </outline>
</glyph>
<glyph name="macroncomb" format="2">
  <unicode hex="0304"/>
  <anchor x="195" y="459" name="_top"/>
  <anchor x="195" y="624" name="top"/>
  <outline>
    <contour>
      <point x="335" y="637" type="line"/>
      <point x="52" y="637" type="line"/>
      <point x="48" y="588" type="line"/>
      <point x="54" y="581" type="line"/>
      <point x="337" y="581" type="line"/>
      <point x="342" y="631" type="line"/>
    </contour>
  </outline>
</glyph>
<glyph name="dieresiscomb" format="2">
  <unicode hex="0308"/>
  <anchor x="194" y="459" name="_top"/>
  <anchor x="195" y="655" name="top"/>
  <outline>
    <contour>
      <point x="117.548" y="654.629" type="curve" smooth="yes"/>
      <point x="88.005" y="654.629"/>
      <point x="69.898" y="635.569"/>
      <point x="69.898" y="606.979" type="curve" smooth="yes"/>
      <point x="69.898" y="578.389"/>
      <point x="86.099" y="561.235"/>
      <point x="114.689" y="561.235" type="curve" smooth="yes"/>
      <point x="143.279" y="561.235"/>
      <point x="161.386" y="580.295"/>
      <point x="161.386" y="609.838" type="curve" smooth="yes"/>
      <point x="161.386" y="637.475"/>
      <point x="145.185" y="654.629"/>
    </contour>
    <contour>
      <point x="276.548" y="654.629" type="curve" smooth="yes"/>
      <point x="247.005" y="654.629"/>
      <point x="228.898" y="635.569"/>
      <point x="228.898" y="606.979" type="curve" smooth="yes"/>
      <point x="228.898" y="578.389"/>
      <point x="245.099" y="561.235"/>
      <point x="273.689" y="561.235" type="curve" smooth="yes"/>
      <point x="302.279" y="561.235"/>
      <point x="320.386" y="580.295"/>
      <point x="320.386" y="609.838" type="curve" smooth="yes"/>
      <point x="320.386" y="637.475"/>
      <point x="304.185" y="654.629"/>
    </contour>
  </outline>
</glyph>
<glyph name="hookabovecomb" format="2">
  <unicode hex="0309"/>
  <anchor x="132" y="511" name="_custom1"/>
  <anchor x="126" y="459" name="_top"/>
  <anchor x="135" y="720" name="top"/>
  <outline>
    <contour>
      <point x="132" y="510" type="line"/>
      <point x="170" y="531" type="line"/>
      <point x="150" y="567" type="line"/>
      <point x="188" y="598"/>
      <point x="203" y="619"/>
      <point x="203" y="644" type="curve" smooth="yes"/>
      <point x="203" y="679"/>
      <point x="174" y="704"/>
      <point x="134" y="704" type="curve" smooth="yes"/>
      <point x="103" y="704"/>
      <point x="70" y="688"/>
      <point x="42" y="660" type="curve"/>
      <point x="59" y="632" type="line"/>
      <point x="79" y="648"/>
      <point x="103" y="656"/>
      <point x="121" y="656" type="curve" smooth="yes"/>
      <point x="137" y="656"/>
      <point x="149" y="649"/>
      <point x="149" y="635" type="curve" smooth="yes"/>
      <point x="149" y="617"/>
      <point x="130" y="591"/>
      <point x="96" y="567" type="curve"/>
    </contour>
  </outline>
</glyph>
<glyph name="hungarumlautcomb" format="2">
  <unicode hex="030B"/>
  <anchor x="169" y="459" name="_top"/>
  <anchor x="186" y="702" name="top"/>
  <outline>
    <contour>
      <point x="175" y="544" type="curve"/>
      <point x="203" y="519" type="line"/>
      <point x="212" y="520" type="line"/>
      <point x="261" y="567"/>
      <point x="309" y="614"/>
      <point x="356" y="664" type="curve"/>
      <point x="356" y="672" type="line"/>
      <point x="317" y="701" type="line"/>
      <point x="309" y="700" type="line"/>
      <point x="266" y="647"/>
      <point x="222" y="595"/>
    </contour>
    <contour>
      <point x="32" y="544" type="curve"/>
      <point x="60" y="519" type="line"/>
      <point x="69" y="520" type="line"/>
      <point x="118" y="567"/>
      <point x="166" y="614"/>
      <point x="213" y="664" type="curve"/>
      <point x="213" y="672" type="line"/>
      <point x="174" y="701" type="line"/>
      <point x="166" y="700" type="line"/>
      <point x="123" y="647"/>
      <point x="79" y="595"/>
    </contour>
  </outline>
</glyph>
<glyph name="caroncomb" format="2">
  <unicode hex="030C"/>
  <anchor x="194" y="459" name="_top"/>
  <anchor x="195" y="691" name="top"/>
  <outline>
    <contour>
      <point x="307" y="691" type="line"/>
      <point x="297" y="691" type="line"/>
      <point x="259" y="655"/>
      <point x="225" y="622"/>
      <point x="194" y="588" type="curve"/>
      <point x="164" y="622"/>
      <point x="130" y="655"/>
      <point x="91" y="691" type="curve"/>
      <point x="82" y="691" type="line"/>
      <point x="59" y="657" type="line"/>
      <point x="101" y="616"/>
      <point x="142" y="570"/>
      <point x="182" y="522" type="curve"/>
      <point x="206" y="522" type="line"/>
      <point x="250" y="573"/>
      <point x="291" y="618"/>
      <point x="330" y="657" type="curve"/>
    </contour>
  </outline>
</glyph>
<glyph name="dblgravecomb" format="2">
  <unicode hex="030F"/>
  <anchor x="212" y="459" name="_top"/>
  <anchor x="194" y="702" name="top"/>
  <outline>
    <contour>
      <point x="214" y="544" type="curve"/>
      <point x="186" y="519" type="line"/>
      <point x="178" y="520" type="line"/>
      <point x="129" y="567"/>
      <point x="80" y="614"/>
      <point x="33" y="664" type="curve"/>
      <point x="34" y="672" type="line"/>
      <point x="73" y="701" type="line"/>
      <point x="81" y="700" type="line"/>
      <point x="124" y="647"/>
      <point x="168" y="595"/>
    </contour>
    <contour>
      <point x="357" y="544" type="curve"/>
      <point x="329" y="519" type="line"/>
      <point x="320" y="520" type="line"/>
      <point x="271" y="567"/>
      <point x="223" y="614"/>
      <point x="176" y="664" type="curve"/>
      <point x="176" y="672" type="line"/>
      <point x="215" y="701" type="line"/>
      <point x="223" y="700" type="line"/>
      <point x="266" y="647"/>
      <point x="310" y="595"/>
    </contour>
  </outline>
</glyph>
<glyph name="horncomb" format="2">
  <unicode hex="031B"/>
  <anchor x="113" y="459" name="_topright"/>
  <anchor x="113" y="459" name="topright"/>
  <outline>
    <contour>
      <point x="44" y="413" type="line"/>
      <point x="125" y="414"/>
      <point x="182" y="455"/>
      <point x="182" y="524" type="curve" smooth="yes"/>
      <point x="182" y="574"/>
      <point x="152" y="611"/>
      <point x="127" y="611" type="curve" smooth="yes"/>
      <point x="113" y="611"/>
      <point x="98" y="603"/>
      <point x="85" y="594" type="curve"/>
      <point x="82" y="586" type="line"/>
      <point x="103" y="566"/>
      <point x="115" y="541"/>
      <point x="115" y="518" type="curve" smooth="yes"/>
      <point x="115" y="480"/>
      <point x="82" y="459"/>
      <point x="44" y="459" type="curve"/>
    </contour>
  </outline>
</glyph>
<glyph name="cedillacomb" format="2">
  <unicode hex="0327"/>
  <anchor x="190" y="0" name="_bottom"/>
  <anchor x="196" y="-195" name="bottom"/>
  <outline>
    <contour>
      <point x="222" y="20" type="line"/>
      <point x="173" y="20" type="line"/>
      <point x="149" y="-72" type="line"/>
      <point x="197" y="-101" type="line" smooth="yes"/>
      <point x="209" y="-107"/>
      <point x="218" y="-113"/>
      <point x="218" y="-125" type="curve" smooth="yes"/>
      <point x="218" y="-142"/>
      <point x="205" y="-151"/>
      <point x="187" y="-151" type="curve" smooth="yes"/>
      <point x="163" y="-151"/>
      <point x="147" y="-139"/>
      <point x="130" y="-120" type="curve"/>
      <point x="125" y="-122" type="line"/>
      <point x="117" y="-164" type="line"/>
      <point x="133" y="-180"/>
      <point x="157" y="-195"/>
      <point x="191" y="-195" type="curve" smooth="yes"/>
      <point x="240" y="-195"/>
      <point x="274" y="-167"/>
      <point x="274" y="-127" type="curve" smooth="yes"/>
      <point x="274" y="-105"/>
      <point x="264" y="-87"/>
      <point x="235" y="-71" type="curve" smooth="yes"/>
      <point x="201" y="-51" type="line"/>
    </contour>
  </outline>
</glyph>
<glyph name="ogonekcomb" format="2">
  <unicode hex="0328"/>
  <anchor x="217" y="30" name="_ogonek"/>
  <outline>
    <contour>
      <point x="140" y="-197" type="curve" smooth="yes"/>
      <point x="176" y="-197"/>
      <point x="211" y="-179"/>
      <point x="241" y="-149" type="curve"/>
      <point x="227" y="-104" type="line"/>
      <point x="222" y="-103" type="line"/>
      <point x="196" y="-127"/>
      <point x="170" y="-141"/>
      <point x="148" y="-141" type="curve" smooth="yes"/>
      <point x="125" y="-141"/>
      <point x="113" y="-131"/>
      <point x="113" y="-110" type="curve" smooth="yes"/>
      <point x="113" y="-86"/>
      <point x="131" y="-65"/>
      <point x="217" y="30" type="curve"/>
      <point x="163" y="30" type="line"/>
      <point x="71" y="-52"/>
      <point x="53" y="-83"/>
      <point x="53" y="-122" type="curve" smooth="yes"/>
      <point x="53" y="-169"/>
      <point x="88" y="-197"/>
    </contour>
  </outline>
</glyph>
<glyph name="macronbelowcomb" format="2">
  <unicode hex="0331"/>
  <anchor x="172" y="0" name="_bottom"/>
  <anchor x="172" y="-161" name="bottom"/>
  <outline>
    <contour>
      <point x="290" y="-105" type="line"/>
      <point x="52" y="-105" type="line"/>
      <point x="48" y="-154" type="line"/>
      <point x="54" y="-161" type="line"/>
      <point x="292" y="-161" type="line"/>
      <point x="296" y="-111" type="line"/>
    </contour>
  </outline>
</glyph>
<glyph name="strokeshortcomb" format="2">
  <unicode hex="0335"/>
  <anchor x="246" y="256" name="_center"/>
  <outline>
    <contour>
      <point x="422" y="286" type="line"/>
      <point x="68" y="286" type="line"/>
      <point x="64" y="232" type="line"/>
      <point x="69" y="226" type="line"/>
      <point x="424" y="226" type="line"/>
      <point x="427" y="280" type="line"/>
    </contour>
  </outline>
</glyph>
<glyph name="ypogegrammenicomb" format="2">
  <unicode hex="0345"/>
  <anchor x="104" y="0" name="_bottom"/>
  <anchor x="107" y="-222" name="bottom"/>
  <outline>
    <contour>
      <point x="77" y="-221" type="line"/>
      <point x="141" y="-217" type="line"/>
      <point x="130" y="-42" type="line"/>
      <point x="123" y="-35" type="line"/>
      <point x="80" y="-39" type="line"/>
      <point x="71" y="-216" type="line"/>
    </contour>
  </outline>
</glyph>
<glyph name="tonos" format="2">
  <advance width="223"/>
  <unicode hex="0384"/>
  <anchor x="82" y="459" name="_top"/>
  <anchor x="138" y="687" name="_topleft"/>
  <outline>
    <contour>
      <point x="109" y="708" type="line"/>
      <point x="90" y="647"/>
      <point x="71" y="593"/>
      <point x="50" y="540" type="curve"/>
      <point x="93" y="522" type="line"/>
      <point x="102" y="526" type="line"/>
      <point x="126" y="578"/>
      <point x="149" y="627"/>
      <point x="174" y="682" type="curve"/>
      <point x="171" y="692" type="line"/>
      <point x="118" y="712" type="line"/>
    </contour>
  </outline>
</glyph>
<glyph name="dieresistonos" format="2">
  <advance width="355"/>
  <unicode hex="0385"/>
  <guideline x="320" y="504" angle="0"/>
  <guideline x="320" y="699" angle="0"/>
  <anchor x="175" y="459" name="top"/>
  <outline>
    <contour>
      <point x="165" y="542" type="line"/>
      <point x="173" y="546" type="line"/>
      <point x="243" y="678" type="line"/>
      <point x="240" y="688" type="line"/>
      <point x="190" y="707" type="line"/>
      <point x="182" y="702" type="line"/>
      <point x="162" y="642"/>
      <point x="151" y="609"/>
      <point x="131" y="555" type="curve"/>
    </contour>
    <contour>
      <point x="72" y="554" type="curve" smooth="yes"/>
      <point x="97" y="554"/>
      <point x="113" y="570"/>
      <point x="113" y="595" type="curve" smooth="yes"/>
      <point x="113" y="620"/>
      <point x="98" y="634"/>
      <point x="74" y="634" type="curve" smooth="yes"/>
      <point x="49" y="634"/>
      <point x="33" y="618"/>
      <point x="33" y="593" type="curve" smooth="yes"/>
      <point x="33" y="568"/>
      <point x="47" y="554"/>
    </contour>
    <contour>
      <point x="277" y="554" type="curve" smooth="yes"/>
      <point x="302" y="554"/>
      <point x="317" y="570"/>
      <point x="317" y="595" type="curve" smooth="yes"/>
      <point x="317" y="620"/>
      <point x="303" y="634"/>
      <point x="279" y="634" type="curve" smooth="yes"/>
      <point x="254" y="634"/>
      <point x="238" y="618"/>
      <point x="238" y="593" type="curve" smooth="yes"/>
      <point x="238" y="568"/>
      <point x="252" y="554"/>
    </contour>
  </outline>
</glyph>
<glyph name="Gamma" format="2">
  <advance width="437"/>
  <unicode hex="0393"/>
  <anchor x="179" y="312" name="center"/>
  <outline>
    <contour>
      <point x="179" y="641" type="line"/>
      <point x="92" y="641" type="line"/>
      <point x="96" y="193" type="line"/>
      <point x="92" y="0" type="line"/>
      <point x="178" y="0" type="line"/>
      <point x="175" y="200" type="line"/>
    </contour>
    <contour>
      <point x="420" y="641" type="line"/>
      <point x="146" y="641" type="line"/>
      <point x="144" y="579" type="line"/>
      <point x="146" y="572" type="line"/>
      <point x="283" y="572" type="line"/>
      <point x="419" y="570" type="line"/>
      <point x="426" y="633" type="line"/>
    </contour>
  </outline>
</glyph>
<glyph name="Delta" format="2">
  <advance width="578"/>
  <unicode hex="0394"/>
  <outline>
    <contour>
      <point x="28" y="0" type="line"/>
      <point x="548" y="0" type="line"/>
      <point x="548" y="57" type="line"/>
      <point x="347" y="641" type="line"/>
      <point x="247" y="641" type="line"/>
      <point x="28" y="57" type="line"/>
    </contour>
    <contour>
      <point x="109" y="68" type="line"/>
      <point x="291" y="554" type="line"/>
      <point x="299" y="554" type="line"/>
      <point x="463" y="68" type="line"/>
    </contour>
  </outline>
</glyph>
<glyph name="Theta" format="2">
  <advance width="646"/>
  <unicode hex="0398"/>
  <outline>
    <contour>
      <point x="203" y="283" type="line"/>
      <point x="446" y="292" type="line"/>
      <point x="450" y="348" type="line"/>
      <point x="443" y="354" type="line"/>
      <point x="200" y="346" type="line"/>
      <point x="197" y="290" type="line"/>
    </contour>
    <contour>
      <point x="332" y="648" type="curve"/>
      <point x="144" y="648"/>
      <point x="37" y="527"/>
      <point x="37" y="315" type="curve" smooth="yes"/>
      <point x="37" y="110"/>
      <point x="138" y="-8"/>
      <point x="315" y="-8" type="curve" smooth="yes"/>
      <point x="503" y="-8"/>
      <point x="610" y="116"/>
      <point x="610" y="333" type="curve" smooth="yes"/>
      <point x="610" y="533"/>
      <point x="509" y="648"/>
    </contour>
    <contour>
      <point x="325" y="578" type="curve" smooth="yes"/>
      <point x="459" y="578"/>
      <point x="524" y="493"/>
      <point x="524" y="317" type="curve" smooth="yes"/>
      <point x="524" y="146"/>
      <point x="455" y="59"/>
      <point x="321" y="59" type="curve" smooth="yes"/>
      <point x="188" y="59"/>
      <point x="123" y="145"/>
      <point x="123" y="325" type="curve" smooth="yes"/>
      <point x="123" y="493"/>
      <point x="191" y="578"/>
    </contour>
  </outline>
</glyph>
<glyph name="Lambda" format="2">
  <advance width="573"/>
  <unicode hex="039B"/>
  <outline>
    <contour>
      <point x="344" y="641" type="line"/>
      <point x="241" y="641" type="line"/>
      <point x="13" y="0" type="line"/>
      <point x="101" y="0" type="line"/>
      <point x="117" y="71" type="line"/>
      <point x="287" y="553" type="line"/>
      <point x="294" y="553" type="line"/>
      <point x="447" y="67" type="line"/>
      <point x="462" y="0" type="line"/>
      <point x="552" y="0" type="line"/>
    </contour>
  </outline>
</glyph>
<glyph name="Xi" format="2">
  <advance width="567"/>
  <unicode hex="039E"/>
  <outline>
    <contour>
      <point x="69" y="0" type="line"/>
      <point x="498" y="0" type="line"/>
      <point x="506" y="72" type="line"/>
      <point x="499" y="80" type="line"/>
      <point x="278" y="77" type="line"/>
      <point x="68" y="80" type="line"/>
      <point x="62" y="72" type="line"/>
    </contour>
    <contour>
      <point x="113" y="288" type="line"/>
      <point x="276" y="290" type="line"/>
      <point x="449" y="288" type="line"/>
      <point x="456" y="360" type="line"/>
      <point x="450" y="368" type="line"/>
      <point x="284" y="366" type="line"/>
      <point x="114" y="368" type="line"/>
      <point x="106" y="296" type="line"/>
    </contour>
    <contour>
      <point x="71" y="561" type="line"/>
      <point x="282" y="564" type="line"/>
      <point x="497" y="561" type="line"/>
      <point x="505" y="633" type="line"/>
      <point x="499" y="641" type="line"/>
      <point x="72" y="641" type="line"/>
      <point x="64" y="569" type="line"/>
    </contour>
  </outline>
</glyph>
<glyph name="Pi" format="2">
  <advance width="637"/>
  <unicode hex="03A0"/>
  <anchor x="459" y="0" name="bottomright"/>
  <outline>
    <contour>
      <point x="459" y="0" type="line"/>
      <point x="544" y="0" type="line"/>
      <point x="541" y="200" type="line"/>
      <point x="545" y="641" type="line"/>
      <point x="459" y="641" type="line"/>
      <point x="462" y="193" type="line"/>
    </contour>
    <contour>
      <point x="91" y="0" type="line"/>
      <point x="176" y="0" type="line"/>
      <point x="173" y="200" type="line"/>
      <point x="177" y="641" type="line"/>
      <point x="91" y="641" type="line"/>
      <point x="95" y="193" type="line"/>
    </contour>
    <contour>
      <point x="159" y="573" type="line"/>
      <point x="474" y="573" type="line"/>
      <point x="474" y="641" type="line"/>
      <point x="159" y="641" type="line"/>
    </contour>
  </outline>
</glyph>
<glyph name="Sigma" format="2">
  <advance width="520"/>
  <unicode hex="03A3"/>
  <outline>
    <contour>
      <point x="473" y="642" type="line"/>
      <point x="387" y="641" type="line"/>
      <point x="134" y="641" type="line"/>
      <point x="53" y="641" type="line"/>
      <point x="53" y="575" type="line"/>
      <point x="240" y="330" type="line"/>
      <point x="45" y="61" type="line"/>
      <point x="45" y="-1" type="line"/>
      <point x="127" y="0" type="line"/>
      <point x="363" y="0" type="line"/>
      <point x="473" y="-1" type="line"/>
      <point x="480" y="64" type="line"/>
      <point x="473" y="73" type="line"/>
      <point x="382" y="69" type="line"/>
      <point x="143" y="69" type="line"/>
      <point x="331" y="329" type="line"/>
      <point x="331" y="345" type="line"/>
      <point x="159" y="571" type="line"/>
      <point x="394" y="571" type="line"/>
      <point x="474" y="568" type="line"/>
      <point x="481" y="634" type="line"/>
    </contour>
  </outline>
</glyph>
<glyph name="Phi" format="2">
  <advance width="754"/>
  <unicode hex="03A6"/>
  <outline>
    <contour>
      <point x="369" y="67" type="curve" smooth="yes"/>
      <point x="587" y="67"/>
      <point x="711" y="153"/>
      <point x="711" y="339" type="curve" smooth="yes"/>
      <point x="711" y="511"/>
      <point x="599" y="595"/>
      <point x="384" y="595" type="curve" smooth="yes"/>
      <point x="163" y="595"/>
      <point x="42" y="512"/>
      <point x="42" y="327" type="curve" smooth="yes"/>
      <point x="42" y="154"/>
      <point x="157" y="67"/>
    </contour>
    <contour>
      <point x="375" y="132" type="curve" smooth="yes"/>
      <point x="208" y="132"/>
      <point x="123" y="192"/>
      <point x="123" y="330" type="curve" smooth="yes"/>
      <point x="123" y="468"/>
      <point x="210" y="530"/>
      <point x="378" y="530" type="curve" smooth="yes"/>
      <point x="549" y="530"/>
      <point x="629" y="470"/>
      <point x="629" y="334" type="curve" smooth="yes"/>
      <point x="629" y="195"/>
      <point x="541" y="132"/>
    </contour>
    <contour>
      <point x="337" y="-19" type="line"/>
      <point x="416" y="-19" type="line"/>
      <point x="414" y="202" type="line"/>
      <point x="417" y="664" type="line"/>
      <point x="337" y="664" type="line"/>
      <point x="340" y="195" type="line"/>
    </contour>
  </outline>
</glyph>
<glyph name="Psi" format="2">
  <advance width="724"/>
  <unicode hex="03A8"/>
  <outline>
    <contour>
      <point x="404" y="641" type="line"/>
      <point x="321" y="641" type="line"/>
      <point x="325" y="193" type="line"/>
      <point x="321" y="0" type="line"/>
      <point x="403" y="0" type="line"/>
      <point x="400" y="200" type="line"/>
    </contour>
    <contour>
      <point x="660" y="641" type="line"/>
      <point x="577" y="641" type="line"/>
      <point x="580" y="370" type="line" smooth="yes"/>
      <point x="581" y="250"/>
      <point x="510" y="189"/>
      <point x="362" y="189" type="curve" smooth="yes"/>
      <point x="214" y="189"/>
      <point x="144" y="250"/>
      <point x="145" y="370" type="curve" smooth="yes"/>
      <point x="147" y="641" type="line"/>
      <point x="64" y="641" type="line"/>
      <point x="65" y="455" type="line"/>
      <point x="65" y="359" type="line" smooth="yes"/>
      <point x="65" y="204"/>
      <point x="166" y="121"/>
      <point x="359" y="121" type="curve" smooth="yes"/>
      <point x="554" y="121"/>
      <point x="659" y="206"/>
      <point x="658" y="359" type="curve"/>
      <point x="658" y="447" type="line"/>
    </contour>
  </outline>
</glyph>
<glyph name="Omega" format="2">
  <advance width="706"/>
  <unicode hex="03A9"/>
  <anchor x="350" y="0" name="bottom"/>
  <anchor x="350" y="641" name="top"/>
  <anchor x="25" y="641" name="topleft"/>
  <outline>
    <contour>
      <point x="72" y="-3" type="line"/>
      <point x="144" y="0" type="line"/>
      <point x="259" y="0" type="line"/>
      <point x="299" y="-2" type="line"/>
      <point x="304" y="2" type="line"/>
      <point x="303" y="82" type="line"/>
      <point x="202" y="151"/>
      <point x="161" y="227"/>
      <point x="161" y="346" type="curve" smooth="yes"/>
      <point x="161" y="496"/>
      <point x="229" y="578"/>
      <point x="351" y="578" type="curve" smooth="yes"/>
      <point x="475" y="578"/>
      <point x="544" y="495"/>
      <point x="544" y="344" type="curve" smooth="yes"/>
      <point x="544" y="225"/>
      <point x="501" y="147"/>
      <point x="403" y="82" type="curve"/>
      <point x="402" y="2" type="line"/>
      <point x="406" y="-2" type="line"/>
      <point x="447" y="0" type="line"/>
      <point x="560" y="0" type="line"/>
      <point x="630" y="-1" type="line"/>
      <point x="639" y="64" type="line"/>
      <point x="634" y="71" type="line"/>
      <point x="562" y="66" type="line"/>
      <point x="477" y="66" type="line"/>
      <point x="477" y="71" type="line"/>
      <point x="582" y="140"/>
      <point x="631" y="232"/>
      <point x="631" y="358" type="curve" smooth="yes"/>
      <point x="631" y="538"/>
      <point x="527" y="648"/>
      <point x="356" y="648" type="curve" smooth="yes"/>
      <point x="182" y="648"/>
      <point x="75" y="536"/>
      <point x="75" y="350" type="curve" smooth="yes"/>
      <point x="75" y="223"/>
      <point x="124" y="135"/>
      <point x="229" y="71" type="curve"/>
      <point x="229" y="66" type="line"/>
      <point x="146" y="66" type="line"/>
      <point x="76" y="70" type="line"/>
      <point x="66" y="4" type="line"/>
    </contour>
  </outline>
</glyph>
<glyph name="alpha" format="2">
  <advance width="525"/>
  <unicode hex="03B1"/>
  <anchor x="251" y="0" name="bottom"/>
  <anchor x="259" y="459" name="top"/>
  <outline>
    <contour>
      <point x="228" y="-6" type="curve"/>
      <point x="273" y="9"/>
      <point x="311" y="30"/>
      <point x="342" y="56" type="curve"/>
      <point x="375" y="56" type="line"/>
      <point x="356" y="122" type="line"/>
      <point x="307" y="84"/>
      <point x="262" y="66"/>
      <point x="225" y="66" type="curve" smooth="yes"/>
      <point x="159" y="66"/>
      <point x="116" y="123"/>
      <point x="116" y="228" type="curve" smooth="yes"/>
      <point x="116" y="332"/>
      <point x="163" y="400"/>
      <point x="235" y="400" type="curve" smooth="yes"/>
      <point x="280" y="400"/>
      <point x="329" y="373"/>
      <point x="372" y="324" type="curve"/>
      <point x="363" y="417" type="line"/>
      <point x="346" y="414" type="line"/>
      <point x="313" y="441"/>
      <point x="280" y="458"/>
      <point x="245" y="466" type="curve"/>
      <point x="118" y="466"/>
      <point x="37" y="370"/>
      <point x="37" y="220" type="curve" smooth="yes"/>
      <point x="37" y="79"/>
      <point x="108" y="-6"/>
    </contour>
    <contour>
      <point x="428" y="-6" type="curve"/>
      <point x="448" y="-4"/>
      <point x="468" y="3"/>
      <point x="486" y="14" type="curve"/>
      <point x="494" y="62" type="line"/>
      <point x="486" y="69" type="line"/>
      <point x="479" y="65"/>
      <point x="471" y="64"/>
      <point x="459" y="64" type="curve" smooth="yes"/>
      <point x="432" y="64"/>
      <point x="424" y="72"/>
      <point x="424" y="100" type="curve" smooth="yes"/>
      <point x="429" y="463" type="line"/>
      <point x="350" y="456" type="line"/>
      <point x="350" y="232" type="line"/>
      <point x="345" y="94" type="line"/>
      <point x="350" y="30"/>
      <point x="374" y="1"/>
    </contour>
  </outline>
</glyph>
<glyph name="delta" format="2">
  <advance width="465"/>
  <unicode hex="03B4"/>
  <outline>
    <contour>
      <point x="231" y="-8" type="curve" smooth="yes"/>
      <point x="354" y="-8"/>
      <point x="434" y="79"/>
      <point x="434" y="209" type="curve" smooth="yes"/>
      <point x="434" y="446"/>
      <point x="166" y="465"/>
      <point x="166" y="580" type="curve" smooth="yes"/>
      <point x="166" y="621"/>
      <point x="196" y="645"/>
      <point x="246" y="645" type="curve" smooth="yes"/>
      <point x="282" y="645"/>
      <point x="324" y="633"/>
      <point x="366" y="611" type="curve"/>
      <point x="378" y="614" type="line"/>
      <point x="394" y="686" type="line"/>
      <point x="358" y="698"/>
      <point x="309" y="706"/>
      <point x="265" y="706" type="curve" smooth="yes"/>
      <point x="158" y="706"/>
      <point x="93" y="660"/>
      <point x="93" y="584" type="curve" smooth="yes"/>
      <point x="93" y="426"/>
      <point x="359" y="422"/>
      <point x="359" y="201" type="curve" smooth="yes"/>
      <point x="359" y="109"/>
      <point x="311" y="51"/>
      <point x="235" y="51" type="curve" smooth="yes"/>
      <point x="157" y="51"/>
      <point x="111" y="111"/>
      <point x="111" y="214" type="curve" smooth="yes"/>
      <point x="111" y="313"/>
      <point x="153" y="370"/>
      <point x="258" y="416" type="curve"/>
      <point x="199" y="463" type="line"/>
      <point x="190" y="437" type="line"/>
      <point x="81" y="387"/>
      <point x="33" y="317"/>
      <point x="33" y="210" type="curve" smooth="yes"/>
      <point x="33" y="76"/>
      <point x="110" y="-8"/>
    </contour>
  </outline>
</glyph>
<glyph name="zeta" format="2">
  <advance width="371"/>
  <unicode hex="03B6"/>
  <outline>
    <contour>
      <point x="204" y="-170" type="line"/>
      <point x="326" y="-122"/>
      <point x="376" y="-77"/>
      <point x="376" y="-8" type="curve" smooth="yes"/>
      <point x="376" y="36"/>
      <point x="348" y="69"/>
      <point x="290" y="81" type="curve" smooth="yes"/>
      <point x="204" y="99" type="line" smooth="yes"/>
      <point x="134" y="114"/>
      <point x="106" y="146"/>
      <point x="106" y="205" type="curve" smooth="yes"/>
      <point x="106" y="285"/>
      <point x="185" y="402"/>
      <point x="394" y="644" type="curve"/>
      <point x="394" y="701" type="line"/>
      <point x="345" y="700" type="line"/>
      <point x="155" y="700" type="line"/>
      <point x="66" y="701" type="line"/>
      <point x="59" y="642" type="line"/>
      <point x="64" y="637" type="line"/>
      <point x="140" y="641" type="line"/>
      <point x="303" y="641" type="line"/>
      <point x="101" y="416"/>
      <point x="27" y="291"/>
      <point x="27" y="193" type="curve" smooth="yes"/>
      <point x="27" y="102"/>
      <point x="75" y="51"/>
      <point x="176" y="30" type="curve" smooth="yes"/>
      <point x="264" y="12" type="line" smooth="yes"/>
      <point x="290" y="7"/>
      <point x="303" y="-5"/>
      <point x="303" y="-20" type="curve" smooth="yes"/>
      <point x="303" y="-49"/>
      <point x="273" y="-69"/>
      <point x="177" y="-108" type="curve"/>
      <point x="173" y="-118" type="line"/>
    </contour>
  </outline>
</glyph>
<glyph name="eta" format="2">
  <advance width="519"/>
  <unicode hex="03B7"/>
  <anchor x="121" y="0" name="bottom"/>
  <anchor x="260" y="459" name="top"/>
  <outline>
    <contour>
      <point x="291" y="465" type="curve"/>
      <point x="252" y="454"/>
      <point x="208" y="430"/>
      <point x="167" y="395" type="curve"/>
      <point x="151" y="395" type="line"/>
      <point x="151" y="316" type="line"/>
      <point x="197" y="365"/>
      <point x="245" y="394"/>
      <point x="293" y="394" type="curve" smooth="yes"/>
      <point x="344" y="394"/>
      <point x="369" y="361"/>
      <point x="368" y="310" type="curve" smooth="yes"/>
      <point x="362" y="-185" type="line"/>
      <point x="448" y="-185" type="line"/>
      <point x="444" y="200" type="line"/>
      <point x="446" y="330" type="line"/>
      <point x="447" y="416"/>
      <point x="394" y="465"/>
    </contour>
    <contour>
      <point x="161" y="461" type="line"/>
      <point x="80" y="453" type="line"/>
      <point x="84" y="194" type="line"/>
      <point x="79" y="0" type="line"/>
      <point x="164" y="0" type="line"/>
      <point x="159" y="201" type="line"/>
    </contour>
  </outline>
</glyph>
<glyph name="iota" format="2">
  <advance width="253"/>
  <unicode hex="03B9"/>
  <anchor x="127" y="459" name="top"/>
  <outline>
    <contour>
      <point x="158" y="-5" type="curve"/>
      <point x="178" y="-3"/>
      <point x="198" y="4"/>
      <point x="215" y="14" type="curve"/>
      <point x="223" y="62" type="line"/>
      <point x="215" y="69" type="line"/>
      <point x="199" y="65"/>
      <point x="191" y="64"/>
      <point x="182" y="64" type="curve" smooth="yes"/>
      <point x="161" y="64"/>
      <point x="154" y="73"/>
      <point x="153" y="100" type="curve"/>
      <point x="157" y="461" type="line"/>
      <point x="74" y="453" type="line"/>
      <point x="77" y="232" type="line"/>
      <point x="74" y="90" type="line"/>
      <point x="74" y="28"/>
      <point x="107" y="-5"/>
    </contour>
  </outline>
</glyph>
<glyph name="nu" format="2">
  <advance width="421"/>
  <unicode hex="03BD"/>
  <outline>
    <contour>
      <point x="394" y="459" type="curve"/>
      <point x="327" y="460" type="line"/>
      <point x="323" y="455" type="line"/>
      <point x="329" y="399"/>
      <point x="317" y="342"/>
      <point x="267" y="220" type="curve" smooth="yes"/>
      <point x="211" y="84" type="line"/>
      <point x="204" y="84" type="line"/>
      <point x="109" y="399" type="line"/>
      <point x="96" y="462" type="line"/>
      <point x="17" y="457" type="line"/>
      <point x="158" y="0" type="line"/>
      <point x="249" y="0" type="line"/>
      <point x="327" y="194" type="line" smooth="yes"/>
      <point x="388" y="347"/>
      <point x="401" y="397"/>
    </contour>
  </outline>
</glyph>
<glyph name="xi" format="2">
  <advance width="406"/>
  <unicode hex="03BE"/>
  <outline>
    <contour>
      <point x="207" y="-181" type="line"/>
      <point x="328" y="-136"/>
      <point x="387" y="-86"/>
      <point x="387" y="-17" type="curve" smooth="yes"/>
      <point x="387" y="29"/>
      <point x="360" y="61"/>
      <point x="303" y="75" type="curve" smooth="yes"/>
      <point x="224" y="96" type="line" smooth="yes"/>
      <point x="152" y="116"/>
      <point x="115" y="157"/>
      <point x="115" y="217" type="curve" smooth="yes"/>
      <point x="115" y="290"/>
      <point x="174" y="337"/>
      <point x="275" y="337" type="curve" smooth="yes"/>
      <point x="355" y="337" type="line"/>
      <point x="361" y="391" type="line"/>
      <point x="357" y="399" type="line"/>
      <point x="259" y="399" type="line"/>
      <point x="178" y="427"/>
      <point x="139" y="465"/>
      <point x="139" y="537" type="curve" smooth="yes"/>
      <point x="139" y="595"/>
      <point x="192" y="632"/>
      <point x="264" y="632" type="curve" smooth="yes"/>
      <point x="300" y="632"/>
      <point x="339" y="621"/>
      <point x="381" y="593" type="curve"/>
      <point x="394" y="596" type="line"/>
      <point x="406" y="676" type="line"/>
      <point x="366" y="695"/>
      <point x="320" y="703"/>
      <point x="272" y="703" type="curve" smooth="yes"/>
      <point x="140" y="703"/>
      <point x="57" y="637"/>
      <point x="57" y="530" type="curve" smooth="yes"/>
      <point x="57" y="440"/>
      <point x="125" y="380"/>
      <point x="252" y="359" type="curve"/>
      <point x="275" y="383" type="line"/>
      <point x="122" y="381"/>
      <point x="37" y="318"/>
      <point x="37" y="206" type="curve" smooth="yes"/>
      <point x="37" y="109"/>
      <point x="87" y="54"/>
      <point x="203" y="25" type="curve" smooth="yes"/>
      <point x="274" y="7" type="line" smooth="yes"/>
      <point x="303" y="0"/>
      <point x="313" y="-10"/>
      <point x="313" y="-27" type="curve" smooth="yes"/>
      <point x="313" y="-57"/>
      <point x="277" y="-82"/>
      <point x="182" y="-119" type="curve"/>
      <point x="177" y="-129" type="line"/>
    </contour>
  </outline>
</glyph>
<glyph name="omicron" format="2">
  <advance width="483"/>
  <unicode hex="03BF"/>
  <anchor x="242" y="459" name="top"/>
  <outline>
    <contour>
      <point x="247" y="467" type="curve" smooth="yes"/>
      <point x="114" y="467"/>
      <point x="38" y="378"/>
      <point x="38" y="222" type="curve" smooth="yes"/>
      <point x="38" y="76"/>
      <point x="109" y="-8"/>
      <point x="236" y="-8" type="curve" smooth="yes"/>
      <point x="369" y="-8"/>
      <point x="445" y="81"/>
      <point x="445" y="236" type="curve" smooth="yes"/>
      <point x="445" y="383"/>
      <point x="373" y="467"/>
    </contour>
    <contour>
      <point x="242" y="407" type="curve" smooth="yes"/>
      <point x="323" y="407"/>
      <point x="366" y="347"/>
      <point x="366" y="223" type="curve" smooth="yes"/>
      <point x="366" y="109"/>
      <point x="323" y="51"/>
      <point x="241" y="51" type="curve" smooth="yes"/>
      <point x="159" y="51"/>
      <point x="116" y="110"/>
      <point x="116" y="235" type="curve" smooth="yes"/>
      <point x="116" y="349"/>
      <point x="160" y="407"/>
    </contour>
  </outline>
</glyph>
<glyph name="pi" format="2">
  <advance width="606"/>
  <unicode hex="03C0"/>
  <outline>
    <contour>
      <point x="490" y="-5" type="curve"/>
      <point x="512" y="0"/>
      <point x="534" y="9"/>
      <point x="554" y="20" type="curve"/>
      <point x="563" y="76" type="line"/>
      <point x="555" y="83" type="line"/>
      <point x="533" y="72"/>
      <point x="513" y="66"/>
      <point x="496" y="66" type="curve" smooth="yes"/>
      <point x="472" y="66"/>
      <point x="456" y="82"/>
      <point x="456" y="123" type="curve" smooth="yes"/>
      <point x="460" y="453" type="line"/>
      <point x="379" y="451" type="line"/>
      <point x="383" y="207" type="line"/>
      <point x="379" y="99" type="line"/>
      <point x="379" y="32"/>
      <point x="411" y="-5"/>
    </contour>
    <contour>
      <point x="127" y="0" type="line"/>
      <point x="208" y="0" type="line"/>
      <point x="207" y="453" type="line"/>
      <point x="130" y="453" type="line"/>
      <point x="132" y="194" type="line"/>
    </contour>
    <contour>
      <point x="21" y="363" type="line"/>
      <point x="59" y="387"/>
      <point x="96" y="398"/>
      <point x="138" y="398" type="curve" smooth="yes"/>
      <point x="571" y="398" type="line"/>
      <point x="577" y="453" type="line"/>
      <point x="573" y="459" type="line"/>
      <point x="128" y="459" type="line" smooth="yes"/>
      <point x="72" y="459"/>
      <point x="32" y="444"/>
      <point x="-5" y="409" type="curve"/>
      <point x="-6" y="399" type="line"/>
      <point x="12" y="365" type="line"/>
    </contour>
  </outline>
</glyph>
<glyph name="rho" format="2">
  <advance width="494"/>
  <unicode hex="03C1"/>
  <anchor x="266" y="459" name="top"/>
  <outline>
    <contour>
      <point x="61" y="-185" type="line"/>
      <point x="144" y="-185" type="line"/>
      <point x="141" y="246" type="line" smooth="yes"/>
      <point x="141" y="347"/>
      <point x="184" y="400"/>
      <point x="258" y="400" type="curve" smooth="yes"/>
      <point x="335" y="400"/>
      <point x="376" y="343"/>
      <point x="376" y="233" type="curve" smooth="yes"/>
      <point x="376" y="114"/>
      <point x="322" y="53"/>
      <point x="244" y="53" type="curve" smooth="yes"/>
      <point x="197" y="53"/>
      <point x="141" y="75"/>
      <point x="83" y="121" type="curve"/>
      <point x="79" y="22" type="line"/>
      <point x="121" y="3"/>
      <point x="175" y="-8"/>
      <point x="226" y="-8" type="curve" smooth="yes"/>
      <point x="375" y="-8"/>
      <point x="455" y="80"/>
      <point x="455" y="243" type="curve" smooth="yes"/>
      <point x="455" y="388"/>
      <point x="387" y="465"/>
      <point x="267" y="465" type="curve" smooth="yes"/>
      <point x="136" y="465"/>
      <point x="64" y="381"/>
      <point x="64" y="225" type="curve" smooth="yes"/>
    </contour>
  </outline>
</glyph>
<glyph name="sigmafinal" format="2">
  <advance width="389"/>
  <unicode hex="03C2"/>
  <outline>
    <contour>
      <point x="191" y="-181" type="line"/>
      <point x="305" y="-132"/>
      <point x="357" y="-80"/>
      <point x="357" y="-15" type="curve" smooth="yes"/>
      <point x="357" y="32"/>
      <point x="328" y="62"/>
      <point x="272" y="78" type="curve" smooth="yes"/>
      <point x="211" y="96" type="line" smooth="yes"/>
      <point x="143" y="116"/>
      <point x="113" y="155"/>
      <point x="113" y="237" type="curve" smooth="yes"/>
      <point x="113" y="337"/>
      <point x="160" y="397"/>
      <point x="236" y="397" type="curve" smooth="yes"/>
      <point x="270" y="397"/>
      <point x="306" y="385"/>
      <point x="336" y="364" type="curve"/>
      <point x="345" y="367" type="line"/>
      <point x="361" y="431" type="line"/>
      <point x="322" y="454"/>
      <point x="275" y="467"/>
      <point x="231" y="467" type="curve" smooth="yes"/>
      <point x="113" y="467"/>
      <point x="32" y="378"/>
      <point x="32" y="235" type="curve" smooth="yes"/>
      <point x="32" y="122"/>
      <point x="81" y="61"/>
      <point x="184" y="28" type="curve" smooth="yes"/>
      <point x="247" y="8" type="line" smooth="yes"/>
      <point x="270" y="1"/>
      <point x="284" y="-12"/>
      <point x="284" y="-27" type="curve" smooth="yes"/>
      <point x="284" y="-58"/>
      <point x="248" y="-85"/>
      <point x="164" y="-119" type="curve"/>
      <point x="159" y="-129" type="line"/>
    </contour>
  </outline>
</glyph>
<glyph name="sigma" format="2">
  <advance width="517"/>
  <unicode hex="03C3"/>
  <outline>
    <contour>
      <point x="229" y="-8" type="curve" smooth="yes"/>
      <point x="358" y="-8"/>
      <point x="435" y="77"/>
      <point x="435" y="219" type="curve" smooth="yes"/>
      <point x="435" y="281"/>
      <point x="417" y="337"/>
      <point x="378" y="391" type="curve"/>
      <point x="387" y="421" type="line"/>
      <point x="299" y="434" type="line"/>
      <point x="337" y="369"/>
      <point x="358" y="291"/>
      <point x="358" y="218" type="curve" smooth="yes"/>
      <point x="358" y="110"/>
      <point x="314" y="51"/>
      <point x="235" y="51" type="curve" smooth="yes"/>
      <point x="158" y="51"/>
      <point x="117" y="112"/>
      <point x="117" y="232" type="curve" smooth="yes"/>
      <point x="117" y="348"/>
      <point x="161" y="397"/>
      <point x="260" y="397" type="curve" smooth="yes"/>
      <point x="492" y="397" type="line"/>
      <point x="498" y="453" type="line"/>
      <point x="494" y="459" type="line"/>
      <point x="266" y="459" type="line" smooth="yes"/>
      <point x="114" y="459"/>
      <point x="38" y="382"/>
      <point x="38" y="227" type="curve" smooth="yes"/>
      <point x="38" y="76"/>
      <point x="107" y="-8"/>
    </contour>
  </outline>
</glyph>
<glyph name="tau" format="2">
  <advance width="386"/>
  <unicode hex="03C4"/>
  <outline>
    <contour>
      <point x="253" y="-5" type="curve"/>
      <point x="279" y="0"/>
      <point x="302" y="9"/>
      <point x="325" y="20" type="curve"/>
      <point x="334" y="76" type="line"/>
      <point x="326" y="83" type="line"/>
      <point x="301" y="72"/>
      <point x="281" y="66"/>
      <point x="264" y="66" type="curve" smooth="yes"/>
      <point x="234" y="66"/>
      <point x="219" y="85"/>
      <point x="219" y="123" type="curve" smooth="yes"/>
      <point x="223" y="453" type="line"/>
      <point x="142" y="451" type="line"/>
      <point x="146" y="207" type="line"/>
      <point x="142" y="99" type="line"/>
      <point x="142" y="32"/>
      <point x="174" y="-5"/>
    </contour>
    <contour>
      <point x="21" y="363" type="line"/>
      <point x="59" y="387"/>
      <point x="96" y="398"/>
      <point x="138" y="398" type="curve" smooth="yes"/>
      <point x="360" y="398" type="line"/>
      <point x="366" y="453" type="line"/>
      <point x="362" y="459" type="line"/>
      <point x="128" y="459" type="line" smooth="yes"/>
      <point x="72" y="459"/>
      <point x="32" y="444"/>
      <point x="-5" y="409" type="curve"/>
      <point x="-6" y="399" type="line"/>
      <point x="12" y="365" type="line"/>
    </contour>
  </outline>
</glyph>
<glyph name="upsilon" format="2">
  <advance width="493"/>
  <unicode hex="03C5"/>
  <anchor x="247" y="459" name="top"/>
  <outline>
    <contour>
      <point x="244" y="-6" type="curve" smooth="yes"/>
      <point x="361" y="-6"/>
      <point x="427" y="63"/>
      <point x="426" y="171" type="curve"/>
      <point x="430" y="461" type="line"/>
      <point x="350" y="454" type="line"/>
      <point x="351" y="181" type="line" smooth="yes"/>
      <point x="351" y="103"/>
      <point x="316" y="59"/>
      <point x="246" y="59" type="curve" smooth="yes"/>
      <point x="176" y="59"/>
      <point x="140" y="104"/>
      <point x="141" y="181" type="curve" smooth="yes"/>
      <point x="145" y="461" type="line"/>
      <point x="65" y="454" type="line"/>
      <point x="66" y="237" type="line"/>
      <point x="65" y="171" type="line" smooth="yes"/>
      <point x="63" y="61"/>
      <point x="127" y="-6"/>
    </contour>
  </outline>
</glyph>
<glyph name="chi" format="2">
  <advance width="442"/>
  <unicode hex="03C7"/>
  <outline>
    <contour>
      <point x="408" y="-191" type="curve"/>
      <point x="420" y="-188"/>
      <point x="433" y="-184"/>
      <point x="445" y="-179" type="curve"/>
      <point x="454" y="-125" type="line"/>
      <point x="447" y="-119" type="line"/>
      <point x="418" y="-127"/>
      <point x="407" y="-122"/>
      <point x="396" y="-99" type="curve" smooth="yes"/>
      <point x="278" y="141" type="line"/>
      <point x="432" y="459" type="line"/>
      <point x="353" y="459" type="line"/>
      <point x="333" y="409" type="line"/>
      <point x="216" y="151" type="line"/>
      <point x="209" y="128" type="line"/>
      <point x="331" y="-133" type="line" smooth="yes"/>
      <point x="349" y="-172"/>
      <point x="365" y="-191"/>
    </contour>
    <contour>
      <point x="17" y="-185" type="line"/>
      <point x="97" y="-185" type="line"/>
      <point x="116" y="-135" type="line"/>
      <point x="239" y="134" type="line"/>
      <point x="246" y="157" type="line"/>
      <point x="139" y="387" type="line" smooth="yes"/>
      <point x="108" y="453"/>
      <point x="81" y="469"/>
      <point x="12" y="459" type="curve"/>
      <point x="2" y="404" type="line"/>
      <point x="6" y="396" type="line"/>
      <point x="39" y="401"/>
      <point x="49" y="400"/>
      <point x="74" y="351" type="curve" smooth="yes"/>
      <point x="177" y="144" type="line"/>
    </contour>
  </outline>
</glyph>
<glyph name="psi" format="2">
  <advance width="643"/>
  <unicode hex="03C8"/>
  <outline>
    <contour>
      <point x="289" y="-4" type="curve"/>
      <point x="292" y="58" type="line"/>
      <point x="184" y="58"/>
      <point x="131" y="105"/>
      <point x="132" y="190" type="curve" smooth="yes"/>
      <point x="136" y="460" type="line"/>
      <point x="61" y="453" type="line"/>
      <point x="62" y="237" type="line"/>
      <point x="61" y="180" type="line" smooth="yes"/>
      <point x="58" y="65"/>
      <point x="139" y="-4"/>
    </contour>
    <contour>
      <point x="281" y="-185" type="line"/>
      <point x="359" y="-185" type="line"/>
      <point x="357" y="201" type="line"/>
      <point x="360" y="548" type="line"/>
      <point x="282" y="542" type="line"/>
      <point x="285" y="194" type="line"/>
    </contour>
    <contour>
      <point x="349" y="-4" type="line"/>
      <point x="498" y="-4"/>
      <point x="580" y="66"/>
      <point x="579" y="180" type="curve"/>
      <point x="582" y="460" type="line"/>
      <point x="508" y="453" type="line"/>
      <point x="508" y="190" type="line" smooth="yes"/>
      <point x="508" y="105"/>
      <point x="456" y="58"/>
      <point x="351" y="58" type="curve"/>
    </contour>
  </outline>
</glyph>
<glyph name="omega" format="2">
  <advance width="654"/>
  <unicode hex="03C9"/>
  <anchor x="331" y="0" name="bottom"/>
  <anchor x="330" y="448" name="top"/>
  <outline>
    <contour>
      <point x="193" y="-10" type="curve" smooth="yes"/>
      <point x="268" y="-10"/>
      <point x="315" y="35"/>
      <point x="333" y="135" type="curve"/>
      <point x="313" y="135" type="line"/>
      <point x="331" y="36"/>
      <point x="377" y="-10"/>
      <point x="455" y="-10" type="curve" smooth="yes"/>
      <point x="554" y="-10"/>
      <point x="611" y="62"/>
      <point x="611" y="210" type="curve" smooth="yes"/>
      <point x="611" y="332"/>
      <point x="581" y="419"/>
      <point x="467" y="465" type="curve"/>
      <point x="427" y="421" type="line"/>
      <point x="428" y="409" type="line"/>
      <point x="509" y="371"/>
      <point x="532" y="314"/>
      <point x="532" y="211" type="curve" smooth="yes"/>
      <point x="532" y="103"/>
      <point x="503" y="48"/>
      <point x="445" y="48" type="curve" smooth="yes"/>
      <point x="393" y="48"/>
      <point x="365" y="99"/>
      <point x="365" y="206" type="curve" smooth="yes"/>
      <point x="365" y="302" type="line"/>
      <point x="361" y="305" type="line"/>
      <point x="289" y="298" type="line"/>
      <point x="289" y="203" type="line" smooth="yes"/>
      <point x="289" y="96"/>
      <point x="258" y="48"/>
      <point x="207" y="48" type="curve" smooth="yes"/>
      <point x="149" y="48"/>
      <point x="121" y="103"/>
      <point x="121" y="212" type="curve" smooth="yes"/>
      <point x="121" y="311"/>
      <point x="145" y="367"/>
      <point x="225" y="408" type="curve"/>
      <point x="225" y="421" type="line"/>
      <point x="186" y="465" type="line"/>
      <point x="80" y="418"/>
      <point x="42" y="335"/>
      <point x="42" y="210" type="curve" smooth="yes"/>
      <point x="42" y="64"/>
      <point x="96" y="-10"/>
    </contour>
  </outline>
</glyph>
<glyph name="KaiSymbol" format="2">
  <advance width="588"/>
  <unicode hex="03CF"/>
  <outline>
    <contour>
      <point x="485" y="-6" type="line"/>
      <point x="564" y="9" type="line"/>
      <point x="564" y="18" type="line"/>
      <point x="466" y="122"/>
      <point x="371" y="233"/>
      <point x="289" y="340" type="curve"/>
      <point x="547" y="641" type="line"/>
      <point x="450" y="641" type="line"/>
      <point x="411" y="585" type="line"/>
      <point x="200" y="342" type="line"/>
      <point x="200" y="336" type="line"/>
      <point x="283" y="220"/>
      <point x="372" y="111"/>
      <point x="466" y="3" type="curve"/>
    </contour>
    <contour>
      <point x="304" y="-212" type="curve"/>
      <point x="430" y="-231"/>
      <point x="505" y="-167"/>
      <point x="564" y="9" type="curve"/>
      <point x="485" y="-6" type="line"/>
      <point x="436" y="-125"/>
      <point x="383" y="-159"/>
      <point x="278" y="-138" type="curve"/>
      <point x="271" y="-144" type="line"/>
      <point x="275" y="-171"/>
      <point x="286" y="-193"/>
    </contour>
    <contour>
      <point x="104" y="0" type="line"/>
      <point x="190" y="0" type="line"/>
      <point x="187" y="200" type="line"/>
      <point x="191" y="641" type="line"/>
      <point x="104" y="641" type="line"/>
      <point x="108" y="193" type="line"/>
    </contour>
  </outline>
</glyph>
<glyph name="thetaSymbol" format="2">
  <advance width="499"/>
  <unicode hex="03D1"/>
  <outline>
    <contour>
      <point x="245" y="-8" type="curve" smooth="yes"/>
      <point x="371" y="-8"/>
      <point x="445" y="121"/>
      <point x="445" y="358" type="curve" smooth="yes"/>
      <point x="445" y="584"/>
      <point x="375" y="707"/>
      <point x="256" y="707" type="curve" smooth="yes"/>
      <point x="130" y="707"/>
      <point x="55" y="578"/>
      <point x="55" y="341" type="curve" smooth="yes"/>
      <point x="55" y="114"/>
      <point x="125" y="-8"/>
    </contour>
    <contour>
      <point x="250" y="52" type="curve" smooth="yes"/>
      <point x="170" y="52"/>
      <point x="128" y="153"/>
      <point x="128" y="351" type="curve" smooth="yes"/>
      <point x="128" y="543"/>
      <point x="172" y="645"/>
      <point x="251" y="645" type="curve" smooth="yes"/>
      <point x="330" y="645"/>
      <point x="371" y="544"/>
      <point x="371" y="348" type="curve" smooth="yes"/>
      <point x="371" y="155"/>
      <point x="329" y="52"/>
    </contour>
    <contour>
      <point x="93" y="311" type="line"/>
      <point x="405" y="322" type="line"/>
      <point x="402" y="381" type="line"/>
      <point x="91" y="371" type="line"/>
    </contour>
  </outline>
</glyph>
